<svg xmlns="http://www.w3.org/2000/svg" width="141" height="25" viewBox="0 0 141 25">
  <path fill="#231F20" d="M11.2421875,20.25 C10.078125,22.359375 8.1171875,24.25 5.6171875,24.25 C2.7109375,24.21875 0,22.4140625 0,18.875 L0,5.46875 L6.8984375,0 L6.8984375,5.8203125 L9.7265625,5.8203125 L8.71875,8.453125 L6.890625,8.515625 L6.890625,20.3671875 C6.890625,21.40625 7.3828125,22.046875 8.203125,22.046875 C9.515625,22.046875 10.6796875,20.2421875 10.6796875,20.2421875 L11.2421875,20.25 Z M84.8984375,15.46875 C85.9179933,15.4626894 86.9254369,15.6898318 87.84375,16.1328125 L87.84375,10.7734375 C87.84375,9.7734375 87.6640625,8.8046875 86.0234375,8.8046875 C84.3828125,8.8046875 83.8671875,9.7734375 83.8671875,9.7734375 C84.7206126,10.1799502 85.3091334,10.9921089 85.4296875,11.9296875 C85.4155096,12.5873313 85.1378083,13.211729 84.6589302,13.662697 C84.1800521,14.113665 83.5401227,14.3534165 82.8828125,14.328125 C82.2468438,14.3440598 81.6329289,14.0946161 81.1883072,13.6396199 C80.7436855,13.1846237 80.5084658,12.5651196 80.5390625,11.9296875 C80.5390625,9.65625 83.1796875,8.2578125 86.546875,8.265625 C91.734375,8.265625 93.640625,10.6953125 93.640625,13.8125 L93.640625,20.90625 C93.640625,21.875 94.03125,22.390625 94.765625,22.390625 C95.3252355,22.3894781 95.8176616,22.0209528 95.9765625,21.484375 L96.3671875,21.484375 C96.3671875,21.484375 95.8203125,24.2734375 92.3671875,24.2734375 C90.0234375,24.2734375 88.8203125,23.7265625 88.2109375,22.546875 C87.7890625,23.2421875 86.7265625,24.2734375 84.390625,24.2734375 C81.265625,24.2734375 79.4453125,22.7890625 79.4453125,19.84375 C79.46875,17.109375 81.5859375,15.46875 84.8984375,15.46875 Z M87.078125,22.5625 C87.4504632,22.5722827 87.8110034,22.4314467 88.078125,22.171875 C87.9118774,21.5502725 87.8304107,20.9090513 87.8359375,20.265625 L87.8359375,16.59375 L87.65625,16.59375 C85.8359375,16.59375 84.953125,17.8671875 84.953125,19.625 C84.953125,21.3828125 85.7421875,22.5703125 87.078125,22.5703125 L87.078125,22.5625 Z M124.359375,16.328125 C124.359375,11.4140625 127.484375,8.265625 132.398438,8.265625 C137.3125,8.265625 140.375,11.390625 140.375,16.3359375 C140.375,21.28125 137.25,24.28125 132.398438,24.28125 C127.546875,24.28125 124.359375,21.2109375 124.359375,16.328125 Z M134.367188,16.328125 C134.367188,10.203125 133.976562,8.8984375 132.398438,8.8984375 C130.820312,8.8984375 130.367188,10.203125 130.367188,16.328125 C130.367188,22.3046875 130.820312,23.609375 132.398438,23.609375 C133.976562,23.609375 134.375,22.3046875 134.375,16.328125 L134.367188,16.328125 Z M21.6953125,8.4453125 C23.6953125,8.4453125 25,9.6015625 25,11.328125 C25.0303106,12.0920393 24.7439411,12.8345853 24.2085483,13.380331 C23.6731555,13.9260767 22.9362296,14.2266135 22.171875,14.2109375 C21.4215644,14.2099002 20.7046447,13.9005909 20.189073,13.3554736 C19.6735013,12.8103563 19.4045806,12.0773299 19.4453125,11.328125 C19.4283182,11.1149214 19.4283182,10.9007036 19.4453125,10.6875 C19.4453125,10.6875 19.4140625,10.4765625 19.0234375,10.4765625 C18.3203125,10.4765625 17.8125,12.328125 17.5390625,13.5390625 L17.5390625,23.8359375 L11.71875,23.8359375 L11.71875,16.90625 L11.71875,8.5 L17.5078125,8.5 L17.5078125,11.4765625 C17.9921875,10.5078125 19.265625,8.4453125 21.6953125,8.4453125 Z M42.890625,23.8359375 L37.0703125,23.8359375 L37.0703125,8.53125 L42.8671875,8.53125 L42.8671875,11.0703125 C44.138394,9.31053881 46.1653264,8.25363834 48.3359375,8.21875 C51.21875,8.21875 52.8828125,10.0703125 52.8828125,13.5546875 L52.8828125,23.8359375 L47.03125,23.8359375 L47.03125,12.0625 C47.0883654,11.6241469 46.9460762,11.1832633 46.6434828,10.8610013 C46.3408894,10.5387393 45.9098274,10.369004 45.46875,10.3984375 C44.4703282,10.448425 43.5371103,10.9093781 42.890625,11.671875 L42.890625,23.8359375 Z M64.59375,22.5859375 C64.5896703,22.5324743 64.5555431,22.4859836 64.5057595,22.4660701 C64.4559758,22.4461566 64.3992004,22.4562863 64.359375,22.4921875 C63.3526272,23.562916 61.968187,24.1990858 60.5,24.265625 C56.8359375,24.265625 54.6484375,20.9296875 54.6484375,16.2890625 L54.6484375,16.2265625 C54.6796875,11.5859375 56.828125,8.25 60.5,8.25 C61.7728059,8.29230331 62.9899625,8.78193222 63.9375,9.6328125 C64.0559918,9.73337343 64.2221402,9.75586067 64.3631001,9.69041504 C64.5040599,9.6249694 64.5941025,9.48353633 64.59375,9.328125 L64.59375,5.921875 L70.4140625,2.9296875 L70.4140625,23.9765625 L64.59375,23.9765625 L64.59375,22.5859375 Z M60.6875,16.2578125 L60.65625,16.2578125 C60.65625,20.40625 61.1328125,22.5625 62.75,22.5625 C64.3671875,22.5625 64.6328125,20.7421875 64.6328125,20.625 L64.6328125,11.890625 C64.6171875,11.765625 64.421875,9.953125 62.75,9.953125 C61.078125,9.953125 60.6875,12.1015625 60.6875,16.2578125 Z M118.648438,8.2578125 C121.53125,8.2578125 123.195312,10.109375 123.148438,13.59375 L123.148438,23.9296875 L117.382813,23.9296875 L117.296875,12.109375 C117.35399,11.6710219 117.211701,11.2301383 116.909108,10.9078763 C116.606514,10.5856143 116.175452,10.415879 115.734375,10.4453125 C114.614868,10.5079143 113.576242,11.0485691 112.882813,11.9296875 C112.981347,12.4789016 113.03102,13.0357669 113.03125,13.59375 L113.03125,23.9296875 L107.179688,23.9296875 L107.179688,12.1015625 C107.236803,11.6632094 107.094514,11.2223258 106.79192,10.9000638 C106.489327,10.5778018 106.058265,10.4080665 105.617188,10.4375 C104.728414,10.4772623 103.889087,10.8577573 103.273438,11.5 L103.273438,23.9296875 L97.453125,23.9296875 L97.453125,8.6640625 L103.273438,8.4921875 L103.273438,10.8359375 C104.545287,9.2290468 106.474261,8.28178275 108.523438,8.2578125 C110.557983,8.10592516 112.393818,9.47530502 112.828125,11.46875 C114.107865,9.49103561 116.292951,8.28557199 118.648438,8.2578125 Z M71.875,4.6875 C71.875,2.84079787 73.3720479,1.34375 75.21875,1.34375 C77.0654521,1.34375 78.5625,2.84079787 78.5625,4.6875 C78.5625,6.53420213 77.0654521,8.03125 75.21875,8.03125 C73.3720479,8.03125 71.875,6.53420213 71.875,4.6875 Z M35.5625,15.765625 L26.59375,15.7421875 L26.59375,16.2890625 C26.59375,21.7421875 27.015625,23.078125 29.59375,23.078125 C33.125,23.078125 34.6875,19.53125 34.6875,19.53125 L35.109375,19.8515625 C34.1949023,22.5698075 31.6087917,24.3689789 28.7421875,24.28125 C23.796875,24.28125 20.671875,21.21875 20.671875,16.3359375 C20.6730748,15.7041104 20.7332314,15.0737736 20.8515625,14.453125 C21.3190692,14.679851 21.8319791,14.7973929 22.3515625,14.796875 C23.2354941,14.8052143 24.0860919,14.4599048 24.7140814,13.8377844 C25.3420708,13.2156639 25.6953518,12.3683459 25.6953125,11.484375 C25.7053104,10.5990615 25.3457339,9.74966824 24.703125,9.140625 C25.8402051,8.58907349 27.0806199,8.28296256 28.34375,8.2421875 L28.7421875,8.2421875 C33.046875,8.3984375 35.1953125,11.15625 35.5625,15.4296875 L35.5625,15.765625 Z M28.5859375,8.9453125 C27.2265625,9.03125 26.6796875,10.15625 26.5625,15.0390625 L30.3125,15.0390625 C30.2578125,10.1875 29.859375,9.0390625 28.5859375,8.9453125 Z M75.203125,9.0390625 C76.2825538,9.04232272 77.3233753,8.63771381 78.1171875,7.90625 L78.1171875,23.8984375 C78.1171875,23.9458995 78.078712,23.984375 78.03125,23.984375 L72.375,23.984375 C72.327538,23.984375 72.2890625,23.9458995 72.2890625,23.8984375 L72.2890625,7.921875 C73.0848388,8.64832586 74.1256641,9.04735538 75.203125,9.0390625 Z"/>
</svg>
