<svg xmlns="http://www.w3.org/2000/svg" id="Ebene_1" viewBox="0 0 822.3 178.1"><style>.st0{fill:#1b3b50}</style><path d="M304.5 1.7h-20.4c-1.6 0-2.9 1.3-2.9 2.9v53.5c0 16.8-6.3 24.6-19.9 24.6s-19.9-7.8-19.9-24.6V4.6c0-1.6-1.3-2.9-2.9-2.9h-20.7c-1.6 0-2.9 1.3-2.9 2.9V59c0 29.9 16.8 47.1 46.2 47.1 29.4 0 46.2-17.2 46.2-47.1V4.6c.2-1.6-1.1-2.9-2.8-2.9zM370.2 1.7h-41.4c-1.6 0-2.9 1.3-2.9 2.9v96.8c0 1.6 1.3 2.9 2.9 2.9h20.7c1.6 0 2.9-1.3 2.9-2.9V77.2h17.8c27.4 0 44.4-14.4 44.4-37.7 0-23.3-17-37.8-44.4-37.8zm-17.8 22.5h16.5c8.6 0 18.9 2.6 18.9 15.3 0 12.5-10.3 15.1-18.9 15.1h-16.5V24.2zM505.1 1.7h-83.3c-1.6 0-2.9 1.3-2.9 2.9v16.7c0 1.6 1.3 2.9 2.9 2.9h28.4v77.2c0 1.6 1.3 2.9 2.9 2.9h20.7c1.6 0 2.9-1.3 2.9-2.9V24.2h28.4c1.6 0 2.9-1.3 2.9-2.9V4.6c0-1.6-1.3-2.9-2.9-2.9zM566.1 0c-32.1 0-55.4 22.3-55.4 53s23.3 53 55.4 53 55.4-22.3 55.4-53-23.2-53-55.4-53zm0 82.7c-16.9 0-28.7-12.2-28.7-29.7s11.8-29.7 28.7-29.7 28.7 12.2 28.7 29.7-11.8 29.7-28.7 29.7zM723.2 1.7h-20c-1.7 0-3.1 1.4-3.1 3.1v53.3c0 16.8-6.3 24.6-19.9 24.6s-19.9-7.8-19.9-24.6V4.8c0-1.7-1.4-3.1-3.1-3.1H637c-1.7 0-3.1 1.4-3.1 3.1V59c0 29.9 16.8 47.1 46.2 47.1 29.4 0 46.2-17.2 46.2-47.1V4.8c0-1.7-1.3-3.1-3.1-3.1zM785.2 42.1c-10.6-2.4-19.7-4.6-19.7-10.5 0-6 5.9-9.3 16.6-9.3 8.2 0 16.8 2.4 25 6.9.8.4 1.7.5 2.5.2s1.5-.9 1.8-1.8l6.1-15.2c.6-1.4 0-3.1-1.3-3.9-8.8-5.4-21.2-8.5-34-8.5C762.3 0 739 8.6 739 32.7c0 23 20.6 27.8 37.1 31.7 10.6 2.5 19.8 4.6 19.8 10.8 0 7.5-10.6 8.6-16.9 8.6-10.3 0-21.8-3.5-30-9.2-.8-.5-1.7-.7-2.6-.4-.9.2-1.6.9-2 1.7L737.7 91c-.6 1.4-.2 3 1 3.8 9.3 6.8 25.1 11.2 40.2 11.2 32.1 0 43.4-17.6 43.4-32.6 0-22.7-20.6-27.4-37.1-31.3z" class="st0"/><g><path d="M253 153.1c0 8.5-6.3 13.8-16.5 13.8h-7.6v10.6h-8.8v-38.3h16.4c10.2 0 16.5 5.3 16.5 13.9zm-8.9 0c0-4.2-2.7-6.7-8.1-6.7h-7.1v13.3h7.1c5.4 0 8.1-2.4 8.1-6.6zM257.4 158.4c0-11.4 8.8-19.8 20.7-19.8 11.9 0 20.7 8.4 20.7 19.8s-8.8 19.8-20.7 19.8c-12-.1-20.7-8.5-20.7-19.8zm32.6 0c0-7.3-5.1-12.2-11.9-12.2-6.8 0-11.9 5-11.9 12.2 0 7.3 5.1 12.2 11.9 12.2 6.8 0 11.9-5 11.9-12.2zM302.5 173.7l3-6.7c3.2 2.4 8 4 12.5 4 5.2 0 7.3-1.7 7.3-4.1 0-7.2-22-2.2-22-16.5 0-6.5 5.2-11.9 16-11.9 4.8 0 9.6 1.1 13.2 3.4l-2.7 6.7c-3.5-2-7.1-3-10.5-3-5.2 0-7.2 2-7.2 4.4 0 7.1 22 2.2 22 16.2 0 6.4-5.3 11.9-16.1 11.9-6.1 0-12.2-1.8-15.5-4.4zM340 139.2h8.8v38.3H340v-38.3zM365.6 146.4h-12.1v-7.2h33v7.2h-12.1v31.1h-8.8v-31.1zM391.2 139.2h8.8v38.3h-8.8v-38.3zM445.1 139.2l-16.4 38.3H420l-16.3-38.3h9.5l11.5 27.3 11.7-27.3h8.7zM477.6 170.4v7.1h-29.3v-38.3h28.6v7.1H457v8.3h17.6v6.9H457v8.9h20.6zM499.9 139.2h8.8v38.3h-8.8v-38.3zM552.4 139.2v38.3h-7.2l-18.9-23.2v23.2h-8.7v-38.3h7.3l18.8 23.2v-23.2h8.7zM570.1 146.3v10.1h17.5v7.1h-17.5v13.9h-8.8v-38.3H590v7.1h-19.9zM595.9 139.2h8.8v31.1h19v7.2h-27.8v-38.3zM627.8 160.6v-21.4h8.8v21.1c0 7.3 3.1 10.3 8.4 10.3 5.4 0 8.4-3 8.4-10.3v-21.1h8.7v21.4c0 11.3-6.4 17.5-17.2 17.5-10.7 0-17.1-6.2-17.1-17.5zM700.1 170.4v7.1h-29.3v-38.3h28.6v7.1h-19.9v8.3h17.6v6.9h-17.6v8.9h20.6zM741.8 139.2v38.3h-7.2l-18.9-23.2v23.2H707v-38.3h7.3l18.8 23.2v-23.2h8.7zM748.4 158.4c0-11.5 8.8-19.8 20.6-19.8 6.5 0 12 2.4 15.6 6.8l-5.6 5.2c-2.5-3-5.7-4.5-9.5-4.5-7.1 0-12.1 5-12.1 12.2 0 7.2 5 12.2 12.1 12.2 3.8 0 7-1.5 9.5-4.5l5.6 5.2c-3.6 4.4-9 6.8-15.6 6.8-11.8.1-20.6-8.1-20.6-19.6zM819.8 170.4v7.1h-29.3v-38.3h28.6v7.1h-19.9v8.3h17.6v6.9h-17.6v8.9h20.6z" class="st0"/></g><path d="M14 1.6h148c7.7 0 14 6.3 14 14v148c0 7.7-6.3 14-14 14H14c-7.7 0-14-6.3-14-14v-148c0-7.7 6.3-14 14-14z" class="st0"/><path fill="#fff" d="M130 50.3h-19.6c-.5 0-.9.4-.9.9v50.7c0 17.8-7.6 25.2-20.9 25.2-13.1 0-20.9-7.4-20.9-25.2V68.1c-2.9.8-5.6 2.5-7.5 4.9-5.8 6.8-6.7 15.7-10.6 23.6-.9 1.8-2.1 3.5-3.5 4.8v1.3c0 27.6 15.8 42.8 42.4 42.8 26.6 0 42.4-15.3 42.4-42.8V51.2c0-.5-.4-.9-.9-.9z"/><path fill="#1fc89b" d="M49.6 102c4-7.9 4.9-16.7 10.6-23.6 1.9-2.3 4.6-4.1 7.5-4.9v-15c0-.5.4-.9.9-.9h10.7c.8 0 1.2-1 .7-1.6L57.8 33.7c-.4-.4-.9-.4-1.3 0L34.3 56c-.6.6-.2 1.6.7 1.6h10.2c.5 0 .9.4.9.9v48.4c1.4-1.4 2.6-3.1 3.5-4.9z"/></svg>