<?xml version="1.0" encoding="UTF-8"?>
<svg width="17px" height="30px" viewBox="0 0 17 30" version="1.1" xmlns="http://www.w3.org/2000/svg" xmlns:xlink="http://www.w3.org/1999/xlink">
    <!-- Generator: Sketch 52.6 (67491) - http://www.bohemiancoding.com/sketch -->
    <title>001-facebook-logo</title>
    <desc>Created with Sketch.</desc>
    <g id="Page-1" stroke="none" stroke-width="1" fill="none" fill-rule="evenodd">
        <g id="001-facebook-logo" fill="#000000">
            <path d="M15.4914433,0.00618556701 L11.6362887,0 C7.30515464,0 4.50618557,2.87164948 4.50618557,7.31628866 L4.50618557,10.6895876 L0.63,10.6895876 C0.295051546,10.6895876 0.023814433,10.961134 0.023814433,11.2960825 L0.023814433,16.1836082 C0.023814433,16.5185567 0.295360825,16.7897938 0.63,16.7897938 L4.50618557,16.7897938 L4.50618557,29.1225773 C4.50618557,29.4575258 4.77742268,29.7287629 5.11237113,29.7287629 L10.1696907,29.7287629 C10.5046392,29.7287629 10.7758763,29.4572165 10.7758763,29.1225773 L10.7758763,16.7897938 L15.3080412,16.7897938 C15.6429897,16.7897938 15.9142268,16.5185567 15.9142268,16.1836082 L15.9160825,11.2960825 C15.9160825,11.1352577 15.8520619,10.9812371 15.7385567,10.8674227 C15.6250515,10.7536082 15.4704124,10.6895876 15.3095876,10.6895876 L10.7758763,10.6895876 L10.7758763,7.83 C10.7758763,6.45556701 11.1034021,5.75783505 12.8938144,5.75783505 L15.4908247,5.75690722 C15.8254639,5.75690722 16.096701,5.48536082 16.096701,5.15072165 L16.096701,0.612371134 C16.096701,0.278041237 15.8257732,0.00680412371 15.4914433,0.00618556701 Z" id="Path"></path>
        </g>
    </g>
</svg>
