<?xml version="1.0" encoding="UTF-8"?>
<svg width="30px" height="25px" viewBox="0 0 30 25" version="1.1" xmlns="http://www.w3.org/2000/svg" xmlns:xlink="http://www.w3.org/1999/xlink">
    <!-- Generator: Sketch 52.6 (67491) - http://www.bohemiancoding.com/sketch -->
    <title>002-twitter-logo-silhouette</title>
    <desc>Created with Sketch.</desc>
    <g id="Page-1" stroke="none" stroke-width="1" fill="none" fill-rule="evenodd">
        <g id="002-twitter-logo-silhouette" fill="#FFFFFF">
            <path d="M30,2.90480392 C28.8958333,3.39406863 27.7110784,3.72588235 26.4662745,3.87401961 C27.7373039,3.11289216 28.7102451,1.90563725 29.1713725,0.471519608 C27.9791176,1.17637255 26.6630882,1.68818627 25.2608333,1.96563725 C24.1379412,0.767745098 22.5407353,0.0216176471 20.7691667,0.0216176471 C17.3704412,0.0216176471 14.6147059,2.77735294 14.6147059,6.17421569 C14.6147059,6.65598039 14.6690686,7.12651961 14.7740686,7.57647059 C9.66004902,7.31960784 5.12529412,4.86946078 2.0902451,1.14637255 C1.55970588,2.05372549 1.25789216,3.11098039 1.25789216,4.23955882 C1.25789216,6.37480392 2.34519608,8.25882353 3.99490196,9.36107843 C2.98632353,9.32735294 2.0377451,9.04990196 1.20730392,8.58872549 L1.20730392,8.66558824 C1.20730392,11.6462745 3.32941176,14.1339216 6.14323529,14.700098 C5.62769608,14.8388235 5.08406863,14.9156863 4.52166667,14.9156863 C4.12426471,14.9156863 3.73995098,14.8763235 3.36313725,14.8013235 C4.14671569,17.2477451 6.41882353,19.0267647 9.11083333,19.0755392 C7.00558824,20.7252451 4.35107843,21.7056863 1.46789216,21.7056863 C0.971127451,21.7056863 0.481813725,21.6756863 4.90196078e-05,21.6213235 C2.72392157,23.3703922 5.95769608,24.3901961 9.43328431,24.3901961 C20.7542647,24.3901961 26.9425,15.0131863 26.9425,6.88098039 L26.9218627,6.08426471 C28.1309804,5.22186275 29.1770098,4.13833333 30,2.90480392 Z" id="Path"></path>
        </g>
    </g>
</svg>