<?xml version="1.0" encoding="UTF-8"?>
<svg width="30px" height="30px" viewBox="0 0 30 30" version="1.1" xmlns="http://www.w3.org/2000/svg" xmlns:xlink="http://www.w3.org/1999/xlink">
    <!-- Generator: Sketch 52.6 (67491) - http://www.bohemiancoding.com/sketch -->
    <title>003-instagram-social-network-logo-of-photo-camera</title>
    <desc>Created with Sketch.</desc>
    <g id="Page-1" stroke="none" stroke-width="1" fill="none" fill-rule="evenodd">
        <g id="003-instagram-social-network-logo-of-photo-camera" fill="#000000" fill-rule="nonzero">
            <path d="M3.82683673,0 L25.9879592,0 C28.092551,0 29.8144898,1.55816327 29.8144898,3.82653061 L29.8144898,25.9882653 C29.8144898,28.2566327 28.092551,29.8147959 25.9879592,29.8147959 L3.82683673,29.8147959 C1.72163265,29.8147959 0,28.2566327 0,25.9882653 L0,3.82653061 C0,1.55816327 1.72163265,0 3.82683673,0 Z M21.7187755,3.31255102 C20.9804082,3.31255102 20.3770408,3.91622449 20.3770408,4.65489796 L20.3770408,7.86765306 C20.3770408,8.60602041 20.9804082,9.21 21.7187755,9.21 L25.0885714,9.21 C25.8269388,9.21 26.4309184,8.60602041 26.4309184,7.86765306 L26.4309184,4.65489796 C26.4309184,3.91622449 25.8269388,3.31255102 25.0885714,3.31255102 L21.7187755,3.31255102 Z M26.445,12.6085714 L23.8209184,12.6085714 C24.0691837,13.4191837 24.2035714,14.2778571 24.2035714,15.1662245 C24.2035714,20.1254082 20.0537755,24.1454082 14.9357143,24.1454082 C9.81795918,24.1454082 5.66877551,20.1254082 5.66877551,15.1662245 C5.66877551,14.2772449 5.80285714,13.4188776 6.05142857,12.6085714 L3.31316327,12.6085714 L3.31316327,25.2027551 C3.31316327,25.8544898 3.84642857,26.3880612 4.49846939,26.3880612 L25.2603061,26.3880612 C25.9123469,26.3880612 26.4456122,25.8547959 26.4456122,25.2027551 L26.4456122,12.6085714 L26.445,12.6085714 Z M14.9354082,9.04071429 C11.6286735,9.04071429 8.94765306,11.6381633 8.94765306,14.8426531 C8.94765306,18.0471429 11.6286735,20.6445918 14.9354082,20.6445918 C18.242449,20.6445918 20.9237755,18.0471429 20.9237755,14.8426531 C20.9237755,11.6381633 18.2427551,9.04071429 14.9354082,9.04071429 Z" id="Shape"></path>
        </g>
    </g>
</svg>
