<?xml version="1.0" encoding="utf-8"?>
<!-- Generator: Adobe Illustrator 23.0.1, SVG Export Plug-In . SVG Version: 6.00 Build 0)  -->
<svg version="1.1" id="Ebene_1" xmlns="http://www.w3.org/2000/svg" xmlns:xlink="http://www.w3.org/1999/xlink" x="0px" y="0px"
	 viewBox="0 0 18 22" style="enable-background:new 0 0 18 22;" xml:space="preserve">
<style type="text/css">
	.st0{fill:#D6D6D6;}
</style>
<title>icon/maps/person_pin_24px</title>
<desc>Created with Sketch.</desc>
<g id="Icons-Outline">
	<g transform="translate(-3.000000, -1.000000)">
		<g>
			<path class="st0" d="M19,1.5H5c-1.1,0-2,0.9-2,2v14c0,1.1,0.9,2,2,2h4l3,3l3-3h4c1.1,0,2-0.9,2-2v-14C21,2.4,20.1,1.5,19,1.5z
				 M19,17.5h-4.8l-0.6,0.6L12,19.7l-1.6-1.6l-0.6-0.6H5v-14h14V17.5z M12,10.5c1.6,0,3-1.4,3-3s-1.4-3-3-3s-3,1.3-3,3
				S10.4,10.5,12,10.5z M12,6.5c0.6,0,1,0.4,1,1s-0.4,1-1,1s-1-0.4-1-1S11.4,6.5,12,6.5z M18,15.1c0-2.5-4-3.6-6-3.6s-6,1.1-6,3.6
				v1.4h12V15.1z M8.5,14.5c0.7-0.5,2.2-1,3.5-1s2.8,0.5,3.5,1H8.5z"/>
		</g>
	</g>
</g>
</svg>
