<svg xmlns="http://www.w3.org/2000/svg" width="18" height="18" viewBox="0 0 18 18">
    <path fill="#000" fill-opacity=".8" fill-rule="nonzero" d="M16.775 4.478a8.953 8.953 0 0 0-3.272-3.272A8.794 8.794 0 0 0 8.991 0a8.795 8.795 0 0 0-4.513 1.206 8.95 8.95 0 0 0-3.272 3.272A8.794 8.794 0 0 0 0 8.99c0 1.631.402 3.136 1.206 4.513a8.955 8.955 0 0 0 3.272 3.272 8.795 8.795 0 0 0 4.513 1.206 8.795 8.795 0 0 0 4.512-1.206 8.95 8.95 0 0 0 3.272-3.272 8.796 8.796 0 0 0 1.206-4.513 8.797 8.797 0 0 0-1.206-4.512zm-6.66 9.243c-.078-.094-.105-.172-.082-.235-.008.04-.035.075-.082.106a1.116 1.116 0 0 0-.21-.176 1.105 1.105 0 0 1-.211-.176 5.006 5.006 0 0 1-.17-.269 1.18 1.18 0 0 1-.093-.181c-.02-.051-.022-.08-.006-.088-.149.063-.363.02-.644-.129a1.152 1.152 0 0 1-.246-.246c-.11-.132-.222-.19-.34-.175a1.97 1.97 0 0 0-.158.04.612.612 0 0 1-.17.03.534.534 0 0 1-.187-.047 1.51 1.51 0 0 1-.251-.135 1.678 1.678 0 0 0-.217-.122l-.152-.082-.187-.094a.575.575 0 0 1-.147-.11.37.37 0 0 1-.099-.16 2.254 2.254 0 0 1-.059-.28.874.874 0 0 0-.093-.304 1.055 1.055 0 0 0-.2-.234c-.085-.078-.163-.118-.233-.118.062 0 .062-.052 0-.158a1.186 1.186 0 0 0-.164-.228 14.66 14.66 0 0 1-.34-.375.936.936 0 0 1-.14-.216c-.04-.082-.047-.15-.024-.205.008-.008 0-.02-.023-.035a.607.607 0 0 0-.088-.047A2.013 2.013 0 0 0 5 9.23a.23.23 0 0 0-.07-.018.894.894 0 0 1 .053.17c.02.082.041.143.065.182.015.031.081.144.199.34.203.327.296.569.28.725-.046.016-.078.008-.093-.023a.426.426 0 0 1-.035-.129.736.736 0 0 0-.024-.117c-.023-.047-.084-.098-.181-.152-.098-.055-.158-.11-.182-.164a.055.055 0 0 0 .03-.012.057.057 0 0 1 .029-.012c.008-.07-.033-.16-.123-.269-.09-.11-.127-.187-.111-.234-.063-.047-.117-.139-.164-.275a1.032 1.032 0 0 0-.117-.264.5.5 0 0 0-.117-.123 2.31 2.31 0 0 0-.176-.116 5.104 5.104 0 0 1-.14-.088.45.45 0 0 1-.094-.105c-.257-.313-.335-.48-.234-.504-.101.024-.185-.053-.252-.228-.066-.176-.088-.31-.064-.404l-.024-.012c.008-.031.012-.123.012-.275 0-.152.01-.29.03-.416.02-.124.056-.187.11-.187-.054.008-.095-.041-.122-.146-.027-.106-.03-.178-.006-.217.008-.023.043-.008.105.047a.6.6 0 0 1 .106.105c.101-.054.14-.125.117-.21-.016-.032-.098-.114-.246-.246-.336-.219-.508-.324-.515-.317.046-.085.035-.16-.035-.222-.078.047-.123.059-.135.035a.453.453 0 0 1-.03-.128c-.007-.063-.027-.098-.058-.106-.039-.008-.086-.039-.14-.093a7.388 7.388 0 0 1 2.75-2.6c.047-.007.133-.01.258-.01a.468.468 0 0 1 .176.058.924.924 0 0 1 .17.128c.058.055.103.094.134.117.016-.047-.004-.117-.058-.21.015-.047.101-.094.257-.14.18-.024.297-.02.351.01a3.08 3.08 0 0 0-.234-.292l-.058.059c-.063-.055-.227-.028-.492.082-.015.007-.055.029-.117.064-.062.035-.113.06-.152.076a.288.288 0 0 1-.14.012 6.632 6.632 0 0 1 1.1-.48c.023.015.062.048.117.099.054.05.097.088.128.111-.023-.015-.039-.008-.046.024-.032.093-.032.171 0 .234a.217.217 0 0 0 .158.093.872.872 0 0 0 .24-.011c.093-.016.156-.024.187-.024l.117.012c.25.023.347 0 .293-.07.023.031.05.095.082.193a.52.52 0 0 0 .105.205c.04-.031.047-.086.023-.164-.023-.078-.023-.133 0-.164.008-.016.032-.031.07-.047l.135-.052.1-.041c.047-.032.015-.086-.094-.164a.8.8 0 0 0-.1-.036 1.682 1.682 0 0 1-.134-.046.744.744 0 0 1-.123-.065c-.043-.027-.062-.058-.058-.093a.317.317 0 0 1 .064-.135c.047-.039.123-.055.228-.047a.58.58 0 0 1 .24.059c.211.117.242.222.094.316a.84.84 0 0 1 .281.093c.11.055.152.114.129.176.062-.117.125-.176.187-.176.04.008.076.06.111.158s.057.15.065.159c.062.085.124.105.187.058a.987.987 0 0 0 .193-.205c.066-.09.103-.13.111-.123-.078-.03-.086-.062-.023-.093.117-.07.222-.09.316-.059.023.016.055.051.093.105.07.141.059.207-.035.2.07.062.1.14.088.234-.012.093-.072.136-.182.128a.415.415 0 0 1-.17-.058.526.526 0 0 0-.17-.064c-.038-.004-.093.017-.163.064-.031.039-.072.105-.123.199a.896.896 0 0 1-.135.199c-.117.117-.312.16-.585.129.023 0 .021.023-.006.07a2.38 2.38 0 0 1-.193.257.597.597 0 0 0-.14.27c0 .015-.005.068-.013.158a.589.589 0 0 1-.046.205c.093-.024.167.023.222.14.047.11.047.168 0 .176.258-.04.484-.024.68.047.28.101.44.203.48.304.046-.07.16-.074.339-.012.07.04.132.156.187.351a.756.756 0 0 0 .158.305c.074.086.154.109.24.07l.035-.023.076-.041a.495.495 0 0 0 .064-.047c.024-.02.038-.037.041-.053.004-.015-.002-.031-.017-.047a.423.423 0 0 1-.123-.193.246.246 0 0 1 .018-.216.783.783 0 0 1 .187-.141c.102-.063.164-.125.187-.187.032-.102-.007-.186-.117-.252-.109-.066-.164-.127-.164-.182 0-.039.026-.085.076-.14.051-.055.073-.106.065-.152a.569.569 0 0 0-.041-.147.806.806 0 0 1-.047-.164c-.004-.035.014-.076.053-.122.054-.032.183-.03.386.005.203.035.335.073.398.111.024.016.074.04.152.07.078.032.147.065.205.1.058.035.092.068.1.1h-.059a.28.28 0 0 1 .1.164c.011.062-.018.109-.088.14a.369.369 0 0 1 .187.035c.125.047.129.09.012.129a.751.751 0 0 1 .1-.023.33.33 0 0 0 .158-.076.193.193 0 0 1 .052-.036.374.374 0 0 1 .053-.011.095.095 0 0 1 .07.017c.008 0 .025-.02.052-.058a2.28 2.28 0 0 1 .088-.117c.031-.04.058-.059.082-.059.023 0 .045.01.064.03.02.02.035.04.047.064.012.023.023.049.035.076.012.027.021.049.03.064.014.04.052.08.11.123a.314.314 0 0 1 .111.123c.008.023.023.082.047.176a.385.385 0 0 0 .094.193.457.457 0 0 0 .175.088c.016.007.051.003.106-.012a.28.28 0 0 1 .134-.012c.035.008.053.04.053.094.047-.047.07-.078.07-.094a.494.494 0 0 0 .076.246c.043.062.111.09.205.082l-.024.258c-.023.038-.081.068-.175.087a.64.64 0 0 0-.176.053.808.808 0 0 0-.17.14c-.09.086-.126.137-.11.153-.133-.149-.333-.192-.598-.13-.296.048-.5.095-.608.141a.852.852 0 0 0-.258.176.368.368 0 0 0-.04.082 2.13 2.13 0 0 1-.06.129c-.019.039-.036.058-.052.058.047-.007.1-.045.158-.111a.678.678 0 0 1 .111-.111c.203-.133.37-.18.504-.14.172.047.2.11.082.188-.015.015-.056.021-.123.017a.422.422 0 0 0-.134.006c.07.016.128.037.176.064.046.028.058.065.035.112.124.07.148.148.07.234a.423.423 0 0 1-.363.129c.024 0 .024.015 0 .046l-.2.13a2.469 2.469 0 0 1-.151.058.397.397 0 0 0-.176.105.234.234 0 0 0-.035.14c0 .063-.004.11-.012.141-.008.031-.039.039-.093.024-.024.046-.096.083-.217.11-.12.028-.2.069-.24.123.047.063.043.125-.012.188-.093.078-.175.07-.246-.024-.038.016-.068.055-.087.117-.02.063-.05.106-.088.13.055.085.047.148-.023.187.007 0 .025.007.052.023a.88.88 0 0 1 .088.058c.031.024.05.036.058.036-.03.07-.074.105-.128.105.047.125-.012.261-.176.41a.538.538 0 0 1-.146.093 2.114 2.114 0 0 1-.182.076.382.382 0 0 0-.093.041.793.793 0 0 0-.176.217.253.253 0 0 0-.018.217c.028.07.1.117.217.14l.011.094v.21l.012.094a1.162 1.162 0 0 1 .018.31c-.004.067-.022.104-.053.111-.03.008-.074 0-.128-.023-.063-.031-.137-.203-.223-.515a.782.782 0 0 0-.14-.28.352.352 0 0 1-.1.075c-.027.012-.047.014-.058.006a.771.771 0 0 1-.065-.053.782.782 0 0 0-.082-.064.621.621 0 0 0-.205-.058c-.097-.016-.158-.036-.18-.059-.188.14-.302.105-.34-.105-.016.039-.014.092.005.158.02.066.03.103.03.111-.055.102-.14.11-.258.023-.047-.046-.154-.052-.322-.017-.168.035-.279.04-.334.017.008 0 .024.012.047.036a.32.32 0 0 1 .047.035.147.147 0 0 1-.035.07c-.016.015-.031.021-.047.018a.119.119 0 0 0-.053 0 .197.197 0 0 0-.052.017.723.723 0 0 0-.117.123.582.582 0 0 1-.106.11c.047.126.069.221.065.287a3.527 3.527 0 0 1-.035.293c-.02.129-.03.232-.03.31 0 .125.037.27.111.434.075.163.162.277.264.34.055.03.148.05.28.057.133.008.227 0 .282-.023a.288.288 0 0 0 .105-.082.396.396 0 0 0 .059-.134 2.4 2.4 0 0 1 .035-.123c.054-.148.156-.226.304-.234.094-.008.162.002.205.029.043.027.06.064.052.111a.589.589 0 0 1-.046.146c-.024.051-.053.108-.088.17a.647.647 0 0 0-.064.141c-.016.062-.03.15-.041.264a1.448 1.448 0 0 1-.03.205.681.681 0 0 0 .176.011c0-.015.006-.041.018-.076a.333.333 0 0 0 .017-.064c.04.062.102.097.188.105.085.008.148-.023.187-.094.016.024.063.082.14.176.079.094.122.172.13.234.007.032.023.082.046.153.024.07.031.119.024.146-.008.027-.047.04-.117.04-.032 0-.051.013-.059.036a.16.16 0 0 0 0 .088.787.787 0 0 0 .076.199c.02.035.03.056.03.064.14.257.331.328.573.21 0 .227-.055.352-.164.375-.062.016-.132-.024-.21-.117zm.175 2.644a.937.937 0 0 1-.022-.187c-.009-.062.019-.146.081-.251a.541.541 0 0 0 .094-.24c-.125-.031-.172-.133-.141-.305.016-.117.129-.273.34-.468.148-.133.195-.32.14-.562a3.237 3.237 0 0 1-.059-.445 3.983 3.983 0 0 0-.046-.41c0 .024.037.045.111.065.074.02.119.045.135.076a.709.709 0 0 0 .058-.129.595.595 0 0 1 .07-.14.399.399 0 0 1 .1-.088 1.15 1.15 0 0 1 .1-.065.897.897 0 0 0 .104-.076c.055-.043.1-.076.135-.1a.389.389 0 0 1 .14-.052c.06-.011.1.006.123.053.04.047.032.119-.023.217-.055.097-.055.166 0 .205a.873.873 0 0 0 .023-.153.283.283 0 0 1 .07-.176.266.266 0 0 1 .135-.081.167.167 0 0 1 .117.017c.035.02.076.047.123.082a.33.33 0 0 0 .129.064c.117.04.257.125.421.258-.008-.008-.008-.018 0-.03a.123.123 0 0 1 .047-.035.877.877 0 0 0 .064-.035.328.328 0 0 1 .065-.029l.035-.011a.402.402 0 0 0 .117-.012c.023-.008.056 0 .1.023a.798.798 0 0 1 .169.117c.039.031.066.055.081.07l.13.082.146.094a.307.307 0 0 1 .093.105.23.23 0 0 1 .03.152c.046.008.14.04.28.094a.42.42 0 0 0 .147.04c.074.012.123.03.146.053a7.236 7.236 0 0 1-4.108 2.213z"/>
</svg>
