<svg xmlns="http://www.w3.org/2000/svg" width="24" height="17" viewBox="0 0 24 17">
    <path fill="#000" fill-opacity=".7" fill-rule="nonzero" d="M23.065 1.46C22.198.422 20.599 0 17.545 0H6.454C3.332 0 1.706.45.842 1.554 0 2.63 0 4.214 0 6.409v4.182C0 14.841.998 17 6.456 17h11.088c2.65 0 4.117-.373 5.067-1.288.973-.938 1.389-2.47 1.389-5.121V6.409c0-2.314-.065-3.909-.935-4.95zm-7.657 7.617l-5.035 2.65a.77.77 0 0 1-.76-.025.78.78 0 0 1-.373-.667v-5.28a.78.78 0 0 1 .372-.666.77.77 0 0 1 .76-.025l5.034 2.631a.78.78 0 0 1 .002 1.382z"/>
</svg>
