<svg xmlns="http://www.w3.org/2000/svg" width="131" height="33"><path fill-opacity=".9" d="M20.087 24.361c-1.034 2.884-4.175 4.37-7.016 3.32-2.84-1.049-4.305-4.237-3.27-7.12 1.033-2.883 4.174-4.37 7.014-3.32 2.841 1.049 4.306 4.237 3.272 7.12zM8.472 17.083c-.816 2.276-3.296 3.45-5.538 2.622-2.243-.829-3.4-3.346-2.583-5.622.816-2.276 3.296-3.45 5.538-2.622 2.243.829 3.4 3.346 2.583 5.622zm10.555-6.182c-.925 2.58-3.735 3.91-6.276 2.97-2.542-.938-3.852-3.79-2.927-6.37.925-2.58 3.735-3.91 6.276-2.972 2.542.94 3.852 3.792 2.927 6.372zm10.184 19.388V8.362c0-2.32.711-4.27 2.135-5.85C32.769.932 34.49.142 36.508.142h3.59c.635 0 1.133.224 1.492.672.36.447.54.978.54 1.593 0 .643-.18 1.188-.54 1.636-.36.447-.857.67-1.492.67h-2.47c-.913 0-1.652.28-2.219.84-.567.558-.85 1.3-.85 2.222v3.839h4.057c.415 0 .747.195.996.587.248.391.373.997.373 1.528s-.125.993-.373 1.384c-.25.391-.58.587-.996.587H34.56v14.59c0 .503-.27.908-.808 1.216-.54.307-1.182.55-1.928.55a3.51 3.51 0 0 1-1.866-.55c-.498-.308-.746-.713-.746-1.216zm12.347-.04V13.45c0-.502.241-.908.725-1.215.483-.307 1.112-.605 1.886-.605.69 0 1.264.298 1.72.605.456.307.684.713.684 1.215v1.718c.442-.977 1.133-1.83 2.072-2.556.94-.726 1.948-.945 3.026-.945 1.344.138 2.24.399 2.69.782-1.353.486-2.787 2.27-3.211 3.842-1.056.137-1.995.698-2.816 1.684-.953 1.146-1.43 2.64-1.43 4.484v7.788c0 .42-.276.81-.829 1.173-.552.364-1.188.633-1.906.633a3.2 3.2 0 0 1-1.865-.612c-.498-.349-.746-.747-.746-1.194zm10.746-6.884v-3.543c0-2.278.872-4.237 2.617-5.877 1.744-1.64 3.285-2.314 5.766-2.314 2.317 0 4.3.598 5.949 2.085s2.473 3.355 2.473 5.606c0 .834-.102 1.521-.306 2.063-.205.542-.518.924-.94 1.146-.423.223-.812.362-1.166.417a9.322 9.322 0 0 1-1.39.084h-8.3v.625c0 1.195.436 2.16 1.308 2.897.872.736 2.03 1.104 3.476 1.104 1.035 0 2.058-.264 3.066-.792 1.009-.528 1.663-.792 1.963-.792.572 0 1.05.271 1.43.813.382.542.573 1.063.573 1.563 0 .778-.688 1.55-2.065 2.313-1.376.764-3.087 1.291-5.131 1.291-2.917 0-4.723-.93-6.563-2.5-1.84-1.57-2.76-3.633-2.76-6.189zm4.687-3.38h6.39c.467 0 .796-.077.985-.234.19-.156.285-.462.285-.918 0-.996-.372-1.807-1.116-2.433-.744-.627-1.656-.94-2.736-.94-1.021 0-1.911.306-2.67.918-.759.612-1.138 1.416-1.138 2.412v1.196zm13.405 10.262V1.82c0-.503.24-.909.724-1.216.482-.308 1.11-.461 1.882-.461.773 0 1.421.153 1.945.461.524.307.786.713.786 1.216v17.57l7.637-7.277c.331-.28.69-.42 1.076-.42.58 0 1.159.28 1.738.839.58.56 1.011 1.002 1.011 1.617 0 .363-.151.698-.455 1.006l-4.882 4.487 6.082 8.806c.193.28.29.573.29.88 0 .616-.338 1.217-1.014 1.804-.676.587-1.345.922-2.007.922-.551 0-.993-.28-1.324-.755L78.3 22.955l-2.566 2.39v4.902c0 .42-.275.81-.827 1.174-.552.363-1.186.633-1.904.633-.744 0-1.365-.263-1.862-.612-.496-.35-.744-.748-.744-1.195zm19.349 0V1.82c0-.503.241-.909.724-1.216.483-.308 1.11-.461 1.883-.461.772 0 1.42.153 1.944.461.525.307.787.713.787 1.216v17.57l7.779-7.277c.33-.28.69-.42 1.076-.42.58 0 1.158.28 1.738.839.579.56.869 1.002.869 1.617 0 .363-.152.698-.456 1.006l-4.882 4.487 6.082 8.806c.194.28.29.573.29.88 0 .616-.338 1.217-1.014 1.804-.676.587-1.344.922-2.007.922-.551 0-.993-.28-1.324-.755l-5.586-8.344-2.565 2.39v4.902c0 .42-.276.81-.828 1.174-.552.363-1.186.633-1.903.633-.745 0-1.366-.263-1.862-.612-.497-.35-.745-.748-.745-1.195zm19.349 0V1.82c0-.503.243-.909.729-1.216.486-.308 1.131-.461 1.937-.461.75 0 1.388.153 1.916.461.527.307.791.713.791 1.216v28.427c0 .42-.27.81-.812 1.174-.542.363-1.173.633-1.895.633-.75 0-1.382-.263-1.896-.612-.513-.35-.77-.748-.77-1.195zm6.774-1.803c0-.503.179-1.028.537-1.574.358-.545.772-.818 1.24-.818.304 0 .683.154 1.137.461.455.308 1.055.623 1.799.945.744.322 1.626.483 2.646.483 2.012 0 3.018-.602 3.018-1.805 0-.672-.338-1.204-1.013-1.595-.675-.392-1.488-.714-2.44-.966a33.867 33.867 0 0 1-2.873-.902 5.602 5.602 0 0 1-2.46-1.763c-.675-.826-1.013-1.882-1.013-3.17 0-1.706.593-3.03 1.778-4.262 1.185-1.231 3.06-1.847 5.623-1.847 1.709 0 3.232.266 4.569.797 1.336.532 2.005 1.031 2.005 1.787 0 .475-.186 1.028-.558 1.658-.373.63-.834.944-1.385.944-.221 0-.82-.203-1.799-.609-.978-.405-1.895-.608-2.75-.608-.936 0-1.653.196-2.15.587-.495.392-.743.826-.743 1.302 0 .475.248.867.744 1.175.496.308 1.11.546 1.84.714.73.167 1.522.398 2.377.692.854.294 1.647.637 2.377 1.029.73.391 1.344 1 1.84 1.826.496.825.744 1.825.744 3 0 1.904-.668 3.4-2.005 4.492-1.337 1.092-3.204 1.637-5.602 1.637-2.067 0-3.831-.363-5.292-1.091-1.461-.728-2.191-1.567-2.191-2.519z"/></svg>
