<svg viewBox="0 0 54 47">
  <path d="M53.89 32.98a4.74 4.74 0 0 0-3.156-4.462V12.193l3.258-1.302L26.962.087 0 10.891l12.762 5.114v7.509c0 2.314 1.622 4.4 4.569 5.874 2.599 1.3 6.02 2.015 9.63 2.015 3.613 0 7.033-.716 9.632-2.015 2.946-1.474 4.57-3.56 4.57-5.874v-7.495l6.416-2.564v15.064a4.74 4.74 0 0 0-3.156 4.462 4.739 4.739 0 0 0 2.698 4.272l-2.617 7.85 2.994.999 1.658-4.976 1.66 4.976 2.993-.998-2.617-7.85a4.74 4.74 0 0 0 2.698-4.274zm-15.883-9.466c0 2.234-4.724 4.733-11.045 4.733s-11.045-2.499-11.045-4.733V17.27l11.044 4.425 11.046-4.414v6.233zm-11.044-5.217L8.483 10.89l18.48-7.405L45.49 10.89l-18.527 7.406zm22.193 16.261a1.58 1.58 0 0 1-1.577-1.578c0-.87.707-1.577 1.577-1.577s1.578.707 1.578 1.577a1.58 1.58 0 0 1-1.578 1.578z" />
</svg>
