<svg viewBox="0 0 48 38">
  <path d="M47.903 17.832a3.77 3.77 0 0 0-3.766-3.765h-1.193V.047H4.772v14.02H3.749A3.753 3.753 0 0 0 0 17.815v9.727h2.648v6.16h3.325v3.622H8.78v-3.622h30.717v3.622h2.807v-3.622h3.325v-6.16h2.274v-9.71zM7.578 2.854h32.56v11.213h-2.854v-6.23H25.869v6.23h-3.836v-6.23H10.62v6.23h-3.04V2.854zm26.899 11.213h-5.801v-3.423h5.8v3.423zm-15.25 0h-5.801v-3.423h5.8v3.423zm-16.42 3.748c0-.519.422-.941.942-.941h40.388a.96.96 0 0 1 .959.958v6.904H2.806v-6.92zm40.015 13.08H5.455v-3.353h37.367v3.352z"/>
</svg>
