<svg viewBox="0 0 50 50">
  <path d="M48.535 44.043a1.465 1.465 0 1 0 0-2.93H47.07V36.72c0-.81-.655-1.465-1.465-1.465H36.72c-.81 0-1.465.656-1.465 1.465v4.394h-1.465a1.465 1.465 0 1 0 0 2.93h1.465v3.027h-5.86v-6.794c5.116-2.016 8.79-7.446 8.79-13.811 0-3.616-1.174-7.037-3.32-9.72.262-1.192.39-2.331.39-3.464C35.254 5.958 30.654 0 25 0c-2.129 0-4.173.831-5.883 2.367C17.46.876 15.448 0 13.281 0 7.627 0 3.027 5.958 3.027 13.281c0 1.132.129 2.272.39 3.462A15.474 15.474 0 0 0 0 26.465c0 6.379 3.717 11.818 8.887 13.823v6.782H1.465a1.465 1.465 0 1 0 0 2.93h47.07a1.465 1.465 0 1 0 0-2.93H47.07v-3.027h1.465zm-10.351-5.86h5.957v2.93h-5.957v-2.93zm-11.72 8.887h-2.929v-6.049a11.948 11.948 0 0 0 2.93.001v6.048zm-7.33-7.482c.478.263.97.493 1.471.69v6.792h-2.93v-6.794c.502-.198.988-.428 1.46-.688zm10.904-33.77c1.474 1.989 2.286 4.639 2.286 7.463 0 1.752-.36 2.922-.482 3.516-.27 1.316-.98 2.8-1.799 3.892a1.464 1.464 0 1 0 2.344 1.757c.497-.663.939-1.394 1.317-2.175 1.01 1.84 1.55 3.968 1.55 6.194 0 6.462-4.6 11.719-10.254 11.719a9.107 9.107 0 0 1-3.172-.576c2.836-2.689 4.637-6.686 4.637-11.143 0-3.616-1.174-7.037-3.32-9.72.262-1.192.39-2.331.39-3.464 0-3.32-.946-6.36-2.506-8.69C22.21 3.512 23.59 2.93 25 2.93c1.868 0 3.657 1.025 5.038 2.889zM2.93 26.466c0-2.203.57-4.34 1.636-6.217.381.79.826 1.529 1.328 2.198a1.465 1.465 0 0 0 2.344-1.757c-.767-1.022-1.369-2.266-1.76-3.623-.016-.4-.521-1.739-.521-3.785 0-2.824.812-5.474 2.286-7.462 1.381-1.864 3.17-2.89 5.038-2.89 1.868 0 3.657 1.026 5.038 2.89 1.475 1.988 2.286 4.638 2.286 7.462 0 .32-.014.642-.04.967-2.14-1.582-4.65-2.432-7.284-2.432a1.465 1.465 0 1 0 0 2.93c2.681 0 5.213 1.175 7.138 3.31.012.015.023.03.035.043 1.987 2.225 3.081 5.196 3.081 8.366 0 6.462-4.6 11.719-10.254 11.719-5.785 0-10.351-5.347-10.351-11.72zm8.886 14.559a12.077 12.077 0 0 0 2.93-.002v6.048h-2.93v-6.046zm32.325 6.046h-5.957v-3.027h5.957v3.027z" />
</svg>
