<svg viewBox="0 0 50 44">
  <path d="M48.544 5.86H35.254V4.394A4.4 4.4 0 0 0 30.859 0H19.141a4.4 4.4 0 0 0-4.395 4.395v1.464H1.465C.649 5.86 0 6.528 0 7.324v32.227a4.4 4.4 0 0 0 4.395 4.394h41.21A4.4 4.4 0 0 0 50 39.551V7.355 7.35c-.056-.962-.648-1.484-1.456-1.49zM17.676 4.395c0-.808.657-1.465 1.465-1.465h11.718c.808 0 1.465.657 1.465 1.465v1.464H17.676V4.395zm28.827 4.394l-4.55 13.647c-.199.599-.757 1.002-1.389 1.002h-8.24v-1.465c0-.81-.656-1.465-1.465-1.465H19.141c-.81 0-1.465.656-1.465 1.465v1.465h-8.24c-.632 0-1.19-.403-1.39-1.002L3.497 8.789h43.006zM29.395 23.438v2.93h-8.79v-2.93h8.79zM47.07 39.55c0 .807-.657 1.465-1.465 1.465H4.395A1.467 1.467 0 0 1 2.93 39.55v-23.2l2.337 7.011a4.388 4.388 0 0 0 4.169 3.005h8.24v1.465c0 .81.656 1.465 1.465 1.465h11.718c.81 0 1.465-.656 1.465-1.465v-1.465h8.24a4.388 4.388 0 0 0 4.169-3.005l2.337-7.011v23.2z" />
</svg>
