<svg viewBox="0 0 47 44">
  <path d="M43.394 3.56A11.921 11.921 0 0 0 34.909.046a11.92 11.92 0 0 0-8.486 3.514l-2.971 2.972L20.48 3.56C15.8-1.118 8.188-1.118 3.51 3.56c-4.68 4.68-4.68 12.292-.004 16.967l8.613 8.675a5.405 5.405 0 0 0 1.046 5.702A7.096 7.096 0 0 0 9.57 41.07v2.378h27.763V41.07a7.095 7.095 0 0 0-3.601-6.17 5.407 5.407 0 0 0 1.028-5.736l8.634-8.633c4.678-4.68 4.678-12.292 0-16.97zM17.19 33.913c-1.495 0-2.711-1.204-2.711-2.685 0-1.48 1.216-2.686 2.71-2.686 1.495 0 2.711 1.205 2.711 2.686 0 1.48-1.216 2.685-2.71 2.685zm-4.849 6.78a4.344 4.344 0 0 1 4.321-3.96h1.074a4.343 4.343 0 0 1 4.32 3.96h-9.715zm12.503 0a4.344 4.344 0 0 1 4.321-3.96h1.074a4.343 4.343 0 0 1 4.32 3.96h-9.715zm7.569-9.465c0 1.48-1.216 2.685-2.71 2.685-1.496 0-2.712-1.204-2.712-2.685 0-1.48 1.216-2.686 2.711-2.686 1.495 0 2.71 1.205 2.71 2.686zm.662-4.277a5.453 5.453 0 0 0-3.373-1.164c-3.014 0-5.466 2.44-5.466 5.44 0 1.415.545 2.705 1.437 3.674a7.148 7.148 0 0 0-2.223 1.975 7.145 7.145 0 0 0-2.228-1.979 5.407 5.407 0 0 0 1.434-3.67c0-3-2.452-5.44-5.466-5.44a5.452 5.452 0 0 0-3.402 1.186l-8.331-8.39c-3.604-3.605-3.604-9.47 0-13.074 3.604-3.605 9.469-3.605 13.073 0l4.92 4.92 4.92-4.92c3.605-3.605 9.47-3.605 13.074 0 3.605 3.604 3.605 9.469 0 13.073l-8.369 8.37z"/>
</svg>
