<svg viewBox="0 0 50 50">
  <path d="M28.634.001c-1.415 0-2.66.576-3.634 1.672C24.026.577 22.781.001 21.366.001c-2.913 0-5.196 2.376-5.196 5.41 0 3.141 2.44 5.187 5.82 8.019.654.549 1.331 1.116 2.05 1.74a1.462 1.462 0 0 0 1.92 0c.655-.568 1.273-1.09 1.87-1.594 3.431-2.896 6-5.056 6-8.165 0-3.034-2.282-5.41-5.196-5.41zM25.94 11.337l-.942.797c-.386-.328-.76-.641-1.128-.95C20.736 8.556 19.1 7.106 19.1 5.41c0-1.39.995-2.48 2.266-2.48 1.573 0 2.181 1.939 2.223 2.08a1.459 1.459 0 0 0 2.822 0c.042-.141.65-2.08 2.223-2.08 1.27 0 2.266 1.09 2.266 2.48 0 1.703-1.876 3.325-4.959 5.927zm23.615 3.466a7.306 7.306 0 0 1-4.147 4.285c3.794 3.678 4.748 9.363 2.508 14.015l-7.688 16.063a1.464 1.464 0 0 1-1.32.833H11.091a1.465 1.465 0 0 1-1.322-.833L2.081 33.1a12.201 12.201 0 0 1 2.51-14.012 7.32 7.32 0 0 1 .231-13.672c3.795-1.381 8.006.583 9.387 4.377a7.282 7.282 0 0 1-.412 5.936c5.239.357 9.756 4.034 11.006 9.276.202-.007.194-.007.394 0l.046-.193c1.133-4.744 5.476-8.71 10.96-9.083a7.282 7.282 0 0 1-.412-5.936C37.172 6 41.383 4.035 45.178 5.416a7.32 7.32 0 0 1 4.378 9.387zM25 27.93a2.933 2.933 0 0 0-2.93 2.93A2.933 2.933 0 0 0 25 33.788a2.933 2.933 0 0 0 2.93-2.93A2.933 2.933 0 0 0 25 27.93zM3.197 13.8a4.392 4.392 0 0 0 5.633 2.627 4.392 4.392 0 0 0 2.626-5.632 4.392 4.392 0 0 0-5.632-2.627 4.392 4.392 0 0 0-2.627 5.632zm8.817 33.268h8.18l-1.673-6.691-7.976-6.006c-1.96-1.468-2.317-4.229-.876-6.15a4.4 4.4 0 0 1 6.148-.88l3.41 2.518a5.873 5.873 0 0 1 2.762-4.025l-.08-.332c-1.335-5.218-6.99-8.174-12.077-6.322-5.064 1.843-7.461 7.768-5.11 12.651l7.292 15.237zm16.748-7.905c.082-.325.272-.613.54-.815l8.39-6.317c.653-.489.78-1.406.295-2.052a1.469 1.469 0 0 0-2.052-.291l-6.145 4.537A5.855 5.855 0 0 1 25 36.718a5.855 5.855 0 0 1-4.79-2.492l-6.138-4.532-.01-.007a1.467 1.467 0 0 0-2.05.294 1.463 1.463 0 0 0 .292 2.049l8.394 6.32c.268.201.459.489.54.814l1.976 7.905h3.572l1.976-7.905zm16.514-7.329c2.35-4.882-.038-10.81-5.107-12.654-5.081-1.85-10.741 1.098-12.079 6.322l-.079.332a5.872 5.872 0 0 1 2.761 4.025l3.416-2.522a4.4 4.4 0 0 1 6.142.884 4.39 4.39 0 0 1-.878 6.153l-7.973 6.003-1.673 6.691h8.18l7.29-15.234zm1.527-18.034a4.392 4.392 0 0 0-2.627-5.632 4.392 4.392 0 0 0-5.632 2.627 4.392 4.392 0 0 0 2.627 5.632 4.392 4.392 0 0 0 5.632-2.627z" />
</svg>
