<svg viewBox="0 0 44 47">
  <path d="M2.107 15.049a1.265 1.265 0 0 1-1.523-2.02L17.522.254c.451-.34 1.073-.34 1.524 0l16.938 12.773a1.265 1.265 0 1 1-1.523 2.02L18.284 2.85 2.107 15.05zM42.58 33.845l-6.38 7.891v.001l-3.582 4.432a1.265 1.265 0 0 1-1.969 0l-3.21-3.972H1.345A1.265 1.265 0 0 1 .08 40.932V19.426c0-.397.187-.77.504-1.01L17.522 5.643c.451-.34 1.073-.34 1.524 0l16.938 12.773c.318.24.504.613.504 1.01v3.959a7.263 7.263 0 0 1 1.509-.083c2.416.123 4.456 1.53 5.454 3.764a6.508 6.508 0 0 1-.872 6.779zM2.61 20.057v19.61h22.782l-4.707-5.822a6.509 6.509 0 0 1-.872-6.779c.998-2.234 3.037-3.641 5.454-3.764a7.255 7.255 0 0 1 6.364 3.157 7.31 7.31 0 0 1 2.325-2.167v-4.235L18.284 8.238 2.611 20.058zm20.043 12.197l8.979 11.107 8.978-11.107a3.99 3.99 0 0 0 .53-4.155c-.603-1.348-1.826-2.196-3.273-2.27a4.732 4.732 0 0 0-4.97 4.72 1.265 1.265 0 1 1-2.53 0 4.732 4.732 0 0 0-4.97-4.72c-1.448.074-2.671.922-3.273 2.27a3.99 3.99 0 0 0 .53 4.155z"/>
</svg>
