<svg xmlns="http://www.w3.org/2000/svg" width="34.768" height="22.123" viewBox="0 0 34.768 22.123">
    <defs>
        <style>
            .cls-1{fill:#0f7173}
        </style>
    </defs>
    <g id="handshake" transform="translate(0 -45.224)">
        <g id="Gruppe_63" data-name="Gruppe 63" transform="translate(30.626 49.299)">
            <g id="Gruppe_62" data-name="Gruppe 62">
                <path id="Pfad_191" d="M454.124 228.111H451v14.26h3.124a1.018 1.018 0 0 0 1.019-1.019V229.13a1.018 1.018 0 0 0-1.019-1.019z" class="cls-1" data-name="Pfad 191" transform="translate(-451 -228.111)"/>
            </g>
        </g>
        <g id="Gruppe_65" data-name="Gruppe 65" transform="translate(0 49.299)">
            <g id="Gruppe_64" data-name="Gruppe 64">
                <path id="Pfad_192" d="M1.019 228.111A1.018 1.018 0 0 0 0 229.13v12.223a1.018 1.018 0 0 0 1.019 1.019h3.123v-14.26z" class="cls-1" data-name="Pfad 192" transform="translate(0 -228.111)"/>
            </g>
        </g>
        <g id="Gruppe_67" data-name="Gruppe 67" transform="translate(11.683 50.317)">
            <g id="Gruppe_66" data-name="Gruppe 66">
                <path id="Pfad_193" d="M176.973 243.111a2.026 2.026 0 0 0-1.822 1.126l-3.1 6.2a4.06 4.06 0 0 0 5.271-1.914l.67-1.341h1.972a2.052 2.052 0 0 1 1.44.6l7.552 7.552v-12.223z" class="cls-1" data-name="Pfad 193" transform="translate(-172.05 -243.111)"/>
            </g>
        </g>
        <g id="Gruppe_69" data-name="Gruppe 69" transform="translate(6.18 45.224)">
            <g id="Gruppe_68" data-name="Gruppe 68">
                <path id="Pfad_194" d="M104.417 179.315h-.717l-.059.118a6.2 6.2 0 0 1-4.983 3.458 7.377 7.377 0 0 1-3.968-.914 1.025 1.025 0 0 1-.5-1.388l3.584-7.169a4.075 4.075 0 0 1 3.645-2.253h4.4a4.925 4.925 0 0 0 .456-2.037 1.018 1.018 0 0 0-1.019-1.019h-7.904a3.056 3.056 0 0 0-2.734 1.69l-.911 1.822a1.019 1.019 0 0 1-.911.563H91v14.26h4.671l2.886 2.886a3.021 3.021 0 0 0 3.081.753l8.7-2.735a2.947 2.947 0 0 0 1.316-.8z" class="cls-1" data-name="Pfad 194" transform="translate(-91 -168.11)"/>
            </g>
        </g>
    </g>
</svg>
