<svg xmlns="http://www.w3.org/2000/svg" width="101.825" height="92.772" viewBox="0 0 101.825 92.772">
    <defs>
        <style>
            .cls-1{fill:#12e5c4}.cls-2{fill:#19b79e}.cls-3{fill:#ffc843}.cls-4{fill:#eaa62f}.cls-5{fill:#fff}.cls-6{fill:#474d54}.cls-7{fill:#e37f31}.cls-8{fill:#6dc296}
        </style>
    </defs>
    <g id="link" transform="translate(-.001)">
        <path id="Pfad_121" d="M61.3 206.782a8.889 8.889 0 0 0-5.854 2.6l-22.57 22.571a8.949 8.949 0 0 0 0 12.64l9.722 9.722a8.947 8.947 0 0 0 12.64 0l22.572-22.572a8.948 8.948 0 0 0 0-12.64l-9.722-9.722a8.9 8.9 0 0 0-6.788-2.599zm11.485 17.343a1.838 1.838 0 0 1 0 2.6l-22.569 22.568a1.837 1.837 0 0 1-2.595 0L37.9 239.57a1.838 1.838 0 0 1 0-2.595L60.47 214.4a1.838 1.838 0 0 1 2.6 0zm0 0" class="cls-1" data-name="Pfad 121" transform="translate(-24.243 -165.648)"/>
        <path id="Pfad_122" d="M193.125 209.381l9.722 9.722a8.948 8.948 0 0 1 0 12.64L186.34 248.25v-10.044l11.485-11.485a1.838 1.838 0 0 0 0-2.6L188.1 214.4a1.843 1.843 0 0 0-1.763-.477v-7.143a8.9 8.9 0 0 1 6.788 2.601zm0 0" class="cls-2" data-name="Pfad 122" transform="translate(-149.28 -165.648)"/>
        <path id="Pfad_123" d="M256.118 8.965a8.942 8.942 0 0 0-1.415 1.152l-22.572 22.572a8.948 8.948 0 0 0 0 12.64l9.722 9.722a8.949 8.949 0 0 0 12.64 0l22.573-22.573a8.949 8.949 0 0 0 0-12.64l-9.722-9.722a8.953 8.953 0 0 0-11.226-1.151zm15.923 15.9a1.837 1.837 0 0 1 0 2.595l-22.57 22.569a1.84 1.84 0 0 1-2.6 0l-9.722-9.722a1.838 1.838 0 0 1 0-2.6l22.573-22.573a1.837 1.837 0 0 1 2.595 0zm0 0" class="cls-3" data-name="Pfad 123" transform="translate(-183.871 -6.011)"/>
        <path id="Pfad_124" d="M374.492 10.117l9.722 9.722a8.949 8.949 0 0 1 0 12.64l-20.947 20.946V43.381l15.924-15.924a1.837 1.837 0 0 0 0-2.595l-9.722-9.722a1.837 1.837 0 0 0-2.595 0l-3.608 3.608V8.965a8.954 8.954 0 0 1 11.226 1.152zm0 0" class="cls-4" data-name="Pfad 124" transform="translate(-291.019 -6.011)"/>
        <path id="Pfad_125" d="M203.1 199.714a3.553 3.553 0 0 0 5.023 0l14.352-14.351a3.552 3.552 0 0 0-5.023-5.023L203.1 194.69a3.553 3.553 0 0 0 0 5.024zm0 0" class="cls-5" data-name="Pfad 125" transform="translate(-161.874 -143.64)"/>
        <path id="Pfad_126" d="M112.48 12.772l-9.722-9.722a10.441 10.441 0 0 0-14.751 0L65.436 25.623a10.444 10.444 0 0 0 0 14.751l1.3 1.294-2.3 2.3-1.294-1.294a10.442 10.442 0 0 0-14.75 0l-4.329 4.329a1.492 1.492 0 0 0 2.11 2.11l4.329-4.329a7.456 7.456 0 0 1 10.532 0l1.294 1.294-2.77 2.771q-.143.143-.273.3l-1.2 1.426a4.686 4.686 0 0 0-1.134 3.21 5.033 5.033 0 0 0 5.018 4.815h.024a4.435 4.435 0 0 0 2.853-1.047l1.537-1.3c.1-.086.2-.178.3-.273l2.77-2.77 1.3 1.294a7.454 7.454 0 0 1 0 10.531L48.171 87.613a7.455 7.455 0 0 1-10.531 0l-9.721-9.723a7.455 7.455 0 0 1 0-10.531l13.65-13.65a1.491 1.491 0 0 0-2.11-2.109l-13.65 13.65a10.438 10.438 0 0 0 0 14.75l9.721 9.722a10.443 10.443 0 0 0 14.751 0L72.853 67.15a10.44 10.44 0 0 0 0-14.75l-1.294-1.3 2.3-2.3 1.294 1.294a10.441 10.441 0 0 0 14.75 0L94.3 45.7a1.492 1.492 0 0 0-2.11-2.109l-4.39 4.39a7.447 7.447 0 0 1-10.532 0l-1.294-1.294 2.764-2.764q.149-.149.287-.312l1.062-1.258a4.978 4.978 0 0 0-.008-6.512c-.061-.068-.125-.136-.19-.2s-.134-.129-.2-.19a4.978 4.978 0 0 0-6.512-.008l-1.258 1.062q-.162.138-.312.287l-2.767 2.767-1.294-1.3a7.454 7.454 0 0 1 0-10.531L90.117 5.161a7.455 7.455 0 0 1 10.531 0l9.722 9.721a7.455 7.455 0 0 1 0 10.532L96.781 39a1.492 1.492 0 1 0 2.11 2.11l13.589-13.587a10.443 10.443 0 0 0 0-14.751zM74.863 37.754a2.062 2.062 0 0 1 3.016.11 2.1 2.1 0 0 1-.148 2.85L63.425 55.019a2.062 2.062 0 0 1-3.01-.1 2.108 2.108 0 0 1 .148-2.861zm0 0" class="cls-6" data-name="Pfad 126" transform="translate(-18.231)"/>
        <path id="Pfad_127" d="M447.956 153.349a1.491 1.491 0 0 0-2.109 0l-8.584 8.584a1.491 1.491 0 0 0 2.109 2.109l8.584-8.584a1.491 1.491 0 0 0 0-2.109zm0 0" class="cls-7" data-name="Pfad 127" transform="translate(-349.95 -122.501)"/>
        <path id="Pfad_128" d="M490.489 170.363a1.493 1.493 0 0 0-2.11 0l-2.248 2.249a1.492 1.492 0 0 0 2.109 2.11l2.249-2.249a1.492 1.492 0 0 0 0-2.11zm0 0" class="cls-7" data-name="Pfad 128" transform="translate(-389.099 -136.132)"/>
        <g id="Gruppe_38" data-name="Gruppe 38" transform="translate(.001 50.795)">
            <path id="Pfad_129" d="M19.56 266.538l8.584-8.584a1.491 1.491 0 1 0-2.109-2.109l-8.584 8.584a1.491 1.491 0 0 0 2.109 2.109zm0 0" class="cls-8" data-name="Pfad 129" transform="translate(-13.63 -255.408)"/>
            <path id="Pfad_130" d="M4.8 270.683a1.493 1.493 0 0 0-2.11 0l-2.253 2.249a1.492 1.492 0 0 0 2.11 2.11l2.253-2.249a1.493 1.493 0 0 0 0-2.11zm0 0" class="cls-8" data-name="Pfad 130" transform="translate(-.001 -267.296)"/>
        </g>
    </g>
</svg>
