<svg xmlns="http://www.w3.org/2000/svg" width="72.45" height="72.461" viewBox="0 0 72.45 72.461">
    <defs>
        <style>
            .cls-1{fill:#0f7173}
        </style>
    </defs>
    <g id="link_1_" data-name="link (1)" transform="translate(-.039)">
        <g id="Gruppe_85" data-name="Gruppe 85" transform="translate(.039 23.293)">
            <g id="Gruppe_84" data-name="Gruppe 84">
                <path id="Pfad_208" d="M44.246 169.564a16.438 16.438 0 0 0-2.838-2.282 16.907 16.907 0 0 0-21.07 2.282L4.979 184.935a16.905 16.905 0 0 0 23.9 23.92l12.678-12.678a1.207 1.207 0 0 0-.857-2.065h-.483a20.323 20.323 0 0 1-7.728-1.5 1.207 1.207 0 0 0-1.316.266l-9.116 9.128A7.249 7.249 0 0 1 11.8 191.758l15.42-15.408a7.245 7.245 0 0 1 10.239 0 4.951 4.951 0 0 0 6.786 0 4.783 4.783 0 0 0 0-6.786z" class="cls-1" data-name="Pfad 208" transform="translate(-.039 -164.614)"/>
            </g>
        </g>
        <g id="Gruppe_87" data-name="Gruppe 87" transform="translate(26.848)">
            <g id="Gruppe_86" data-name="Gruppe 86">
                <path id="Pfad_209" d="M230.191 4.952a16.905 16.905 0 0 0-23.908 0l-12.666 12.654a1.212 1.212 0 0 0 .881 2.065h.447a20.285 20.285 0 0 1 7.716 1.509 1.207 1.207 0 0 0 1.316-.266l9.092-9.08a7.249 7.249 0 0 1 10.251 10.251L211.994 33.4l-.1.109-3.96 3.936a7.245 7.245 0 0 1-10.239 0 4.951 4.951 0 0 0-6.786 0 4.814 4.814 0 0 0 0 6.81 16.76 16.76 0 0 0 4.83 3.381c.254.121.507.217.761.326s.519.193.773.29.519.181.773.254l.712.193c.483.121.966.217 1.461.3a16.809 16.809 0 0 0 1.8.169h.918l.724-.084c.266-.012.543-.072.857-.072h.41l.833-.121.386-.072.7-.145h.133a16.9 16.9 0 0 0 7.836-4.444l15.375-15.37a16.905 16.905 0 0 0 0-23.908z" class="cls-1" data-name="Pfad 209" transform="translate(-189.502)"/>
            </g>
        </g>
    </g>
</svg>
