<svg xmlns="http://www.w3.org/2000/svg" width="106.896" height="74.263" viewBox="0 0 106.896 74.263">
    <defs>
        <style>
            .cls-1{fill:#fff}.cls-2{fill:#e1eaf8}.cls-3{fill:#ffc843}.cls-4{fill:#76ffd9}.cls-5{fill:#5de0bf}.cls-6{fill:#ffa816}.cls-7{fill:#ff8025}.cls-8{fill:#434c54}.cls-9{fill:#969ba1}
        </style>
    </defs>
    <g id="marketing" transform="translate(-.001 -.5)">
        <path id="Pfad_131" d="M55.059 73.484h42.755V105.5H55.059zm0 0" class="cls-1" data-name="Pfad 131" transform="translate(-43.563 -57.746)"/>
        <path id="Pfad_132" d="M55.059 189.52h42.755v7.792H55.059zm0 0" class="cls-2" data-name="Pfad 132" transform="translate(-43.563 -149.555)"/>
        <path id="Pfad_133" d="M90.086 163.633h27.847v13.2H90.086zm0 0" class="cls-3" data-name="Pfad 133" transform="translate(-71.277 -129.073)"/>
        <path id="Pfad_134" d="M18.817 88.379v24.112h-6.75L9.254 88.379zm0 0" class="cls-4" data-name="Pfad 134" transform="translate(-7.321 -69.531)"/>
        <path id="Pfad_135" d="M32.156 88.379h4.782v24.112h-4.782zm0 0" class="cls-5" data-name="Pfad 135" transform="translate(-25.442 -69.531)"/>
        <path id="Pfad_136" d="M130.473 226.84l-1.822 5.412-6.617 19.662h-12.19V226.84zm0 0" class="cls-4" data-name="Pfad 136" transform="translate(-86.91 -179.084)"/>
        <path id="Pfad_137" d="M130.473 226.84l-1.822 5.412h-18.807v-5.412zm0 0" class="cls-5" data-name="Pfad 137" transform="translate(-86.91 -179.084)"/>
        <path id="Pfad_138" d="M291.015 40.483c0 10.8-1.431 20.322-3.613 25.993a20.078 20.078 0 0 1-1.115 2.436 4.053 4.053 0 0 1-5.954 1.288L265.76 59.449l-5.916-4.364V23.066l5.916-3.636 14.74-9.063a4.045 4.045 0 0 1 5.606 1.369c2.894 4.917 4.909 15.937 4.909 28.747zm0 0" class="cls-3" data-name="Pfad 138" transform="translate(-205.592 -7.329)"/>
        <path id="Pfad_139" d="M287.4 208.7a20.063 20.063 0 0 1-1.115 2.435 4.052 4.052 0 0 1-5.954 1.288l-20.489-15.114v-7.789zm0 0" class="cls-6" data-name="Pfad 139" transform="translate(-205.592 -149.555)"/>
        <path id="Pfad_140" d="M265.76 56.066v40.02l-5.916-4.365V59.7zm0 0" class="cls-6" data-name="Pfad 140" transform="translate(-205.592 -43.965)"/>
        <path id="Pfad_141" d="M110.957 187.784a1.976 1.976 0 0 0-1.994-1.8H92.021a1.932 1.932 0 0 0 0 3.864h17.009a1.932 1.932 0 0 0 1.927-2.064zm0 0" class="cls-7" data-name="Pfad 141" transform="translate(-71.28 -146.755)"/>
        <path id="Pfad_142" d="M85.421 35.289a1.937 1.937 0 0 0-2 1.865c-.346 10.183-2.04 19.184-4.42 23.493a2.079 2.079 0 0 1-1.393 1.037 2.1 2.1 0 0 1-1.724-.368L56.183 46.78V16.819L75.92 4.685a2.128 2.128 0 0 1 1.641-.255 2.06 2.06 0 0 1 1.288.957c2.441 4.147 4.191 13.154 4.566 23.506a1.932 1.932 0 1 0 3.861-.139c-.4-11.121-2.309-20.589-5.1-25.326A5.891 5.891 0 0 0 78.493.68a5.967 5.967 0 0 0-4.6.712L53.7 13.806H27.581a1.932 1.932 0 1 0 0 3.864H52.32v28.153H13.428V17.67h7.051a1.932 1.932 0 0 0 0-3.863H11.5a1.931 1.931 0 0 0-1.931 1.931v1.177H1.932a1.933 1.933 0 0 0-1.919 2.156l2.813 24.112a1.931 1.931 0 0 0 1.919 1.708h4.82v2.865a1.931 1.931 0 0 0 1.935 1.931H21V61.5a1.932 1.932 0 1 0 3.863 0V49.687h16.01L39.488 53.8h-9.052a1.932 1.932 0 0 0 0 3.864h7.753L33.735 70.9h-8.869v-2.615a1.932 1.932 0 1 0-3.863 0v4.546a1.932 1.932 0 0 0 1.932 1.932h12.188a1.931 1.931 0 0 0 1.831-1.315l8-23.76h8.665l19.974 14.737a5.985 5.985 0 0 0 8.793-1.909c2.7-4.882 4.529-14.314 4.9-25.23a1.933 1.933 0 0 0-1.865-1.997zM9.565 41.027h-3.1L4.1 20.779h5.464v20.248zm0 0" class="cls-8" data-name="Pfad 142"/>
        <path id="Pfad_143" d="M281.959 200.333a1.932 1.932 0 1 0-2.208 3.171l10.993 7.651a1.932 1.932 0 0 0 2.208-3.171zm0 0" class="cls-7" data-name="Pfad 143" transform="translate(-220.688 -157.836)"/>
        <path id="Pfad_144" d="M141.438 108.481v-1.557a1.932 1.932 0 1 0-3.864 0v1.557a1.932 1.932 0 1 0 3.864 0zm0 0" class="cls-9" data-name="Pfad 144" transform="translate(-108.851 -82.676)"/>
        <path id="Pfad_145" d="M114.505 110.413a1.932 1.932 0 0 0 1.932-1.932v-1.557a1.932 1.932 0 1 0-3.863 0v1.557a1.932 1.932 0 0 0 1.931 1.932zm0 0" class="cls-9" data-name="Pfad 145" transform="translate(-89.07 -82.676)"/>
        <path id="Pfad_146" d="M89.5 104.992a1.931 1.931 0 0 0-1.931 1.932v1.557a1.932 1.932 0 0 0 3.863 0v-1.557a1.931 1.931 0 0 0-1.932-1.932zm0 0" class="cls-9" data-name="Pfad 146" transform="translate(-69.287 -82.676)"/>
        <g id="Gruppe_40" data-name="Gruppe 40" transform="translate(90.545 5.179)">
            <path id="Pfad_147" d="M435.609 31.552a1.927 1.927 0 0 0 1.366-.565l4.777-4.778a1.932 1.932 0 0 0-2.732-2.732l-4.777 4.778a1.931 1.931 0 0 0 1.366 3.3zm0 0" class="cls-3" data-name="Pfad 147" transform="translate(-433.677 -22.911)"/>
            <path id="Pfad_148" d="M436.975 228.253a1.932 1.932 0 1 0-2.732 2.731l4.777 4.778a1.932 1.932 0 1 0 2.732-2.732zm0 0" class="cls-3" data-name="Pfad 148" transform="translate(-433.677 -184.933)"/>
            <path id="Pfad_149" d="M471.082 136.738h-6.424a1.932 1.932 0 0 0 0 3.864h6.424a1.932 1.932 0 1 0 0-3.864zm0 0" class="cls-3" data-name="Pfad 149" transform="translate(-456.661 -112.973)"/>
        </g>
    </g>
</svg>
