<?xml version="1.0" encoding="utf-8"?>
<!-- Generator: Adobe Illustrator 23.0.6, SVG Export Plug-In . SVG Version: 6.00 Build 0)  -->
<svg version="1.1" id="Ebene_1" xmlns="http://www.w3.org/2000/svg" xmlns:xlink="http://www.w3.org/1999/xlink" x="0px" y="0px"
	 viewBox="0 0 31.6 22.2" style="enable-background:new 0 0 31.6 22.2;" xml:space="preserve">
<style type="text/css">
	.st0{fill:#FFB400;}
	.st1{fill:#FFC843;}
</style>
<g id="Gruppe_44" transform="translate(0 -45.917)">
	<g id="Gruppe_43" transform="translate(0 45.917)">
		<path id="Pfad_150" class="st0" d="M30.3,1.9C29.2,0.6,27.1,0,23.1,0H8.5C4.4,0,2.2,0.6,1.1,2C0,3.4,0,5.5,0,8.4v5.5
			c0,5.6,1.3,8.4,8.5,8.4h14.6c3.5,0,5.4-0.5,6.7-1.7c1.3-1.2,1.8-3.2,1.8-6.7V8.4C31.6,5.3,31.5,3.3,30.3,1.9z M20.3,11.9l-6.6,3.5
			c-0.5,0.3-1.1,0.1-1.4-0.4c-0.1-0.1-0.1-0.3-0.1-0.5V7.5c0-0.6,0.5-1,1-1c0.2,0,0.3,0,0.5,0.1l6.6,3.4c0.5,0.3,0.7,0.9,0.4,1.4
			C20.6,11.6,20.4,11.8,20.3,11.9L20.3,11.9z"/>
	</g>
	<path id="Pfad_151" class="st1" d="M16.5,59.8l-2.8,1.5c-0.5,0.3-1.1,0.1-1.4-0.4c-0.1-0.1-0.1-0.3-0.1-0.5v-6.9c0-0.6,0.5-1,1-1
		c0.2,0,0.3,0,0.5,0.1l2.8,1.5v-8.1h-8c-4.1,0-6.2,0.6-7.4,2C0,49.4,0,51.4,0,54.3v5.5c0,5.6,1.3,8.4,8.5,8.4h8V59.8z"/>
</g>
</svg>
