<svg xmlns="http://www.w3.org/2000/svg" width="46.5" height="77.662" viewBox="0 0 46.5 77.662">
  <g id="rocket" transform="translate(-0.5)">
    <path id="Pfad_35" data-name="Pfad 35" d="M90.993,37.9l-.427,4.019L86.872,76.789h-19.1l-3.7-34.866L63.652,37.9q0-2.09.206-4.157a41.951,41.951,0,0,1,9.429-22.6,5.24,5.24,0,0,1,8.071,0,41.958,41.958,0,0,1,9.429,22.6Q90.991,35.812,90.993,37.9Zm0,0" transform="translate(-53.573 -7.847)" fill="#fff"/>
    <path id="Pfad_36" data-name="Pfad 36" d="M90.993,174.907l-.427,4.019H64.079l-.427-4.019q0-2.09.206-4.157H90.787Q90.992,172.816,90.993,174.907Zm0,0" transform="translate(-53.573 -144.85)" fill="#e1eaf8"/>
    <path id="Pfad_37" data-name="Pfad 37" d="M97.391,454.512H114.5v7.316H97.391Zm0,0" transform="translate(-82.194 -385.57)" fill="#ffc843"/>
    <path id="Pfad_38" data-name="Pfad 38" d="M97.391,454.512H114.5v4.122H97.391Zm0,0" transform="translate(-82.194 -385.57)" fill="#ffb400"/>
    <path id="Pfad_39" data-name="Pfad 39" d="M229.028,336.664v6.8h-12.3l2.106-19.856,3.648,4.674Zm0,0" transform="translate(-183.432 -274.523)" fill="#ffc843"/>
    <path id="Pfad_40" data-name="Pfad 40" d="M222.484,328.284l-1.609,15.181H216.73l2.106-19.856Zm0,0" transform="translate(-183.432 -274.523)" fill="#ffb400"/>
    <path id="Pfad_41" data-name="Pfad 41" d="M22.048,343.465H9.75v-6.8l6.544-8.38,3.648-4.674Zm0,0" transform="translate(-7.847 -274.523)" fill="#ffc843"/>
    <path id="Pfad_42" data-name="Pfad 42" d="M56.539,323.609l2.106,19.856H54.5l-1.61-15.181Zm0,0" transform="translate(-44.444 -274.523)" fill="#ffb400"/>
    <path id="Pfad_43" data-name="Pfad 43" d="M46.7,61.277,36.86,48.671l.379-3.58a1.4,1.4,0,0,0-2.791-.3L32.037,67.538H25.153V54.1a1.4,1.4,0,1,0-2.807,0V67.538H15.463L11.639,31.46H35.861l-.786,7.412a1.4,1.4,0,1,0,2.791.3l.95-8.963a1.368,1.368,0,0,0,.008-.148,43.461,43.461,0,0,0-9.958-27.65,6.641,6.641,0,0,0-10.232,0,43.455,43.455,0,0,0-9.959,27.65,1.37,1.37,0,0,0,.008.148L10.64,48.67,5.978,54.642A1.4,1.4,0,1,0,8.19,56.37l2.876-3.683,1.574,14.852H3.307V62.624l1.766-2.261A1.4,1.4,0,0,0,2.86,58.635L.8,61.277a1.405,1.405,0,0,0-.3.864v6.8a1.4,1.4,0,0,0,1.4,1.4H13.793v5.913a1.4,1.4,0,0,0,1.4,1.4H32.3a1.4,1.4,0,0,0,1.4-1.4V70.345H45.6a1.4,1.4,0,0,0,1.4-1.4v-6.8A1.4,1.4,0,0,0,46.7,61.277ZM20.8,4.2a3.835,3.835,0,0,1,5.907,0A40.65,40.65,0,0,1,35.99,28.653H11.509A40.657,40.657,0,0,1,20.8,4.2ZM30.9,74.855H16.6V70.346h1.057v1.687a1.4,1.4,0,1,0,2.807,0V70.346h1.881v1.687a1.4,1.4,0,1,0,2.807,0V70.346h1.882v1.687a1.4,1.4,0,1,0,2.807,0V70.346H30.9Zm13.294-7.316H34.859l1.574-14.852,7.76,9.937Zm0,0" fill="#434c54"/>
    <path id="Pfad_44" data-name="Pfad 44" d="M123.487,161.267a6.6,6.6,0,1,1-6.6-6.6A6.595,6.595,0,0,1,123.487,161.267Zm0,0" transform="translate(-93.142 -131.211)" fill="#76ffd9"/>
    <path id="Pfad_45" data-name="Pfad 45" d="M123.487,186.535a6.6,6.6,0,1,1-12.856-2.078,6.6,6.6,0,0,0,12.523,0A6.6,6.6,0,0,1,123.487,186.535Zm0,0" transform="translate(-93.142 -156.478)" fill="#5de0bf"/>
  </g>
</svg>
