<svg xmlns="http://www.w3.org/2000/svg" width="61.782" height="61.652" viewBox="0 0 61.782 61.652">
    <defs>
        <style>
            .cls-1{fill:#0f7173}
        </style>
    </defs>
    <g id="seeding" transform="translate(0 -.472)">
        <g id="Gruppe_77" data-name="Gruppe 77" transform="translate(17.642 18.148)">
            <g id="Gruppe_76" data-name="Gruppe 76">
                <path id="Pfad_203" d="M140.848 133.666a.735.735 0 0 0 .959-.924c-1.322-4.075-6.11-5.595-10.561-1.98a18.968 18.968 0 0 1-3.246 2.317c1.543 1.543 3.307 6.721 7.155 7.294 4.239.769 7.99-3.4 4.921-5.31a13.105 13.105 0 0 0-6.943-1.984 13.142 13.142 0 0 1 7.715.587z" class="cls-1" data-name="Pfad 203" transform="translate(-128.003 -128.724)"/>
            </g>
        </g>
        <g id="Gruppe_79" data-name="Gruppe 79" transform="translate(29.685 .472)">
            <g id="Gruppe_78" data-name="Gruppe 78">
                <path id="Pfad_204" d="M235.376 20.188c-7.683-6.241-12.582 3.6-9.537 2.625a13.1 13.1 0 0 1 6.9-.309 13.217 13.217 0 0 0-10.194 4.84 84.5 84.5 0 0 1 .865-9.854c2.053-.071 4.789-1.728 6.292-4.629 2.59-4.636 1.389-9.389 1-12.389-2.024 1.971-10.866-.339-14.371 5.668a7.732 7.732 0 0 0 .531 8.245.99.99 0 0 0 1.784-.519 9.3 9.3 0 0 1 5.782-8.585 17.823 17.823 0 0 0-3.281 6.98c-.867 3.84-1.772 6.358-2.1 18.6a2.193 2.193 0 0 0 2.213 2.253 2.227 2.227 0 0 0 2.014-1.411 9.982 9.982 0 0 1 2.774-3.765 5.88 5.88 0 0 0 5.42 1.863c3.832-.57 5.62-5.76 7.154-7.294a18.9 18.9 0 0 1-3.246-2.319z" class="cls-1" data-name="Pfad 204" transform="translate(-215.38 -.472)"/>
            </g>
        </g>
        <g id="Gruppe_81" data-name="Gruppe 81" transform="translate(0 33.458)">
            <g id="Gruppe_80" data-name="Gruppe 80">
                <path id="Pfad_205" d="M60.975 241.782c-2.4-1.63-5.016-.468-6.216.225l-15.065 11.026h-8.821l-2.205-2.205h8.1c2.436 0 5.165-1.587 5.165-4.411 0-3-2.729-4.411-5.165-4.411h-3.035c-2.255 0-4.89.2-6.749-.794a13.135 13.135 0 0 0-5.968-1.41 12.738 12.738 0 0 0-9.14 3.744L0 255.238l13.231 13.232 4.41-6.616h20.842a9.079 9.079 0 0 0 6.03-2.292L61.126 244.8a1.931 1.931 0 0 0-.151-3.018z" class="cls-1" data-name="Pfad 205" transform="translate(0 -239.804)"/>
            </g>
        </g>
    </g>
</svg>
