<svg xmlns="http://www.w3.org/2000/svg" id="testimonial" width="104.959" height="87.5" viewBox="0 0 104.959 87.5">
    <defs>
        <style>
            .cls-1{fill:#fff}.cls-2{fill:#e1eaf8}.cls-3{fill:#ffc843}.cls-4{fill:#434c54}.cls-5{fill:#969ba1}
        </style>
    </defs>
    <path id="Pfad_153" d="M109.392 78.112v54.052a3.72 3.72 0 0 1-3.718 3.718H94.525l-4.813 7.849a2.878 2.878 0 0 1-4.91 0l-4.814-7.849H11.223a3.718 3.718 0 0 1-3.716-3.718V78.112a3.716 3.716 0 0 1 3.716-3.717h94.451a3.718 3.718 0 0 1 3.718 3.717zm0 0" class="cls-1" data-name="Pfad 153" transform="translate(-5.969 -59.144)"/>
    <path id="Pfad_154" d="M133.944 74.395v5.227a7.271 7.271 0 0 1-7.261 7.264h-70.3a7.271 7.271 0 0 1-7.261-7.264v-5.227zm0 0" class="cls-2" data-name="Pfad 154" transform="translate(-39.054 -59.144)"/>
    <path id="Pfad_155" d="M474.226 78.108v54.052a3.717 3.717 0 0 1-3.718 3.717h-4.09a3.717 3.717 0 0 0 3.718-3.717V78.108a3.717 3.717 0 0 0-3.718-3.717h4.09a3.717 3.717 0 0 1 3.718 3.717zm0 0" class="cls-2" data-name="Pfad 155" transform="translate(-370.803 -59.141)"/>
    <path id="Pfad_156" d="M139.039 30.518h-70.3a4.075 4.075 0 0 1-4.075-4.076V11.575A4.075 4.075 0 0 1 68.743 7.5h70.3a4.075 4.075 0 0 1 4.075 4.075v14.867a4.076 4.076 0 0 1-4.079 4.076zm0 0" class="cls-3" data-name="Pfad 156" transform="translate(-51.411 -5.963)"/>
    <path id="Pfad_157" d="M192.6 35.9l1.891 3.83 4.226.614-3.058 2.981.721 4.21-3.78-1.985-3.78 1.988.722-4.21-3.058-2.981 4.226-.614zm0 0" class="cls-1" data-name="Pfad 157" transform="translate(-148.252 -28.542)"/>
    <path id="Pfad_158" d="M271.276 35.9l1.891 3.83 4.227.614-3.058 2.981.721 4.21-3.78-1.988-3.78 1.988.722-4.21-3.058-2.981 4.227-.614zm0 0" class="cls-1" data-name="Pfad 158" transform="translate(-210.803 -28.542)"/>
    <path id="Pfad_159" d="M114.605 35.9l1.89 3.83 4.227.614-3.058 2.981.722 4.21-3.78-1.988-3.78 1.988.721-4.21-3.058-2.981 4.227-.614zm0 0" class="cls-1" data-name="Pfad 159" transform="translate(-86.248 -28.542)"/>
    <path id="Pfad_160" d="M349.953 35.9l1.891 3.83 4.227.614-3.059 2.981.722 4.21-3.78-1.988-3.78 1.988.722-4.21-3.059-2.981 4.227-.614zm0 0" class="cls-1" data-name="Pfad 160" transform="translate(-273.35 -28.542)"/>
    <path id="Pfad_161" d="M36.593 75.2H5.254a2.181 2.181 0 0 1-2.179-2.179V18.968a2.183 2.183 0 0 1 2.179-2.181h6.465v3.692a5.619 5.619 0 0 0 5.613 5.613h70.3a5.619 5.619 0 0 0 5.613-5.613v-3.692H99.7a2.183 2.183 0 0 1 2.179 2.181v13.716a1.537 1.537 0 0 0 3.075 0V18.968a5.261 5.261 0 0 0-5.254-5.256h-6.459v-8.1A5.619 5.619 0 0 0 87.627 0h-1.766a1.537 1.537 0 1 0 0 3.075h1.767a2.541 2.541 0 0 1 2.538 2.538v14.866a2.541 2.541 0 0 1-2.538 2.538h-70.3a2.541 2.541 0 0 1-2.538-2.538v-5.213-.016-9.637a2.54 2.54 0 0 1 2.538-2.538h62.316a1.537 1.537 0 1 0 0-3.075H17.332a5.619 5.619 0 0 0-5.613 5.613v8.1H5.254A5.261 5.261 0 0 0 0 18.969V73.02a5.26 5.26 0 0 0 5.254 5.254h31.339a1.538 1.538 0 0 0 0-3.076zm0 0" class="cls-4" data-name="Pfad 161"/>
    <path id="Pfad_162" d="M263.484 182.273a1.537 1.537 0 0 0-1.538 1.537v34.116a2.182 2.182 0 0 1-2.18 2.18h-11.147a1.538 1.538 0 0 0-1.311.734l-4.813 7.852a1.343 1.343 0 0 1-2.289 0l-4.813-7.852a1.537 1.537 0 0 0-1.311-.734h-31.209a1.537 1.537 0 0 0 0 3.075h30.347l4.364 7.117a4.418 4.418 0 0 0 7.532 0l4.363-7.117h10.287a5.261 5.261 0 0 0 5.255-5.255v-34.115a1.537 1.537 0 0 0-1.537-1.538zm0 0" class="cls-4" data-name="Pfad 162" transform="translate(-160.062 -144.908)"/>
    <g id="Gruppe_49" data-name="Gruppe 49" transform="translate(9.552 30.171)">
        <path id="Pfad_163" d="M57.342 150.251h10.55a1.537 1.537 0 1 0 0-3.075h-10.55a1.537 1.537 0 0 0 0 3.075zm0 0" class="cls-5" data-name="Pfad 163" transform="translate(-53.917 -147.176)"/>
        <path id="Pfad_164" d="M119.652 180.67a1.537 1.537 0 0 0-1.537-1.537H57.342a1.537 1.537 0 0 0 0 3.075h60.772a1.538 1.538 0 0 0 1.538-1.538zm0 0" class="cls-5" data-name="Pfad 164" transform="translate(-53.917 -172.582)"/>
        <path id="Pfad_165" d="M92.084 240.868H126.4a1.537 1.537 0 1 0 0-3.075H92.084a1.537 1.537 0 1 0 0 3.075zm0 0" class="cls-5" data-name="Pfad 165" transform="translate(-81.537 -219.217)"/>
        <path id="Pfad_166" d="M92.084 278.7h54.3a1.537 1.537 0 0 0 0-3.075h-54.3a1.537 1.537 0 1 0 0 3.075zm0 0" class="cls-5" data-name="Pfad 166" transform="translate(-81.537 -249.29)"/>
        <path id="Pfad_167" d="M92.084 316.528h68.29a1.537 1.537 0 1 0 0-3.075h-68.29a1.537 1.537 0 1 0 0 3.075zm0 0" class="cls-5" data-name="Pfad 167" transform="translate(-81.537 -279.366)"/>
        <path id="Pfad_168" d="M186.109 150.251a1.537 1.537 0 1 0 0-3.075H142.87a1.537 1.537 0 1 0 0 3.075zm0 0" class="cls-5" data-name="Pfad 168" transform="translate(-121.912 -147.176)"/>
        <path id="Pfad_169" d="M46.6 232.073v2.873a1.537 1.537 0 0 0 3.075 0v-2.873a1.537 1.537 0 1 0-3.075 0zm0 0" class="cls-5" data-name="Pfad 169" transform="translate(-46.598 -213.447)"/>
        <path id="Pfad_170" d="M65.012 232.073v2.873a1.537 1.537 0 0 0 3.075 0v-2.873a1.537 1.537 0 1 0-3.075 0zm0 0" class="cls-5" data-name="Pfad 170" transform="translate(-61.237 -213.447)"/>
        <path id="Pfad_171" d="M449.2 304.623v2.877a1.537 1.537 0 1 0 3.075 0v-2.874a1.537 1.537 0 0 0-3.075 0zm0 0" class="cls-5" data-name="Pfad 171" transform="translate(-366.666 -271.125)"/>
        <path id="Pfad_172" d="M467.609 304.623v2.877a1.537 1.537 0 1 0 3.075 0v-2.874a1.537 1.537 0 0 0-3.075 0zm0 0" class="cls-5" data-name="Pfad 172" transform="translate(-381.303 -271.125)"/>
        <path id="Pfad_173" d="M299.19 240.868a1.537 1.537 0 1 0 0-3.075h-6.754a1.537 1.537 0 1 0 0 3.075zm0 0" class="cls-5" data-name="Pfad 173" transform="translate(-240.817 -219.217)"/>
    </g>
</svg>
