<svg xmlns="http://www.w3.org/2000/svg" width="35.106" height="21.166" viewBox="0 0 35.106 21.166">
    <defs>
        <style>
            .cls-1{fill:#0f7173}
        </style>
    </defs>
    <path id="ticket" d="M34.758 12.652l-1.419-2.07 1.419-2.07a1.962 1.962 0 0 0 0-2.233l-1.42-2.069 1.126-1.642A1.611 1.611 0 0 0 34.563.9a1.707 1.707 0 0 0-1.52-.9h-8.23v.341a1.024 1.024 0 0 1-2.048 0V0H2.064A1.707 1.707 0 0 0 .543.9a1.611 1.611 0 0 0 .1 1.666l1.125 1.645-1.419 2.07a1.962 1.962 0 0 0 0 2.233l1.419 2.07-1.419 2.069a1.962 1.962 0 0 0 0 2.233l1.419 2.07L.642 18.6a1.611 1.611 0 0 0-.1 1.666 1.707 1.707 0 0 0 1.521.9h20.7v-.341a1.024 1.024 0 0 1 2.048 0v.341h8.23a1.708 1.708 0 0 0 1.521-.9 1.611 1.611 0 0 0-.1-1.666l-1.127-1.643 1.42-2.07a1.962 1.962 0 0 0 .003-2.235zm-10.969-.715a1.024 1.024 0 0 1-1.024-1.024v-.661a1.024 1.024 0 0 1 2.048 0v.661a1.024 1.024 0 0 1-1.025 1.025zm1.024 3.6v.663a1.024 1.024 0 0 1-2.048 0v-.661a1.024 1.024 0 1 1 2.048 0zm-1.025-8.885a1.024 1.024 0 0 1-1.024-1.024v-.661a1.024 1.024 0 0 1 2.048 0v.661a1.024 1.024 0 0 1-1.024 1.024zm-13.576 8.462a.479.479 0 0 1-.172-.549l.374-1.045a.477.477 0 0 1 .714-.236 3.659 3.659 0 0 0 1.983.591c.825 0 1.38-.423 1.38-1.052 0-.426-.177-.893-1.465-1.415a6.108 6.108 0 0 1-2.035-1.173 2.6 2.6 0 0 1-.837-1.969 2.954 2.954 0 0 1 2.356-2.9V4.178a.478.478 0 0 1 .477-.477h.967a.478.478 0 0 1 .477.477v1.07a4.455 4.455 0 0 1 1.793.578.475.475 0 0 1 .2.58l-.39 1.03a.477.477 0 0 1-.683.245 3.305 3.305 0 0 0-1.729-.468c-.868 0-1.177.447-1.177.865 0 .456.237.757 1.64 1.338a5.138 5.138 0 0 1 1.987 1.278 2.919 2.919 0 0 1 .726 2.018 3.137 3.137 0 0 1-2.465 3.037v1.238a.478.478 0 0 1-.477.477h-.983a.478.478 0 0 1-.477-.477V15.86a4.8 4.8 0 0 1-2.184-.746zm0 0" class="cls-1"/>
</svg>
