<svg xmlns="http://www.w3.org/2000/svg" width="16" height="16" viewBox="0 0 16 16">
    <defs>
        <style>
            .cls-1{fill:#fff}
        </style>
    </defs>
    <path id="facebook" d="M15.117 0H.882A.883.883 0 0 0 0 .883v14.235A.883.883 0 0 0 .883 16h7.664V9.812H6.469V7.391h2.078V5.608a2.909 2.909 0 0 1 3.106-3.192 17.1 17.1 0 0 1 1.863.1v2.16h-1.272c-1 0-1.2.477-1.2 1.176v1.539h2.4l-.313 2.422h-2.084V16h4.07a.883.883 0 0 0 .883-.883V.882A.883.883 0 0 0 15.117 0zm0 0" class="cls-1"/>
</svg>
