<?xml version="1.0" encoding="UTF-8"?>
<svg width="18px" height="18px" viewBox="0 0 18 18" version="1.1" xmlns="http://www.w3.org/2000/svg" xmlns:xlink="http://www.w3.org/1999/xlink">
    <!-- Generator: Sketch 52.5 (67469) - http://www.bohemiancoding.com/sketch -->
    <title>ic-cart</title>
    <desc>Created with Sketch.</desc>
    <defs>
        <path d="M5.10714286,14.4702381 C4.17083333,14.4702381 3.41327381,15.2363095 3.41327381,16.172619 C3.41327381,17.1089286 4.17083333,17.875 5.10714286,17.875 C6.04345238,17.875 6.80952381,17.1089286 6.80952381,16.172619 C6.80952381,15.2363095 6.04345238,14.4702381 5.10714286,14.4702381 Z M13.6190476,14.4702381 C12.6827381,14.4702381 11.9251786,15.2363095 11.9251786,16.172619 C11.9251786,17.1089286 12.6827381,17.875 13.6190476,17.875 C14.5553571,17.875 15.3214286,17.1089286 15.3214286,16.172619 C15.3214286,15.2363095 14.5553571,14.4702381 13.6190476,14.4702381 Z M6.04345238,10.2142857 L12.3848214,10.2142857 C13.0232143,10.2142857 13.585,9.86529762 13.8744048,9.33755952 L17.16,3.37071429 L15.6704167,2.55357143 L12.3848214,8.51190476 L6.40946429,8.51190476 L2.78339286,0.851190476 L0,0.851190476 L0,2.55357143 L1.70238095,2.55357143 L4.76666667,9.01410714 L3.61755952,11.0910119 C2.99619048,12.2316071 3.81333333,13.6190476 5.10714286,13.6190476 L15.3214286,13.6190476 L15.3214286,11.9166667 L5.10714286,11.9166667 L6.04345238,10.2142857 Z" id="path-1"></path>
    </defs>
    <g id="Page-1" stroke="none" stroke-width="1" fill="none" fill-rule="evenodd">
        <g id="NoBrand_flow_1_03" transform="translate(-852.000000, -616.000000)">
            <g id="Background_Home" transform="translate(-9.000000, 0.000000)">
                <g id="Group-2" transform="translate(0.000000, 94.000000)">
                    <g id="Group-4">
                        <g id="Team-conversation">
                            <g id="Bubble-chat-+-Bubble-chat-Mask">
                                <g id="Photos" transform="translate(5.000000, 3.000000)">
                                    <g id="Photo">
                                        <g id="Bubble-chat-+-Bubble-chat-Mask">
                                            <g id="Group-7" transform="translate(786.000000, 172.000000)">
                                                <g id="ic-cart" transform="translate(70.000000, 347.000000)">
                                                    <mask id="mask-2" fill="white">
                                                        <use xlink:href="#path-1"></use>
                                                    </mask>
                                                    <use id="icon/action/add_shopping_cart_24px" fill="#FFFFFF" fill-rule="nonzero" xlink:href="#path-1"></use>
                                                </g>
                                            </g>
                                        </g>
                                    </g>
                                </g>
                            </g>
                        </g>
                    </g>
                </g>
            </g>
        </g>
    </g>
</svg>