<?xml version="1.0" encoding="UTF-8"?>
<svg width="133px" height="133px" viewBox="0 0 133 133" version="1.1" xmlns="http://www.w3.org/2000/svg" xmlns:xlink="http://www.w3.org/1999/xlink">
    <!-- Generator: Sketch 52.5 (67469) - http://www.bohemiancoding.com/sketch -->
    <title>Combined Shape</title>
    <desc>Created with Sketch.</desc>
    <defs>
        <linearGradient x1="100%" y1="-21.888418%" x2="0%" y2="67.5255494%" id="linearGradient-1">
            <stop stop-color="#3EC1A3" offset="0%"></stop>
            <stop stop-color="#619FB3" offset="100%"></stop>
        </linearGradient>
    </defs>
    <g id="Page-1" stroke="none" stroke-width="1" fill="none" fill-rule="evenodd">
        <g id="NoBrand_flow_1_07" transform="translate(-654.000000, -392.000000)" fill="url(#linearGradient-1)" fill-rule="nonzero">
            <path d="M720.5,525 C683.773064,525 654,495.226936 654,458.5 C654,421.773064 683.773064,392 720.5,392 C757.226936,392 787,421.773064 787,458.5 C787,495.226936 757.226936,525 720.5,525 Z M720.5,519.088889 C753.962319,519.088889 781.088889,491.962319 781.088889,458.5 C781.088889,425.037681 753.962319,397.911111 720.5,397.911111 C687.037681,397.911111 659.911111,425.037681 659.911111,458.5 C659.911111,491.962319 687.037681,519.088889 720.5,519.088889 Z M757.335681,435.96652 C758.631473,434.677827 760.732365,434.677827 762.028157,435.96652 C763.323948,437.255213 763.323948,439.344598 762.028157,440.633291 L713.361381,489.03348 C712.06559,490.322173 709.964697,490.322173 708.668906,489.03348 L679.971843,460.493614 C678.676052,459.204921 678.676052,457.115537 679.971843,455.826844 C681.267635,454.53815 683.368527,454.53815 684.664319,455.826844 L711.015143,482.033324 L757.335681,435.96652 Z" id="Combined-Shape"></path>
        </g>
    </g>
</svg>