<svg xmlns="http://www.w3.org/2000/svg" viewBox="0 0 20 24">
    <defs>
        <linearGradient id="a" x1="0%" x2="71.456%" y1="0%" y2="144.265%">
            <stop offset="0%" stop-color="#FF843E"/>
            <stop offset="100%" stop-color="#FF5642"/>
        </linearGradient>
    </defs>
    <path fill="url(#a)" fill-rule="evenodd" d="M19.082,19.768 C18.4437451,21.5214596 16.9185136,22.8012181 15.0808456,23.1252029 C13.2431776,23.4491876 11.3722585,22.7681777 10.1728455,21.3387028 C8.97343249,19.909228 8.62774494,17.9484595 9.266,16.195 C10.2526568,13.4843866 13.2498865,12.0868435 15.9604999,13.0735002 C18.6711134,14.0601569 20.0686566,17.0573865 19.082,19.768 L19.082,19.768 Z M8,12.926 C7.2212785,15.0661034 4.85510341,16.1697215 2.715,15.391 C0.574896594,14.6122785 -0.528721497,12.2461034 0.25,10.106 C1.0287215,7.96589659 3.39489659,6.8622785 5.535,7.641 C7.67510341,8.4197215 8.7787215,10.7858966 8,12.926 L8,12.926 Z M18.072,7.114 C17.5083445,8.69283259 16.1421436,9.84875975 14.4917709,10.1431913 C12.8413983,10.4376229 11.159761,9.82543953 10.0849178,8.53892017 C9.01007468,7.2524008 8.70673725,5.48869476 9.29,3.917 C10.1839708,1.50805274 12.8551186,0.272780573 15.2695827,1.15174229 C17.6840468,2.030704 18.9359186,4.69411255 18.072,7.114 L18.072,7.114 Z"/>
</svg>
