<svg xmlns="http://www.w3.org/2000/svg" viewBox="0 0 103 25">
  <path fill="#FFF" fill-rule="evenodd" d="M15.717 18.753a4.302 4.302 0 1 1-8.085-2.943 4.302 4.302 0 0 1 8.085 2.943zM6.59 13.117a3.396 3.396 0 1 1-6.383-2.323 3.396 3.396 0 0 1 6.383 2.323zm8.296-4.787A3.85 3.85 0 1 1 7.65 5.697a3.85 3.85 0 0 1 7.234 2.633zm8.003 15.013V6.364c0-1.797.56-3.306 1.679-4.53C25.685.613 27.037 0 28.624 0h2.821c.5 0 .89.173 1.173.52.283.346.424.757.424 1.233 0 .498-.141.92-.424 1.267-.282.346-.673.52-1.173.52h-1.941c-.717 0-1.299.216-1.744.649-.445.433-.668 1.006-.668 1.72v2.973h3.19c.325 0 .586.152.781.455.196.303.293.772.293 1.183 0 .412-.097.769-.293 1.072-.195.303-.456.454-.782.454h-3.189v11.297c0 .39-.212.703-.635.941-.424.239-.929.426-1.516.426a2.788 2.788 0 0 1-1.466-.426c-.391-.238-.587-.552-.587-.941zm9.705-.031V10.305c0-.39.19-.703.57-.94.38-.239.874-.47 1.482-.47.543 0 .994.231 1.352.47.358.237.538.55.538.94v1.33c.347-.757.89-1.416 1.628-1.979.739-.562 1.532-.731 2.379-.731 1.056.106 1.76.308 2.114.605-1.064.376-2.19 1.757-2.524 2.975-.83.106-1.568.54-2.213 1.304-.75.887-1.124 2.044-1.124 3.471v6.032c0 .324-.217.627-.651.908-.435.281-.934.49-1.499.49a2.547 2.547 0 0 1-1.466-.474c-.39-.27-.586-.578-.586-.924zm8.446-5.33v-2.744c0-1.764.686-3.28 2.057-4.55 1.37-1.27 2.582-1.792 4.532-1.792 1.82 0 3.38.463 4.675 1.614 1.297 1.151 1.945 2.598 1.945 4.341 0 .646-.08 1.178-.241 1.598-.161.42-.408.715-.74.887-.332.172-.637.28-.915.323a7.435 7.435 0 0 1-1.093.064h-6.524v.485c0 .925.343 1.672 1.029 2.243.685.57 1.596.855 2.731.855.814 0 1.618-.205 2.41-.613.793-.41 1.307-.614 1.543-.614.45 0 .825.21 1.125.63.3.42.45.823.45 1.21 0 .603-.541 1.2-1.623 1.791-1.082.592-2.427 1-4.033 1-2.293 0-3.713-.72-5.159-1.936-1.446-1.215-2.169-2.813-2.169-4.792zm3.684-2.617h5.023c.367 0 .625-.06.774-.182.149-.121.223-.358.223-.71 0-.772-.292-1.4-.877-1.885-.585-.485-1.301-.727-2.15-.727-.803 0-1.502.237-2.099.71-.596.474-.894 1.097-.894 1.868v.926zm10.535 7.945V1.3c0-.39.19-.704.57-.942C56.207.12 56.7 0 57.308 0c.606 0 1.116.12 1.528.357.412.238.618.552.618.942v13.605l6.002-5.635c.26-.217.542-.325.846-.325.455 0 .91.216 1.366.65.455.432.795.775.795 1.251 0 .282-.12.541-.358.78l-3.838 3.474 4.781 6.818c.152.217.228.444.228.682 0 .477-.266.942-.797 1.397-.531.454-1.057.714-1.577.714-.434 0-.781-.217-1.041-.585l-4.39-6.461-2.017 1.85v3.796c0 .325-.217.628-.65.91-.434.28-.933.49-1.497.49a2.538 2.538 0 0 1-1.463-.474c-.39-.27-.586-.58-.586-.926zm15.208 0V1.3c0-.39.19-.704.57-.942.379-.238.872-.357 1.48-.357.606 0 1.116.12 1.528.357.412.238.618.552.618.942v13.605l6.114-5.635c.26-.217.542-.325.846-.325.455 0 .91.216 1.365.65.456.432.683.775.683 1.251 0 .282-.119.541-.357.78l-3.838 3.474 4.78 6.818c.153.217.229.444.229.682 0 .477-.266.942-.797 1.397-.531.454-1.057.714-1.578.714-.433 0-.78-.217-1.04-.585l-4.39-6.461-2.017 1.85v3.796c0 .325-.217.628-.65.91-.434.28-.933.49-1.497.49a2.538 2.538 0 0 1-1.463-.474c-.39-.27-.586-.58-.586-.926zm15.208 0V1.3c0-.39.191-.704.573-.942.382-.238.89-.357 1.522-.357.59 0 1.092.12 1.506.357.415.238.622.552.622.942V23.31c0 .325-.213.628-.638.91-.426.28-.922.49-1.49.49-.589 0-1.085-.204-1.49-.474-.403-.27-.605-.58-.605-.926zm5.324-1.395c0-.39.14-.797.422-1.22.282-.422.607-.633.975-.633.239 0 .536.12.894.358.357.238.829.482 1.413.73.585.25 1.279.375 2.08.375 1.582 0 2.372-.466 2.372-1.398 0-.52-.265-.932-.796-1.235-.53-.303-1.17-.553-1.917-.748-.747-.195-1.5-.428-2.258-.698a4.402 4.402 0 0 1-1.934-1.366c-.53-.639-.796-1.457-.796-2.454 0-1.321.466-2.347 1.397-3.3.932-.954 2.405-1.43 4.42-1.43 1.343 0 2.54.205 3.59.617 1.051.412 1.576.798 1.576 1.383 0 .369-.146.797-.438 1.284-.293.488-.656.731-1.089.731-.173 0-.644-.157-1.414-.47-.769-.315-1.489-.472-2.16-.472-.737 0-1.3.151-1.69.455-.39.303-.585.639-.585 1.007 0 .369.195.672.585.91.39.239.872.423 1.446.553.574.13 1.197.309 1.868.536.672.228 1.295.493 1.869.797.574.303 1.056.774 1.446 1.414.39.639.585 1.413.585 2.323 0 1.474-.526 2.633-1.576 3.478-1.051.845-2.519 1.268-4.403 1.268-1.625 0-3.012-.282-4.16-.845-1.148-.564-1.722-1.214-1.722-1.95z"/>
</svg>
