<svg xmlns="http://www.w3.org/2000/svg" viewBox="0 0 176 176"><path fill="#1b3b50" d="M14 0h148c7.7 0 14 6.3 14 14v148c0 7.7-6.3 14-14 14H14c-7.7 0-14-6.3-14-14V14C0 6.3 6.3 0 14 0z"/><path fill="#fff" d="M130 48.7h-19.6c-.5 0-.9.4-.9.9v50.7c0 17.8-7.6 25.2-20.9 25.2-13.1 0-20.9-7.4-20.9-25.2V66.5c-2.9.8-5.6 2.5-7.5 4.9-5.8 6.8-6.7 15.7-10.6 23.6-.9 1.8-2.1 3.5-3.5 4.8v1.3c0 27.6 15.8 42.8 42.4 42.8s42.4-15.3 42.4-42.8V49.6c0-.5-.4-.9-.9-.9z"/><path fill="#1fc89b" d="M49.6 100.4c4-7.9 4.9-16.7 10.6-23.6 1.9-2.3 4.6-4.1 7.5-4.9v-15c0-.5.4-.9.9-.9h10.7c.8 0 1.2-1 .7-1.6L57.8 32.1c-.4-.4-.9-.4-1.3 0L34.3 54.4c-.6.6-.2 1.6.7 1.6h10.2c.5 0 .9.4.9.9v48.4c1.4-1.4 2.6-3.1 3.5-4.9z"/></svg>