<svg viewBox="0 0 300 300">
  <g transform="translate(73.000000, 59.000000)" >
      <path d="M76.8749303,98 C65.7752078,97.8116833 56.7969339,93.9323597 50.2052898,86.5126826 C35.6203301,70.1667948 38.0448429,42.1452729 38.310024,39.471176 C39.2570993,19.2459646 48.9551504,9.64181399 56.9105829,5.15987702 C64.8281324,0.677940046 73.0866291,0 77.2916434,0 L77.5189415,0 C77.5568245,0 77.6325905,0 77.6704736,0 L77.9356546,0 C85.5880231,0.150653344 92.4448483,1.95849347 98.3167152,5.31053036 C106.196382,9.79246733 115.742901,19.396618 116.689976,39.471176 C116.955157,42.1452729 119.37967,70.1667948 104.79471,86.5126826 C98.1651831,93.9323597 89.1869092,97.8116833 78.0871867,98 C77.9735377,98 77.8220056,98 77.7083566,98 C77.6325905,98 77.5568245,98 77.4810585,98 C77.2537604,98 77.0643454,98 76.8749303,98 Z M48.4247882,40.4127594 C48.3869052,40.6387394 45.8108604,66.3627978 57.8197752,79.7709454 C62.5551517,85.1191391 68.9573808,87.7555726 77.2916434,87.8308993 C77.3674095,87.8308993 77.4052925,87.8308993 77.4810585,87.8308993 C77.5568245,87.8308993 77.5947075,87.8308993 77.6704736,87.8308993 C86.0426192,87.7555726 92.4069653,85.1191391 97.1802248,79.7709454 C109.227023,66.2874712 106.575212,40.6764028 106.537329,40.4127594 C106.499446,40.3374327 106.499446,40.2244427 106.499446,40.1114527 C105.325072,14.575711 87.9367698,10.432744 77.7083566,10.206764 C77.5947075,10.206764 77.4810585,10.206764 77.4052925,10.206764 L77.2537604,10.206764 C68.9952638,10.206764 49.7128106,13.1068409 48.4626712,40.1114527 C48.4626712,40.1867794 48.4247882,40.2997694 48.4247882,40.4127594 Z M154.989432,144.705207 C155.027167,146.658207 155.064903,156.686112 153.178134,161.681286 C152.800781,162.657786 152.083809,163.484055 151.215895,164.047421 C150.083834,164.761017 122.952103,182 77.5564542,182 C32.1608049,182 5.02907438,164.798575 3.8970133,164.047421 C2.99136444,163.484055 2.31212779,162.657786 1.9347741,161.681286 C-0.0652004719,156.648554 -0.0274651026,146.620649 0.0102702667,144.667649 C0.0102702667,144.630091 0.0102702667,144.592534 0.0102702667,144.554976 C0.048005636,144.254514 0.048005636,143.954053 0.048005636,143.616033 C0.274417852,136.217167 0.764977653,118.827953 17.1421279,113.231856 C17.255334,113.194299 17.3685401,113.156741 17.5194816,113.119183 C34.6136039,108.800048 48.6888967,99.0350468 48.8398381,98.9223738 C51.1416957,97.3073928 54.3114667,97.8707582 55.9340876,100.161778 C57.5567084,102.452797 56.9906779,105.607644 54.6888204,107.222625 C54.0473191,107.63576 39.0286421,118.076799 20.2364282,122.884185 C11.4440872,126.001473 10.4629676,135.35334 10.19882,143.916495 C10.19882,144.254514 10.1610846,144.554976 10.1610846,144.855437 C10.0856139,148.23563 10.3497615,153.45615 10.9535274,156.460766 C17.1043926,159.916074 41.2172935,171.896979 77.5187188,171.896979 C113.971086,171.896979 137.933045,159.953632 144.046175,156.498324 C144.649941,153.493708 144.876353,148.273188 144.838618,144.892995 C144.800882,144.592534 144.800882,144.292072 144.800882,143.954053 C144.536735,135.390898 143.555615,126.039031 134.763274,122.921742 C115.97106,118.114357 100.952383,107.710875 100.310882,107.260183 C98.0090243,105.645202 97.4429938,102.490355 99.0656147,100.199335 C100.688236,97.9083159 103.858007,97.3449505 106.159864,98.9599315 C106.310806,99.0726045 120.461569,108.837606 137.480221,113.156741 C137.593427,113.194299 137.744368,113.231856 137.857574,113.269414 C154.234725,118.827953 154.725284,136.217167 154.951697,143.653591 C154.951697,143.99161 154.989432,144.292072 154.989432,144.592534 C154.989432,144.630091 154.989432,144.667649 154.989432,144.705207 Z" />
  </g>
</svg>
