<svg viewBox="0 0 512 512" xmlns="http://www.w3.org/2000/svg"><path d="m509.055 150.672-107.115-144.602a15.012 15.012 0 0 0 -12.053-6.07 14.993 14.993 0 0 0 -12.051 6.07l-107.113 144.602a14.996 14.996 0 0 0 -1.34 15.676 15 15 0 0 0 13.394 8.254h38.555v72.5a54.784 54.784 0 0 0 -25.168-6.102h-26.777c-30.418 0-55.164 24.746-55.164 55.164v31.27a54.796 54.796 0 0 0 -25.168-6.102h-26.778c-30.418 0-55.164 24.75-55.164 55.168v31.266a54.857 54.857 0 0 0 -25.168-6.102h-26.78c-30.42 0-55.165 24.75-55.165 55.168v40.168c0 8.285 6.715 15 15 15h428.441c8.286 0 15-6.715 15-15v-322.398h38.559a15 15 0 0 0 13.395-8.254 14.996 14.996 0 0 0 -1.34-15.676zm-479.055 306.16c0-13.875 11.29-25.168 25.164-25.168h26.777c13.88 0 25.168 11.293 25.168 25.168v25.168h-77.109zm107.11 0v-80.332c0-13.879 11.288-25.168 25.167-25.168h26.778c13.875 0 25.164 11.29 25.164 25.168v105.5h-77.11zm107.112-80.332v-80.336c0-13.875 11.289-25.164 25.164-25.164h26.777c13.875 0 25.168 11.29 25.168 25.164v185.836h-77.11zm199.218-231.898c-8.285 0-15 6.714-15 15v322.398h-77.109v-322.398c0-8.286-6.719-15-15-15h-23.777l77.332-104.403 77.336 104.403zm0 0" fill="#12e5c4"/></svg>