<svg xmlns="http://www.w3.org/2000/svg" width="31.627" height="31.628" viewBox="0 0 31.627 31.628">
    <defs>
        <style>
            .cls-1{fill:#fff}
        </style>
    </defs>
    <g id="instagram" transform="translate(0 -.001)">
        <path id="Pfad_2" d="M16.125 31.629h-.315c-2.479.006-4.77-.057-7-.193A9.354 9.354 0 0 1 3.421 29.4a8.655 8.655 0 0 1-2.908-4.7 20.8 20.8 0 0 1-.477-4.968C.02 18.578 0 17.209 0 15.818s.02-2.765.036-3.92A20.807 20.807 0 0 1 .513 6.93a8.655 8.655 0 0 1 2.908-4.695A9.354 9.354 0 0 1 8.813.194c2.228-.135 4.519-.2 7-.193s4.77.057 7 .193a9.354 9.354 0 0 1 5.392 2.041 8.653 8.653 0 0 1 2.909 4.695 20.806 20.806 0 0 1 .477 4.968c.016 1.155.033 2.523.036 3.914v.006c0 1.391-.02 2.76-.036 3.914a20.8 20.8 0 0 1-.477 4.968 8.653 8.653 0 0 1-2.909 4.7 9.354 9.354 0 0 1-5.392 2.041c-2.133.125-4.324.188-6.688.188zm-.315-2.471c2.439.006 4.678-.056 6.853-.188a6.807 6.807 0 0 0 3.98-1.49 6.238 6.238 0 0 0 2.075-3.391 18.928 18.928 0 0 0 .4-4.391c.016-1.147.032-2.505.035-3.883s-.02-2.736-.035-3.883a18.931 18.931 0 0 0-.4-4.391 6.238 6.238 0 0 0-2.074-3.391 6.808 6.808 0 0 0-3.98-1.489c-2.175-.132-4.415-.194-6.848-.188s-4.678.056-6.853.188a6.808 6.808 0 0 0-3.98 1.489 6.238 6.238 0 0 0-2.076 3.391 18.93 18.93 0 0 0-.4 4.391c-.016 1.148-.032 2.507-.035 3.886s.02 2.732.035 3.88a18.928 18.928 0 0 0 .4 4.391 6.238 6.238 0 0 0 2.076 3.391 6.808 6.808 0 0 0 3.98 1.489c2.175.131 4.415.195 6.847.189zm-.059-5.621a7.722 7.722 0 1 1 7.722-7.722 7.73 7.73 0 0 1-7.722 7.722zm0-12.972A5.251 5.251 0 1 0 21 15.815a5.257 5.257 0 0 0-5.249-5.25zm8.586-4.942a1.853 1.853 0 1 0 1.853 1.853 1.853 1.853 0 0 0-1.852-1.853zm0 0" class="cls-1" data-name="Pfad 2"/>
    </g>
</svg>
