<svg xmlns="http://www.w3.org/2000/svg" viewBox="0 0 20 20">
  <path fill-opacity=".7" d="M.047 20l1.406-5.137A9.901 9.901 0 0 1 .13 9.91C.133 4.445 4.579 0 10.043 0a9.849 9.849 0 0 1 7.008 2.906 9.86 9.86 0 0 1 2.902 7.012c-.004 5.465-4.45 9.91-9.91 9.91a9.926 9.926 0 0 1-4.742-1.207zm5.5-3.172c1.394.828 2.726 1.324 4.492 1.324 4.54 0 8.238-3.691 8.238-8.234a8.232 8.232 0 0 0-8.23-8.246c-4.547 0-8.242 3.695-8.242 8.238 0 1.856.543 3.242 1.453 4.695l-.832 3.04zm9.488-4.555c-.062-.101-.226-.164-.476-.289-.246-.125-1.465-.722-1.692-.804-.226-.082-.39-.125-.558.125-.164.246-.641.804-.786.968-.144.165-.289.188-.535.063-.246-.125-1.047-.387-1.992-1.23A7.32 7.32 0 0 1 7.621 9.39c-.144-.246-.016-.383.106-.504.113-.114.25-.29.37-.434.13-.144.169-.25.25-.414.087-.164.044-.309-.019-.434-.062-.125-.558-1.343-.762-1.84-.203-.48-.406-.417-.558-.425l-.477-.008a.907.907 0 0 0-.66.313c-.226.246-.867.843-.867 2.066 0 1.219.89 2.394 1.012 2.559.125.168 1.746 2.668 4.23 3.742.59.254 1.055.406 1.414.52.59.187 1.133.16 1.559.097.476-.07 1.465-.598 1.672-1.176.207-.578.207-1.074.144-1.18zm0 0"/>
</svg>
