<svg xmlns="http://www.w3.org/2000/svg" viewBox="0 0 20 20">
  <path fill-opacity=".7" d="M15.832 0H4.168A4.17 4.17 0 0 0 0 4.168v11.664A4.17 4.17 0 0 0 4.168 20h11.664A4.17 4.17 0 0 0 20 15.832V4.168A4.17 4.17 0 0 0 15.832 0zM6.668 15.832h-2.5V6.668h2.5zM5.418 5.609c-.805 0-1.461-.656-1.461-1.468 0-.813.656-1.47 1.461-1.47s1.457.657 1.457 1.47c0 .812-.652 1.468-1.457 1.468zm11.25 10.223h-2.5v-4.668c0-2.809-3.336-2.594-3.336 0v4.668h-2.5V6.668h2.5v1.469c1.164-2.153 5.836-2.313 5.836 2.062zm0 0"/>
</svg>
