<svg xmlns="http://www.w3.org/2000/svg" viewBox="0 0 639 168"><title>logo</title><path d="M100,28.6V127H65.4V113.8a31.32,31.32,0,0,1-11.7,11,34,34,0,0,1-16.3,3.8q-19,0-28.2-10.5T0,86.2V28.6H35.6V87q0,14.4,12.4,14.4a15,15,0,0,0,11.8-5.2q4.61-5.2,4.6-13.6v-54Z"/><path d="M206.5,32.7A43,43,0,0,1,221.9,51q5.49,11.8,5.5,27t-5.5,26.7A40.25,40.25,0,0,1,184,128.6a39.4,39.4,0,0,1-17.3-3.8,30.54,30.54,0,0,1-12.3-10.2V163H118.8V28.6h35V41.2a28.74,28.74,0,0,1,12.3-11,42.13,42.13,0,0,1,40.4,2.5ZM187.3,95.8q4.89-6.19,4.9-17.8,0-12.19-5-18.7T173,52.8q-9.21,0-14.2,6.4t-5,18.4q0,11.81,5,18.1t14.4,6.3Q182.4,102,187.3,95.8Z"/><path d="M309.2,102.4l-1.8,25.4a100.68,100.68,0,0,1-12.4.8q-24,0-34.9-10.1T249.2,87.2V54.8H230.8V28.6h18.4V0h35.6V28.6h23.6V54.8H284.8V87.4q0,15.6,14.6,15.6A89.5,89.5,0,0,0,309.2,102.4Z"/><path d="M340.7,122.3a45.2,45.2,0,0,1-19-17.9Q315,92.81,315,77.2t6.7-27.1a44.78,44.78,0,0,1,18.9-17.7q12.19-6.19,28.6-6.2t28.6,6.2a44.9,44.9,0,0,1,18.9,17.7q6.69,11.51,6.7,27.1t-6.7,27.2a45.42,45.42,0,0,1-18.9,17.9q-12.21,6.3-28.6,6.3Q353,128.6,340.7,122.3Zm47.5-45.1q0-24.79-19-24.8t-19,24.8q0,24.8,19,24.8T388.2,77.2Z"/><path d="M536.8,28.6V127H502.2V113.8a31.32,31.32,0,0,1-11.7,11,34.08,34.08,0,0,1-16.3,3.8q-19,0-28.2-10.5t-9.2-31.9V28.6h35.6V87q0,14.4,12.4,14.4a15,15,0,0,0,11.8-5.2q4.59-5.2,4.6-13.6v-54Z"/><path d="M569,125.6a59.79,59.79,0,0,1-20.21-8.8l9-24.2A71.17,71.17,0,0,0,576,100.9a67.14,67.14,0,0,0,19.59,3.1q5.8,0,9-1.7c2.14-1.13,3.2-2.7,3.2-4.7a4.43,4.43,0,0,0-2.29-4q-2.31-1.39-9.31-3L580.4,87q-15-3.41-21.61-10t-6.6-18.8a26.72,26.72,0,0,1,5.6-16.7q5.61-7.3,15.71-11.3a61.68,61.68,0,0,1,22.9-4,74.09,74.09,0,0,1,21.1,3.1A72.38,72.38,0,0,1,636.59,38L627.4,61.2a75.79,75.79,0,0,0-16.11-7.7A48.39,48.39,0,0,0,596,50.8q-5.81,0-9,1.8a5.67,5.67,0,0,0-3.21,5.2,3.86,3.86,0,0,0,2,3.3,24.32,24.32,0,0,0,7,2.5l16.61,3.8Q625,70.81,632,77.9t7,19.3q0,14.6-11.71,23t-32.1,8.4A107.86,107.86,0,0,1,569,125.6Z"/></svg>
