<svg viewBox="0 0 612.64 176.47" xmlns="http://www.w3.org/2000/svg"><path d="M151.1 26.46h-30.81a1.45 1.45 0 0 0-1.45 1.45v79.88c0 28-12 39.61-32.87 39.61-20.64 0-32.86-11.59-32.86-39.61V54.56a23.89 23.89 0 0 0-11.86 7.69C32.18 73 30.76 86.91 24.53 99.38A28.22 28.22 0 0 1 19 107v2c0 43.4 24.86 67.42 66.78 67.42s66.79-24 66.79-67.42V27.91a1.45 1.45 0 0 0-1.47-1.45z" fill="#fff"/><path d="M24.53 107.88c6.23-12.47 7.65-26.36 16.72-37.13a23.89 23.89 0 0 1 11.86-7.69V39.33a1.45 1.45 0 0 1 1.45-1.45h16.85a1.45 1.45 0 0 0 1-2.47l-35-35a1.46 1.46 0 0 0-2.05 0l-35 35a1.44 1.44 0 0 0 1 2.47h16.17A1.45 1.45 0 0 1 19 39.33v76.18a28.07 28.07 0 0 0 5.53-7.63z" fill="#1fc89b"/><g fill="#fff"><path d="M276.34 38.26h-13.26a1.89 1.89 0 0 0-1.89 1.89v34.4c0 10.78-4.1 15.8-12.9 15.8s-12.89-5-12.89-15.8v-34.4a1.89 1.89 0 0 0-1.89-1.89h-13.44a1.89 1.89 0 0 0-1.89 1.89V75.1c0 19.25 10.94 30.3 30 30.3s30-11.05 30-30.3V40.15a1.89 1.89 0 0 0-1.84-1.89zm42.66 0h-26.89a1.89 1.89 0 0 0-1.89 1.89v62.27a1.89 1.89 0 0 0 1.89 1.89h13.44a1.89 1.89 0 0 0 1.89-1.89V86.79H319c17.79 0 28.84-9.28 28.84-24.22S336.77 38.26 319 38.26zm-11.54 14.5h10.72c5.59 0 12.26 1.71 12.26 9.81s-6.67 9.72-12.26 9.72h-10.74zm99.15-14.5h-54.1a1.89 1.89 0 0 0-1.89 1.89v10.72a1.89 1.89 0 0 0 1.89 1.89H371v49.66a1.89 1.89 0 0 0 1.89 1.89h13.44a1.89 1.89 0 0 0 1.89-1.89V52.76h18.44a1.89 1.89 0 0 0 1.89-1.89V40.15a1.89 1.89 0 0 0-1.94-1.89zm39.63-1.08c-20.87 0-36 14.34-36 34.11s15.14 34.11 36 34.11 36-14.35 36-34.11-15.13-34.11-36-34.11zm0 53.17c-11 0-18.61-7.84-18.61-19.06s7.65-19.07 18.61-19.07 18.62 7.84 18.62 19.07-7.66 19.06-18.62 19.06zm102.05-52.09h-13a2 2 0 0 0-2 2v34.29c0 10.78-4.1 15.8-12.9 15.8s-12.89-5-12.89-15.8V40.28a2 2 0 0 0-2-2h-13.23a2 2 0 0 0-2 2V75.1c0 19.25 10.94 30.3 30 30.3s30-11.05 30-30.3V40.28a2 2 0 0 0-1.98-2.02zm40.23 26.01c-6.88-1.57-12.81-2.93-12.81-6.78s3.84-6 10.81-6a34.38 34.38 0 0 1 16.26 4.43 2 2 0 0 0 2.83-1l4-9.77a2 2 0 0 0-.82-2.5c-5.82-3.47-13.89-5.46-22.15-5.46-12.93 0-28 5.51-28 21 0 14.8 13.36 17.9 24.1 20.4 6.88 1.6 12.83 3 12.83 6.91 0 4.83-6.88 5.55-11 5.55A36.54 36.54 0 0 1 565 85.19a2 2 0 0 0-1.69-.28A2 2 0 0 0 562 86l-4.37 9.69a2 2 0 0 0 .64 2.46c6 4.39 16.29 7.23 26.12 7.23 20.82 0 28.21-11.29 28.21-21 .04-14.59-13.33-17.65-24.08-20.11z"/><text font-family="Montserrat-Bold,Montserrat" font-size="35.15" font-weight="700" transform="translate(218.6 151.3)"><tspan>POSIT</tspan> <tspan letter-spacing="0" x="111.08" y="0">I</tspan> <tspan letter-spacing="-.02em" x="122.46" y="0">V</tspan> <tspan x="148.16" y="0">E INF</tspan> <tspan letter-spacing="-.01em" x="244.09" y="0">L</tspan> <tspan x="265" y="0">UENCE</tspan></text></g></svg>