<?xml version="1.0" encoding="utf-8"?>
<!-- Generator: Adobe Illustrator 24.1.0, SVG Export Plug-In . SVG Version: 6.00 Build 0)  -->
<svg version="1.1" id="Ebene_1" xmlns="http://www.w3.org/2000/svg" xmlns:xlink="http://www.w3.org/1999/xlink" x="0px" y="0px"
	 viewBox="0 0 639 168" style="enable-background:new 0 0 639 168;" xml:space="preserve">
<style type="text/css">
	.st0{fill:#FFFFFF;}
</style>
<path class="st0" d="M100,28.6V127H65.4v-13.2c-2.9,4.6-6.9,8.4-11.7,11c-5,2.6-10.6,3.9-16.3,3.8c-12.7,0-22.1-3.5-28.2-10.5
	S0,100.5,0,86.2V28.6h35.6V87c0,9.6,4.1,14.4,12.4,14.4c4.5,0.1,8.9-1.8,11.8-5.2c3.1-3.5,4.6-8,4.6-13.6v-54L100,28.6z"/>
<path class="st0" d="M206.5,32.7c6.8,4.5,12.1,10.9,15.4,18.3c3.7,7.9,5.5,16.9,5.5,27s-1.8,19-5.5,26.7
	c-6.6,14.9-21.6,24.4-37.9,23.9c-6,0.1-11.9-1.2-17.3-3.8c-4.9-2.2-9.2-5.8-12.3-10.2V163h-35.6V28.6h35v12.6
	c2.9-4.8,7.2-8.6,12.3-11C179.1,24.1,194.3,25,206.5,32.7z M187.3,95.8c3.3-4.1,4.9-10.1,4.9-17.8c0-8.1-1.7-14.4-5-18.7
	c-3.3-4.3-8.1-6.5-14.2-6.5c-6.1,0-10.9,2.1-14.2,6.4s-5,10.4-5,18.4c0,7.9,1.7,13.9,5,18.1c3.3,4.2,8.1,6.3,14.4,6.3
	C179.3,102,184,99.9,187.3,95.8z"/>
<path class="st0" d="M309.2,102.4l-1.8,25.4c-4.1,0.5-8.3,0.8-12.4,0.8c-16,0-27.6-3.4-34.9-10.1c-7.3-6.7-10.9-17.2-10.9-31.3V54.8
	h-18.4V28.6h18.4V0h35.6v28.6h23.6v26.2h-23.6v32.6c0,10.4,4.9,15.6,14.6,15.6C302.7,103,305.9,102.8,309.2,102.4z"/>
<path class="st0" d="M340.7,122.3c-8-4-14.6-10.2-19-17.9c-4.5-7.7-6.7-16.8-6.7-27.2s2.2-19.4,6.7-27.1c4.4-7.6,11-13.8,18.9-17.7
	c8.1-4.1,17.7-6.2,28.6-6.2s20.5,2.1,28.6,6.2c7.9,3.9,14.5,10.1,18.9,17.7c4.5,7.7,6.7,16.7,6.7,27.1s-2.2,19.5-6.7,27.2
	c-4.4,7.7-11,13.9-18.9,17.9c-8.1,4.2-17.7,6.3-28.6,6.3C358.4,128.6,348.9,126.5,340.7,122.3z M388.2,77.2c0-16.5-6.3-24.8-19-24.8
	c-12.7,0-19,8.3-19,24.8c0,16.5,6.3,24.8,19,24.8C381.9,102,388.2,93.7,388.2,77.2z"/>
<path class="st0" d="M536.8,28.6V127h-34.6v-13.2c-2.9,4.6-6.9,8.4-11.7,11c-5,2.6-10.6,3.9-16.3,3.8c-12.7,0-22.1-3.5-28.2-10.5
	s-9.2-17.6-9.2-31.9V28.6h35.6V87c0,9.6,4.1,14.4,12.4,14.4c4.5,0.1,8.9-1.8,11.8-5.2c3.1-3.5,4.6-8,4.6-13.6v-54L536.8,28.6z"/>
<path class="st0" d="M569,125.6c-7.2-1.7-14.1-4.6-20.2-8.8l9-24.2c5.6,3.6,11.8,6.4,18.2,8.3c6.3,2,12.9,3,19.6,3.1
	c3.9,0,6.9-0.6,9-1.7c2.1-1.1,3.2-2.7,3.2-4.7c0-1.7-0.8-3.2-2.3-4c-1.5-0.9-4.6-1.9-9.3-3L580.4,87c-10-2.3-17.2-5.6-21.6-10
	s-6.6-10.7-6.6-18.8c-0.1-6,1.9-11.9,5.6-16.7c3.7-4.9,9-8.6,15.7-11.3c7.3-2.8,15.1-4.1,22.9-4c7.1,0,14.3,1.1,21.1,3.1
	c6.8,2,13.2,4.9,19.1,8.7l-9.2,23.2c-5-3.2-10.5-5.8-16.1-7.7c-4.9-1.7-10.1-2.6-15.3-2.7c-3.9,0-6.9,0.6-9,1.8c-2,1-3.2,3-3.2,5.2
	c0,1.4,0.8,2.6,2,3.3c2.2,1.2,4.6,2,7,2.5l16.6,3.8c10.4,2.3,17.9,5.8,22.6,10.5s7,11.2,7,19.3c0,9.7-3.9,17.4-11.7,23
	c-7.8,5.6-18.5,8.4-32.1,8.4C586.4,128.7,577.6,127.7,569,125.6z"/>
</svg>
