<svg height="512" viewBox="0 0 82.094 82.094" width="512" xmlns="http://www.w3.org/2000/svg"><path d="m39.661 76.447-32.9-32.6c-1.4-1.3-2.5-2.8-3.5-4.4-5.4-8.9-4-20.3 3.5-27.7 4.3-4.3 10.1-6.7 16.2-6.7 9.6 0 15.6 5.6 18.1 8.8 2.5-3.2 8.5-8.8 18.1-8.8 6.1 0 11.9 2.4 16.2 6.7 7.4 7.4 8.9 18.8 3.5 27.7-1 1.6-2.1 3.1-3.5 4.4l-32.9 32.6c-.8.8-2 .8-2.8 0zm-16.7-67.4c-5.1 0-9.8 2-13.4 5.5-6.1 6.1-7.3 15.5-2.9 22.8.8 1.3 1.8 2.6 2.9 3.7l31.5 31.2 31.5-31.2c1.1-1.1 2.1-2.3 2.9-3.7 4.4-7.4 3.3-16.8-2.9-22.8-3.6-3.5-8.4-5.5-13.4-5.5-7.2 0-13.2 3.9-16.4 9.3-.8 1.3-2.7 1.3-3.5 0-3.1-5.4-9.1-9.3-16.3-9.3z" fill="#12e5c4"/></svg>