<svg viewBox="0 0 512 512" xmlns="http://www.w3.org/2000/svg"><g><path d="m375.035 225.124c-2.452-6.204-9.469-9.242-15.675-6.792-6.204 2.453-9.244 9.471-6.792 15.675 6.139 15.525 9.25 31.933 9.25 48.77 0 73.14-59.503 132.645-132.645 132.645-73.147 0-132.658-59.505-132.658-132.645s59.511-132.645 132.658-132.645c16.896 0 33.332 3.131 48.852 9.306 6.197 2.469 13.222-.56 15.689-6.757 2.467-6.199-.559-13.223-6.757-15.689-18.374-7.312-37.816-11.019-57.783-11.019-86.468 0-156.817 70.341-156.817 156.803s70.346 156.804 156.816 156.804c86.461 0 156.803-70.341 156.803-156.803 0-19.891-3.682-39.287-10.941-57.653z"/><path d="m449.506 219.607c-1.835-6.414-8.518-10.121-14.936-8.29-6.414 1.836-10.125 8.523-8.29 14.936 5.236 18.302 7.891 37.32 7.891 56.522 0 113.044-91.962 205.014-204.999 205.014-113.044 0-205.013-91.969-205.013-205.014s91.968-205.012 205.013-205.012c19.246 0 38.296 2.667 56.618 7.928 6.413 1.84 13.103-1.864 14.943-8.277 1.841-6.413-1.864-13.103-8.277-14.943-20.489-5.884-41.782-8.868-63.284-8.868-126.366.001-229.172 102.807-229.172 229.173s102.806 229.173 229.172 229.173c126.358 0 229.158-102.806 229.158-229.173 0-21.452-2.969-42.705-8.824-63.169z"/><path d="m313.278 275.401c-.592-6.645-6.463-11.525-13.105-10.958-6.645.593-11.552 6.461-10.958 13.106.153 1.72.231 3.479.231 5.228 0 33.237-27.04 60.275-60.275 60.275-33.244 0-60.29-27.04-60.29-60.275.002-33.245 27.047-60.29 60.291-60.29 1.857 0 3.675.081 5.406.24 6.649.61 12.525-4.276 13.138-10.92.612-6.643-4.277-12.524-10.92-13.138a83.476 83.476 0 0 0 -7.623-.342c-46.565 0-84.449 37.882-84.449 84.448 0 46.558 37.884 84.434 84.449 84.434 46.557 0 84.434-37.876 84.434-84.434a83.286 83.286 0 0 0 -.329-7.374z"/><path d="m510.149 81.264a24.094 24.094 0 0 0 -22.326-14.918h-42.119v-42.118c0-9.81-5.856-18.573-14.918-22.326a24.085 24.085 0 0 0 -26.325 5.239l-70.376 70.377c-6.842 6.841-10.609 15.939-10.609 25.618v68.355l-98.17 98.17c-4.717 4.717-4.717 12.366 0 17.084a12.043 12.043 0 0 0 8.541 3.538c3.091 0 6.183-1.18 8.541-3.538l98.171-98.171h68.355c9.679 0 18.778-3.768 25.618-10.608l70.377-70.379a24.08 24.08 0 0 0 5.24-26.323zm-162.514 21.871a11.993 11.993 0 0 1 3.534-8.534l70.376-70.366v49.188l-73.911 73.911v-44.199zm69.815 57.747a12.156 12.156 0 0 1 -8.535 3.533h-44.196l73.909-73.909 49.192.006z"/></g></svg>
