<?xml version="1.0" encoding="utf-8"?>
<!-- Generator: Adobe Illustrator 23.0.1, SVG Export Plug-In . SVG Version: 6.00 Build 0)  -->
<svg version="1.1" id="Ebene_1" xmlns="http://www.w3.org/2000/svg" xmlns:xlink="http://www.w3.org/1999/xlink" x="0px" y="0px"
	 viewBox="0 0 22 22" style="enable-background:new 0 0 22 22;" xml:space="preserve">
<style type="text/css">
	.st0{fill:#D6D6D6;}
</style>
<title>icon/maps/directions_24px</title>
<desc>Created with Sketch.</desc>
<g id="Icons-Outline">
	<g transform="translate(-1.000000, -1.000000)">
		<g>
			<path class="st0" d="M22.4,10.6l-9-9c-0.8-0.8-2.1-0.8-2.8,0l-9,9c-0.8,0.8-0.8,2,0,2.8l9,9C11,22.8,11.5,23,12,23s1-0.2,1.4-0.6
				l9-9C23.2,12.7,23.2,11.4,22.4,10.6z M12,21l-9-9l9-9l9,9L12,21z M8,11v4h2v-3h4v2.5l3.5-3.5L14,7.5V10H9C8.4,10,8,10.5,8,11z"/>
		</g>
	</g>
</g>
</svg>
