<svg height="101.553" viewBox="0 0 127.749 101.553" width="127.749" xmlns="http://www.w3.org/2000/svg"><g transform="translate(0 -52.494)"><path d="m132.754 165.854a9.782 9.782 0 0 0 -9.779-9.591h-15.12l-9.668 14.112-10.648-8-11.989 8v-14.112h-55.766a9.784 9.784 0 0 0 -9.784 9.784v37.692a9.784 9.784 0 0 0 9.784 9.784h4.834v15.924l17.944-15.924h80.413a9.784 9.784 0 0 0 9.784-9.784v-15.739z" fill="#9fc6ea" transform="translate(-7.505 -77.877)"/><g fill="#f9f5f3"><path d="m218.515 72.055 13.523 10.945 48.333-20.5z" transform="translate(-163.993 -7.511)"/><path d="m295.352 100.009-22.637-17.009 48.332-20.5z" transform="translate(-204.67 -7.511)"/><path d="m272.715 144.64v17.013l12-8.012z" transform="translate(-204.67 -69.155)"/></g><path d="m125.254 107.628a2.5 2.5 0 0 0 -2.5 2.5v15.738a7.3 7.3 0 0 1 -7.289 7.289h-80.408a2.494 2.494 0 0 0 -1.656.629l-13.792 12.24v-10.379a2.5 2.5 0 0 0 -2.5-2.5h-4.83a7.3 7.3 0 0 1 -7.289-7.289v-37.687a7.3 7.3 0 0 1 7.289-7.289h53.271v11.62a2.52 2.52 0 0 0 3.881 2.076l10.518-7.021 9.235 6.94a2.522 2.522 0 0 0 3.558-.584l8.925-13.028h13.8a7.323 7.323 0 0 1 7.284 7.144 2.5 2.5 0 1 0 4.989-.1 12.34 12.34 0 0 0 -12.27-12.036h-10.386l13.352-19.491a2.516 2.516 0 0 0 -2.45-3.874l-61.845 9.553a2.517 2.517 0 0 0 -1.189 4.406l11.626 9.405h-52.3a12.293 12.293 0 0 0 -12.278 12.279v37.692a12.293 12.293 0 0 0 12.279 12.279h2.339v13.429a2.517 2.517 0 0 0 4.151 1.866l17.231-15.295h79.47a12.293 12.293 0 0 0 12.279-12.279v-15.738a2.5 2.5 0 0 0 -2.5-2.495zm-35.154-18.691-17.09-12.847 36.49-15.471zm-19.557-1.1v-7.35l5.18 3.893zm26.416-27.322-28.509 12.085-7.977-6.45z" fill="#376996"/><path d="m163.855 222.534h-76.955a3.845 3.845 0 0 1 0-7.689h27.38a2.5 2.5 0 1 0 0-4.99h-27.38a8.835 8.835 0 0 0 0 17.67h76.959a2.5 2.5 0 1 0 0-4.99z" fill="#fff" transform="translate(-58.584 -118.097)"/><path d="m233.628 312.763h-60.1a2.5 2.5 0 0 0 0 4.99h60.1a2.5 2.5 0 1 0 0-4.99z" fill="#fff" transform="translate(-128.357 -195.329)"/><path d="m129.575 312.962a2.494 2.494 0 1 0 1.5 2.739 2.514 2.514 0 0 0 -1.5-2.739z" fill="#fff" transform="translate(-94.659 -195.338)"/><path d="m496.8 229.974a2.494 2.494 0 1 0 -.817 2.959 2.514 2.514 0 0 0 .817-2.959z" fill="#376996" transform="translate(-369.242 -132.041)"/></g></svg>
