<svg height="98.467" width="98.467" xmlns="http://www.w3.org/2000/svg"><path d="m104.622 57.31a47.311 47.311 0 1 1 -47.312-47.31 47.311 47.311 0 0 1 47.312 47.31zm0 0" fill="#9fc6ea" transform="translate(-8.077 -8.077)"/><path d="m157.6 139.848-22.918 22.918-10.032-10.032-10.88 10.88 10.03 10.031 10.88 10.879 33.8-33.8zm0 0" fill="#fff" transform="translate(-91.886 -112.952)"/><g fill="#376996"><path d="m126.6 178.371a1.923 1.923 0 0 1 -1.36-.563l-20.911-20.908a1.923 1.923 0 0 1 0-2.72l10.879-10.88a1.923 1.923 0 0 1 2.72 0l8.672 8.672 21.558-21.559a1.923 1.923 0 0 1 2.72 0l10.879 10.88a1.922 1.922 0 0 1 0 2.72l-33.8 33.8a1.922 1.922 0 0 1 -1.357.558zm-18.191-22.834 18.191 18.191 31.078-31.078-8.159-8.16-21.559 21.559a1.922 1.922 0 0 1 -2.72 0l-8.672-8.672zm0 0" transform="translate(-83.81 -104.875)"/><path d="m49.222 98.467q-1.884 0-3.774-.144a49.223 49.223 0 1 1 43.8-20.393 1.923 1.923 0 1 1 -3.123-2.245 45.388 45.388 0 1 0 -10.44 10.44 1.923 1.923 0 0 1 2.245 3.124 49.227 49.227 0 0 1 -28.708 9.218zm0 0"/><path d="m421.876 423.8a1.924 1.924 0 1 1 1.36-.563 1.937 1.937 0 0 1 -1.36.563zm0 0" transform="translate(-339.188 -339.188)"/></g></svg>