<svg xmlns="http://www.w3.org/2000/svg" width="103.735" height="98.903" viewBox="0 0 103.735 98.903">
  <defs>
    <style>
      .content-cls-1{fill:#9fc6ea}.content-cls-2{fill:#f9f5f3}.content-cls-3{fill:#376996}
    </style>
  </defs>
  <g id="content" transform="translate(0 -11.925)">
    <path d="M53.8 349.978H15.256A5.256 5.256 0 0 1 10 344.722v-25.085a5.256 5.256 0 0 1 5.256-5.256H53.8a5.256 5.256 0 0 1 5.256 5.256v25.085a5.257 5.257 0 0 1-5.256 5.256z" class="content-cls-1" transform="translate(-7.974 -241.176)"/>
    <path d="M272.474 268.625h.3a5.258 5.258 0 0 0 5.257-5.257v-27.629a5.258 5.258 0 0 0-5.257-5.257h-46.4a5.256 5.256 0 0 0-5.255 5.257v11.742h1.029a5.256 5.256 0 0 1 5.257 5.255v15.889h45.067z" class="content-cls-1" transform="translate(-176.32 -174.276)"/>
    <path d="M75.089 21.925a5.257 5.257 0 0 0-5.242 5.257v38.852a5.256 5.256 0 0 0 5.253 5.255h25.4v-1.852a5.256 5.256 0 0 1 5.255-5.257H143.5v-37a5.256 5.256 0 0 0-5.255-5.257H75.089z" class="content-cls-2" transform="translate(-55.695 -7.974)"/>
    <path d="M332.713 271.94v10.176l18.977 3.022v-16.221z" class="content-cls-2" transform="translate(-265.303 -204.923)"/>
    <path d="M302.584 294.012h-5.289a2.367 2.367 0 0 1-2.367-2.367V286.2a2.367 2.367 0 0 1 2.367-2.367h5.288v10.176z" class="content-cls-1" transform="translate(-235.173 -216.82)"/>
    <path d="M332.713 334.062v9.37h5.779l2.586-8.037z" class="content-cls-2" transform="translate(-265.303 -256.869)"/>
    <path d="M105.369 366.947V381.1l12.361-7.523z" class="content-cls-2" transform="translate(-84.02 -283.092)"/>
    <path d="M125.417 134.518h-19.665a5.256 5.256 0 0 0-5.255 5.257v1.852H75.105a5.256 5.256 0 0 1-5.257-5.255v-4.907l26.312-21.33z" class="content-cls-1" transform="translate(-55.696 -78.312)"/>
    <path d="M299.287 153.75l13.2-10 13.97 9.957v7.616h-18.086z" class="content-cls-1" transform="translate(-238.649 -105.114)"/>
    <circle cx="4.929" cy="4.929" r="4.929" class="content-cls-1" transform="translate(55.706 22.381)"/>
    <path d="M96.452 54.18h-6.62V19.208a7.29 7.29 0 0 0-7.281-7.283h-45.33a2.026 2.026 0 1 0 0 4.052h45.33a3.234 3.234 0 0 1 3.229 3.231v25.45l-10.768-7.675a2.027 2.027 0 0 0-2.4.035L60.7 46.049 41.76 30.267a2.026 2.026 0 0 0-2.573-.017L16.178 48.9V19.208a3.236 3.236 0 0 1 3.222-3.23 2.026 2.026 0 0 0-.006-4.052h-.006a7.3 7.3 0 0 0-7.262 7.283V58.06a7.291 7.291 0 0 0 7.283 7.281h23.365v5.838H7.282A7.29 7.29 0 0 0 0 78.461v25.085a7.291 7.291 0 0 0 7.282 7.282H45.83a7.29 7.29 0 0 0 7.282-7.282v-7.171H78.34a2.026 2.026 0 1 0 0-4.052H53.113V78.46a7.361 7.361 0 0 0-6.286-7.213v-9.784a3.234 3.234 0 0 1 3.229-3.231h46.4a3.235 3.235 0 0 1 3.231 3.231v27.629a3.235 3.235 0 0 1-3.231 3.231h-.3a2.026 2.026 0 1 0 0 4.052h.3a7.291 7.291 0 0 0 7.283-7.283V61.463a7.291 7.291 0 0 0-7.283-7.283zM49.06 103.546a3.234 3.234 0 0 1-3.23 3.23H7.282a3.234 3.234 0 0 1-3.23-3.23V78.461a3.234 3.234 0 0 1 3.23-3.23h37.513a5.455 5.455 0 0 1 2.41.307 3.261 3.261 0 0 1 1.856 2.923v25.084zm1-49.365a7.361 7.361 0 0 0-7.279 7.109H19.409a3.234 3.234 0 0 1-3.231-3.229v-3.942l24.268-19.673L64.125 54.18H50.056zm20.4 0l-6.562-5.469 9.98-7.564 11.902 8.486v4.546z" class="content-cls-3" >
    <path d="M131.971 15.921a2.025 2.025 0 1 0-1.212-2.267 2.044 2.044 0 0 0 1.212 2.267z" class="content-cls-3" transform="translate(-104.236 -.099)"/>
    <path d="M294.609 285.537h5.779a2.026 2.026 0 0 0 1.929-1.405l2.054-6.384 8.9 1.417a2.026 2.026 0 0 0 2.345-2v-6.558H316a2.026 2.026 0 0 0 0-4.052h-.389v-5.612a2.026 2.026 0 0 0-2.345-2l-18.819 3h-5.127a4.4 4.4 0 0 0-4.393 4.393v5.442a4.4 4.4 0 0 0 4.393 4.393h3.263v7.344a2.026 2.026 0 0 0 2.026 2.022zm4.3-4.052h-2.277v-4.969l.4.064 3.288.524zm12.649-6.7l-14.925-2.377v-6.719l14.925-2.377zm-22.581-3.015v-5.442a.341.341 0 0 1 .341-.341h3.263v6.124h-3.261a.341.341 0 0 1-.341-.336z" class="content-cls-3" transform="translate(-227.198 -196.949)"/>
    <path d="M423.5 409.107a2.025 2.025 0 1 0 .781 2.366 2.046 2.046 0 0 0-.781-2.366z" class="content-cls-3" transform="translate(-335.187 -316.441)"/>
    <path d="M110.714 363.843l-12.361-6.631A2.046 2.046 0 0 0 95.369 359v14.155a2.045 2.045 0 0 0 3.079 1.731l12.361-7.523a2.026 2.026 0 0 0-.1-3.516zm-11.292 5.7v-7.164l6.256 3.356z" class="content-cls-3" transform="translate(-76.046 -275.142)"/>
    <path d="M278.853 60.488a6.955 6.955 0 1 0-6.955 6.955 6.963 6.963 0 0 0 6.955-6.955zm-9.858 0a2.9 2.9 0 1 1 2.9 2.9 2.906 2.906 0 0 1-2.895-2.9z" class="content-cls-3" transform="translate(-211.263 -33.178)"/>
  </g>
</svg>
