<svg xmlns="http://www.w3.org/2000/svg" width="86" height="86" viewBox="0 0 82.906 65.904"> <defs> <style> .cls-1 { fill: #0f7173; } </style> </defs> <g id="dashboard" transform="translate(0 -52.499)"> <g transform="translate(0 52.499)"> <g> <path d="M234.747 124.447a3.239 3.239 0 0 0-4.114-.386c-4.846 3.3-29.152 19.912-31.764 22.524a9.716 9.716 0 0 0 13.74 13.74c2.612-2.612 19.221-26.918 22.524-31.764a3.24 3.24 0 0 0-.386-4.114zm-26.718 31.3a3.238 3.238 0 0 1-4.58-4.579c1.015-1 7.916-5.925 16.406-11.826-5.901 8.487-10.823 15.388-11.826 16.403z" class="cls-1" transform="translate(-164.286 -112.002)"/> <path d="M14.935 109.015l-4 1.95a34.813 34.813 0 0 1-2.183-29.43l4.581 2.2a3.239 3.239 0 1 0 2.8-5.84l-4.523-2.169a35.021 35.021 0 0 1 26.6-16.6V64a3.239 3.239 0 0 0 6.477 0v-4.878a34.575 34.575 0 0 1 11.136 2.934 3.238 3.238 0 1 0 2.665-5.9 41.419 41.419 0 0 0-51.465 60.808 3.238 3.238 0 0 0 4.112 1.111l6.639-3.239a3.239 3.239 0 1 0-2.84-5.821z" class="cls-1" transform="translate(0 -52.499)"/> <path d="M406.1 193.4a3.238 3.238 0 1 0-5.9 2.665 34.862 34.862 0 0 1-1.393 31.412l-4.174-1.988a3.239 3.239 0 1 0-2.785 5.848l6.8 3.239a3.238 3.238 0 0 0 4.085-1.124A41.355 41.355 0 0 0 406.1 193.4z" class="cls-1" transform="translate(-326.844 -168.987)"/> </g> </g> </g></svg>
