<svg viewBox="0 0 31.6 22.2" xmlns="http://www.w3.org/2000/svg"><path d="m16.084 6.925v13.3l10.587-2.009v-6.479a.454.454 0 0 1 .506-.451l1.3.2a.454.454 0 0 1 .4.451v7.527a.454.454 0 0 1 -.359.444l-11.59 2.492a4.086 4.086 0 0 1 -1.7 0l-11.46-2.409a.454.454 0 0 1 -.36-.432l-.2-7.645a.454.454 0 0 1 .414-.464l9.739-.856a.454.454 0 0 0 .38-.279l1.469-3.562a.454.454 0 0 1 .874.172zm-12.984-4.355-3.056 6.533a.454.454 0 0 0 .457.644l11.478-1.16a.454.454 0 0 0 .369-.268l3.693-8.32-12.612 2.317a.454.454 0 0 0 -.329.254zm12.941-2.57 3.908 8.58a.454.454 0 0 0 .377.264l11.456.921a.454.454 0 0 0 .449-.641l-2.988-6.55a.454.454 0 0 0 -.333-.258z" fill="#0f7173"/></svg>