<svg xmlns="http://www.w3.org/2000/svg" width="125" height="30" viewBox="0 0 125 30">
    <defs>
        <linearGradient id="a" x1="0%" x2="71.456%" y1="0%" y2="144.265%">
            <stop offset="0%" stop-color="#FF843E"/>
            <stop offset="100%" stop-color="#FF5642"/>
        </linearGradient>
    </defs>
    <path fill="url(#a)" fill-rule="evenodd" d="M130.082 111.768a5.223 5.223 0 1 1-9.816-3.573 5.223 5.223 0 0 1 9.816 3.573zM119 104.926a4.123 4.123 0 1 1-7.75-2.82 4.123 4.123 0 0 1 7.75 2.82zm10.072-5.812a4.673 4.673 0 1 1-8.782-3.197 4.673 4.673 0 0 1 8.782 3.197zm9.718 18.226V96.727c0-2.182.679-4.015 2.037-5.5 1.358-1.485 3-2.227 4.926-2.227h3.425c.607 0 1.082.21 1.425.63.342.421.514.92.514 1.499 0 .604-.172 1.117-.514 1.537-.343.42-.818.631-1.425.631h-2.357c-.87 0-1.576.263-2.117.788-.54.526-.81 1.222-.81 2.09v3.609h3.87c.397 0 .713.184.95.552.238.368.356.937.356 1.437 0 .499-.118.933-.356 1.3-.237.369-.553.552-.95.552h-3.87v13.715c0 .473-.258.854-.772 1.143-.515.29-1.128.517-1.84.517a3.385 3.385 0 0 1-1.78-.517c-.475-.289-.712-.67-.712-1.143zm11.781-.038v-15.79c0-.473.231-.854.693-1.143.461-.289 1.06-.569 1.8-.569.658 0 1.205.28 1.64.57.436.288.653.669.653 1.141v1.615c.422-.919 1.081-1.72 1.978-2.402.896-.683 1.859-.889 2.887-.889 1.282.13 2.138.375 2.568.735-1.292.457-2.66 2.134-3.065 3.612-1.008.129-1.904.656-2.687 1.583-.91 1.077-1.364 2.482-1.364 4.215v7.322c0 .394-.264.762-.791 1.103-.528.341-1.134.595-1.82.595a3.092 3.092 0 0 1-1.78-.575c-.474-.328-.712-.703-.712-1.123zm10.255-6.47V107.5c0-2.142.832-3.984 2.497-5.525 1.665-1.541 3.135-2.176 5.502-2.176 2.21 0 4.103.563 5.677 1.96 1.573 1.398 2.36 3.155 2.36 5.27 0 .784-.097 1.43-.292 1.94-.195.51-.495.869-.898 1.078-.403.209-.774.34-1.112.391-.338.053-.78.079-1.326.079h-7.92v.588c0 1.123.416 2.03 1.248 2.723.832.692 1.938 1.038 3.316 1.038.989 0 1.964-.248 2.927-.744.962-.497 1.586-.745 1.872-.745.547 0 1.002.255 1.366.764.364.51.546 1 .546 1.47 0 .731-.657 1.456-1.97 2.174-1.314.719-2.946 1.214-4.897 1.214-2.783 0-4.507-.874-6.262-2.35-1.756-1.476-2.634-3.415-2.634-5.819zm4.473-3.177h6.098c.445 0 .758-.074.94-.221.18-.147.27-.435.27-.863 0-.937-.354-1.7-1.064-2.288-.71-.589-1.58-.883-2.61-.883-.975 0-1.824.288-2.548.863s-1.086 1.331-1.086 2.268v1.124zm12.79 9.646V90.577c0-.473.23-.854.692-1.143.46-.29 1.06-.434 1.796-.434.737 0 1.356.145 1.856.434.5.289.75.67.75 1.143v16.518l7.287-6.842c.316-.263.658-.394 1.027-.394.553 0 1.105.262 1.658.788.553.526.966.942.966 1.52 0 .342-.145.657-.435.946l-4.659 4.218 5.804 8.279c.185.263.277.538.277.828 0 .578-.323 1.143-.968 1.695s-1.283.867-1.915.867c-.526 0-.947-.263-1.263-.71l-5.33-7.845-2.449 2.248v4.608c0 .394-.263.762-.79 1.104-.526.341-1.131.595-1.816.595-.71 0-1.303-.247-1.777-.576-.474-.328-.71-.703-.71-1.123zm18.464 0V90.577c0-.473.23-.854.691-1.143.46-.29 1.06-.434 1.797-.434.737 0 1.355.145 1.856.434.5.289.75.67.75 1.143v16.518l7.423-6.842c.316-.263.658-.394 1.027-.394.552 0 1.105.262 1.658.788.553.526.83.942.83 1.52 0 .342-.146.657-.435.946l-4.66 4.218 5.805 8.279c.184.263.276.538.276.828 0 .578-.322 1.143-.967 1.695s-1.283.867-1.915.867c-.527 0-.948-.263-1.264-.71l-5.33-7.845-2.448 2.248v4.608c0 .394-.263.762-.79 1.104-.526.341-1.132.595-1.816.595-.711 0-1.303-.247-1.777-.576-.474-.328-.71-.703-.71-1.123zm18.464 0V90.577c0-.473.232-.854.695-1.143.464-.29 1.08-.434 1.849-.434.715 0 1.324.145 1.828.434.503.289.755.67.755 1.143V117.3c0 .394-.258.762-.775 1.104-.517.341-1.12.595-1.808.595-.716 0-1.319-.247-1.809-.576-.49-.328-.735-.703-.735-1.123zm6.463-1.695c0-.473.171-.966.513-1.48.342-.512.737-.769 1.184-.769.29 0 .65.145 1.085.434.434.29 1.006.585 1.716.888.71.303 1.552.454 2.525.454 1.92 0 2.88-.566 2.88-1.697 0-.631-.322-1.131-.967-1.5-.644-.368-1.42-.67-2.327-.907a32.673 32.673 0 0 1-2.742-.849 5.344 5.344 0 0 1-2.348-1.657c-.644-.776-.966-1.77-.966-2.98 0-1.604.565-2.85 1.696-4.007 1.131-1.157 2.92-1.736 5.366-1.736 1.63 0 3.084.25 4.36.75 1.275.5 1.913.969 1.913 1.679 0 .447-.178.967-.533 1.559-.355.592-.796.888-1.322.888-.21 0-.782-.191-1.716-.573-.934-.381-1.808-.572-2.623-.572-.895 0-1.578.184-2.052.553-.473.368-.71.776-.71 1.223 0 .447.237.815.71 1.105.474.29 1.059.513 1.756.67.697.159 1.453.376 2.268.652.816.276 1.572.598 2.269.967.697.368 1.282.94 1.755 1.716.474.776.71 1.717.71 2.822 0 1.789-.637 3.196-1.913 4.222-1.276 1.026-3.057 1.539-5.346 1.539-1.972 0-3.656-.342-5.05-1.026-1.394-.684-2.09-1.473-2.09-2.368z" transform="translate(-111 -89)"/>
</svg>
