<svg xmlns="http://www.w3.org/2000/svg" width="146" height="92.964" viewBox="0 0 146 92.964">
  <defs><style>.graphic-cls-1{fill:#9fc6ea}.graphic-cls-2{fill:#376996}</style></defs>
  <g id="graphic" transform="translate(0 -91.527)">
    <path d="M47.918 237.627V229.4h29.514v50.033H47.918v-18.762" class="graphic-cls-1" transform="translate(-34.035 -97.927)"/>
    <path d="M149.786 101.527H179.3v87.081h-29.514z" class="graphic-cls-1" transform="translate(-106.389 -7.103)"/>
    <path d="M251.654 160.486h29.514v70h-29.514z" class="graphic-cls-1" transform="translate(-178.743 -48.98)"/>
    <path d="M353.523 292.739h29.514v31.681h-29.514z" class="graphic-cls-1" transform="translate(-251.098 -142.915)"/>
    <path d="M143.1 178.7h-8.266v-28.876a2.9 2.9 0 0 0-2.9-2.9h-26.612v-35.42a2.9 2.9 0 0 0-2.9-2.9H75.808v-14.18a2.9 2.9 0 0 0-2.9-2.9H43.4a2.9 2.9 0 0 0-2.9 2.9v34.151H13.883a2.9 2.9 0 0 0-2.9 2.9v8.225a2.9 2.9 0 0 0 5.795 0v-5.33H40.5v44.238H16.78v-15.864a2.9 2.9 0 1 0-5.795 0V178.7H2.9a2.9 2.9 0 1 0 0 5.795h140.2a2.9 2.9 0 1 0 0-5.795zm-14.061-25.976v25.887h-23.717v-25.89zM99.528 114.4v64.2h-23.72v-64.2zM46.294 97.322h23.72v81.286h-23.72V97.322z" class="graphic-cls-2"/>
    <path d="M38.408 291.955a2.815 2.815 0 0 0 .8.8 2.94 2.94 0 0 0 .5.267 3.024 3.024 0 0 0 .545.165 2.8 2.8 0 0 0 1.13 0 2.926 2.926 0 0 0 .542-.165 2.86 2.86 0 0 0 .5-.267 2.815 2.815 0 0 0 .8-.8 2.858 2.858 0 0 0 .267-.5 2.927 2.927 0 0 0 .168-.542 3.085 3.085 0 0 0 .055-.565 3.145 3.145 0 0 0-.055-.568 3.068 3.068 0 0 0-.168-.542 2.931 2.931 0 0 0-.267-.5 2.815 2.815 0 0 0-.8-.8 2.86 2.86 0 0 0-.5-.267 2.719 2.719 0 0 0-.542-.165 2.854 2.854 0 0 0-1.13 0 2.805 2.805 0 0 0-.545.165 2.938 2.938 0 0 0-.5.267 2.815 2.815 0 0 0-.8.8 2.931 2.931 0 0 0-.267.5 2.834 2.834 0 0 0-.165.542 2.908 2.908 0 0 0-.058.568 2.852 2.852 0 0 0 .058.565 2.709 2.709 0 0 0 .165.542 2.878 2.878 0 0 0 .267.5z" class="graphic-cls-2" transform="translate(-26.932 -139.16)"/>
  </g>
</svg>
