<svg xmlns="http://www.w3.org/2000/svg" width="26" height="26" viewBox="0 0 26 26">
    <path d="M17.875 0h-9.75A8.126 8.126 0 0 0 0 8.125v9.75A8.126 8.126 0 0 0 8.125 26h9.75A8.126 8.126 0 0 0 26 17.875v-9.75A8.126 8.126 0 0 0 17.875 0zm5.688 17.875a5.694 5.694 0 0 1-5.687 5.688H8.125a5.694 5.694 0 0 1-5.687-5.687V8.125a5.694 5.694 0 0 1 5.687-5.687h9.75a5.694 5.694 0 0 1 5.688 5.688z" data-name="Pfad 87"/>
    <path d="M13 6.5a6.5 6.5 0 1 0 6.5 6.5A6.5 6.5 0 0 0 13 6.5zm0 10.563a4.063 4.063 0 1 1 4.063-4.062A4.068 4.068 0 0 1 13 17.063z" data-name="Pfad 88"/>
    <circle cx=".866" cy=".866" r=".866" data-name="Ellipse 1" transform="translate(19.121 5.146)"/>
</svg>
