<svg xmlns="http://www.w3.org/2000/svg" width="157.19" height="157.19"><defs><style>.cls-2{fill:#bcbfc3}.cls-3{fill:rgba(146,147,152,.5)}</style></defs><g id="level-crossing" transform="translate(0 -.001)"><path id="XMLID_1667_" d="M28.143 302h29.473v49.122H28.143z" transform="translate(-19.503 -209.282)" fill="#e1e3e9"/><path id="XMLID_1665_" d="M10 462h40.613v12.28H10z" class="cls-2" transform="translate(-6.93 -320.16)"/><circle id="XMLID_1662_" cx="7.368" cy="7.368" r="7.368" class="cls-3" transform="translate(5.271 63.898)"/><circle id="XMLID_1661_" cx="7.368" cy="7.368" r="7.368" class="cls-3" transform="translate(26.466 63.898)"/><path id="XMLID_2248_" d="M198.29 359.193H84.739a8.6 8.6 0 1 1 0-17.193H198.29a8.6 8.6 0 1 1 0 17.193z" transform="translate(-52.766 -237.001)" fill="#fff"/><g id="Gruppe_229" data-name="Gruppe 229" transform="translate(3.068 3.073)"><path id="XMLID_1625_" d="M153.986 359.8l16.924-16.924h-27.576L126.41 359.8z" transform="translate(-90.669 -240.681)" fill="rgba(240,93,94,.5)"/><path id="XMLID_1624_" d="M333.632 359.8l16.924-16.924H322.98L306.056 359.8z" transform="translate(-215.161 -240.681)" fill="#f7adae"/><path id="XMLID_1622_" d="M0 0h45.155v12.281H0z" class="cls-2" transform="rotate(-45 38.537 15.963)"/><path id="XMLID_1623_" d="M0 0h12.281v45.155H0z" class="cls-2" transform="rotate(-45 10.481 4.341)"/></g><path id="XMLID_755_" d="M145.524 101.929H41.184v-9.21a3.07 3.07 0 0 0-3.07-3.07H26.447V78.634a10.438 10.438 0 1 0 0-14.735V39.473l6.382 6.382a3.07 3.07 0 0 0 4.342 0l8.684-8.684a3.07 3.07 0 0 0 0-4.342L36.4 23.377l9.452-9.452a3.07 3.07 0 0 0 0-4.342L37.17.9a3.071 3.071 0 0 0-4.342 0l-9.451 9.452L13.925.9a3.071 3.071 0 0 0-4.342 0L.9 9.583a3.07 3.07 0 0 0 0 4.342l9.452 9.452L.9 32.829a3.07 3.07 0 0 0 0 4.342l8.684 8.684a3.071 3.071 0 0 0 4.342 0l6.382-6.382v24.72a10.438 10.438 0 1 0 0 14.147v11.308H8.64a3.07 3.07 0 0 0-3.07 3.07v10.745a3.07 3.07 0 0 0 6.14 0v-7.675h23.333v6.14h-3.07a11.666 11.666 0 1 0 0 23.333h3.07v13.509H11.71v-7.675a3.07 3.07 0 1 0-6.14 0v7.675h-2.5A3.07 3.07 0 0 0 0 141.84v12.281a3.07 3.07 0 0 0 3.07 3.07h40.613a3.07 3.07 0 0 0 3.07-3.07V141.84a3.07 3.07 0 0 0-3.07-3.07h-2.5v-13.508h104.341a11.666 11.666 0 0 0 0-23.333zM33.834 66.968a4.3 4.3 0 1 1-4.3 4.3 4.3 4.3 0 0 1 4.3-4.3zm-21.2 8.6a4.3 4.3 0 1 1 4.3-4.3 4.3 4.3 0 0 1-4.295 4.297zm-.885-36.223L7.412 35l9.452-9.452a3.07 3.07 0 0 0 0-4.342l-9.452-9.452 4.342-4.342 9.452 9.452a3.071 3.071 0 0 0 4.342 0L35 7.412l4.342 4.342-9.452 9.452a3.07 3.07 0 0 0 0 4.342L39.342 35 35 39.342l-9.452-9.452a3.07 3.07 0 0 0-4.342 0zm28.864 111.706H6.14v-6.14h34.473zm60.761-31.929l11.052-11.052h18.893l-11.052 11.052zm-27.577 0l11.053-11.053h18.893L92.69 119.121zm-27.577 0l11.052-11.052h18.894l-11.053 11.051zM26.447 113.6a5.533 5.533 0 0 1 5.526-5.526h16.616l-11.052 11.047h-5.564a5.533 5.533 0 0 1-5.526-5.521zm119.077 5.526h-16.573L140 108.069h5.521a5.526 5.526 0 0 1 0 11.052z" fill="#929398"/><path id="XMLID_1118_" d="M21.21 378.14a3.071 3.071 0 1 0-2.171-.9 3.093 3.093 0 0 0 2.171.9z" transform="translate(-12.571 -257.791)" stroke="#929398" fill="#929398"/></g></svg>