<svg height="96.992" viewBox="0 0 96.991 96.992" width="96.991" xmlns="http://www.w3.org/2000/svg"><g transform="translate(-.001)"><path d="m54.037 272.882-9.23 9.23a20.4 20.4 0 0 1 -28.845-28.845l9.23-9.23a20.4 20.4 0 0 1 28.845 28.845zm-32.306-13.845a12.238 12.238 0 0 0 17.307 17.307l9.23-9.23a12.238 12.238 0 1 0 -17.307-17.307z" fill="#9fc6ea" transform="translate(-8.103 -192.979)"/><path d="m282.115 44.805-9.23 9.23a20.4 20.4 0 0 1 -28.846-28.845l9.23-9.23a20.4 20.4 0 1 1 28.845 28.845zm-32.307-13.846a12.238 12.238 0 1 0 17.307 17.307l9.23-9.23a12.238 12.238 0 1 0 -17.307-17.307z" fill="#9fc6ea" transform="translate(-192.979 -8.102)"/><path d="m197.535 175.132-22.4 22.4a4.384 4.384 0 1 0 6.2 6.2l22.4-22.4a4.384 4.384 0 0 0 -6.2-6.2z" fill="#9fc6ea" transform="translate(-140.92 -140.919)"/><g fill="#376996"><path d="m90.474 6.519a22.316 22.316 0 0 0 -31.524 0l-9.23 9.23a22.317 22.317 0 0 0 -3.787 26.467l-3.717 3.717a22.317 22.317 0 0 0 -26.466 3.786l-9.23 9.23a22.3 22.3 0 0 0 23.7 36.59 1.894 1.894 0 0 0 -1.342-3.539 18.5 18.5 0 0 1 -19.678-30.372l9.23-9.231a18.632 18.632 0 0 1 20.97-3.651l-3.349 3.354a14.052 14.052 0 0 0 -14.532 3.39l-9.23 9.23a14.132 14.132 0 0 0 19.985 19.98l9.231-9.23a14.051 14.051 0 0 0 3.407-14.47l3.357-3.357a18.655 18.655 0 0 1 -3.669 20.921l-3.2 3.2a1.894 1.894 0 1 0 2.679 2.679l3.2-3.2a22.316 22.316 0 0 0 3.811-26.421l3.735-3.735a22.327 22.327 0 0 0 26.424-3.814l9.23-9.23a22.316 22.316 0 0 0 0-31.524zm-32.306 17.681 9.231-9.23a10.344 10.344 0 0 1 14.628 14.625l-9.23 9.23a10.419 10.419 0 0 1 -8.647 2.933l.005-.005a6.278 6.278 0 1 0 -8.879-8.879l-.044.044a10.281 10.281 0 0 1 2.936-8.718zm-.213 11.356a2.49 2.49 0 0 1 3.522 3.522l-8.3 8.3-.026.026-2.066 2.066-2.349-4.694zm-18.88 25.919a2.49 2.49 0 1 1 -3.522-3.522l10.358-10.353 2.349 4.69zm-.249 11.325-9.226 9.225a10.344 10.344 0 0 1 -14.633-14.625l9.23-9.23a10.431 10.431 0 0 1 8.709-2.924l-.032.032a6.278 6.278 0 0 0 8.879 8.879l.017-.017a10.279 10.279 0 0 1 -2.944 8.66zm48.974-37.436-9.231 9.23a18.642 18.642 0 0 1 -20.926 3.675l3.357-3.361a14.224 14.224 0 0 0 14.475-3.4l9.23-9.23a14.132 14.132 0 0 0 -19.986-19.99l-9.23 9.23a14.053 14.053 0 0 0 -3.389 14.532l-3.353 3.35a18.632 18.632 0 0 1 3.653-20.972l9.23-9.23a18.5 18.5 0 0 1 26.17 26.166z"/><path d="m367.448 355.8a1.894 1.894 0 0 0 -3.127-.714l-3.226 3.227-2.379-6.795a1.894 1.894 0 1 0 -3.575 1.252l3.375 9.639a1.894 1.894 0 0 0 3.127.714l3.226-3.227 2.379 6.794a1.894 1.894 0 1 0 3.575-1.252z" transform="translate(-287.785 -283.905)"/><path d="m396.485 300.329h-7.593a1.894 1.894 0 1 0 0 3.788h7.593a1.894 1.894 0 0 0 0-3.788z" transform="translate(-313.695 -243.443)"/><path d="m302.224 387a1.894 1.894 0 0 0 -1.894 1.894v7.593a1.894 1.894 0 0 0 3.788 0v-7.597a1.894 1.894 0 0 0 -1.894-1.89z" transform="translate(-243.443 -313.694)"/><path d="m69.782 76.979 6.794 2.379-3.226 3.226a1.894 1.894 0 0 0 .714 3.127l9.636 3.375a1.894 1.894 0 1 0 1.252-3.575l-6.792-2.379 3.227-3.226a1.894 1.894 0 0 0 -.714-3.127l-9.639-3.379a1.894 1.894 0 1 0 -1.252 3.575z" transform="translate(-55.535 -59.413)"/><path d="m193.823 76.555a1.894 1.894 0 0 0 1.894-1.894v-7.593a1.894 1.894 0 1 0 -3.788 0v7.593a1.894 1.894 0 0 0 1.894 1.894z" transform="translate(-155.574 -52.829)"/><path d="m67.07 195.715h7.593a1.894 1.894 0 0 0 0-3.788h-7.593a1.894 1.894 0 0 0 0 3.788z" transform="translate(-52.83 -155.574)"/><path d="m185.67 460.584a1.895 1.895 0 1 0 1.339.555 1.908 1.908 0 0 0 -1.339-.555z" transform="translate(-148.966 -373.344)"/></g></g></svg>