<svg viewBox="0 0 85.954 85.955" height="86" width="86" xmlns="http://www.w3.org/2000/svg"><path d="m85.43 80.365-24.969-24.965a34.09 34.09 0 1 0 -5.061 5.061l24.966 24.969a1.791 1.791 0 0 0 2.533 0l2.531-2.53a1.791 1.791 0 0 0 0-2.535zm-51.406-19.48a26.861 26.861 0 1 1 6.116-52.992l2.438 7.316-12.937 6.468a1.789 1.789 0 0 0 -.9 2.169l3.23 9.693-6.376 6.381a1.791 1.791 0 1 0 2.532 2.532l7.163-7.163a1.79 1.79 0 0 0 .432-1.833l-3.09-9.27 12.937-6.469a1.789 1.789 0 0 0 .9-2.169l-2.1-6.312a26.858 26.858 0 0 1 -10.345 51.649z" fill="#376996"/></svg>
