<svg height="100.186" width="107.214" xmlns="http://www.w3.org/2000/svg"><path d="m187.915 318.082a5.219 5.219 0 0 0 -6.813-2.719l-17.044 7.2h-.1c.344-4.066-2.168-6.313-5.453-6.313 0 0-25.1 1.078-26.236.123-9.5-8.428-20-6.455-26.986 5.379v12.181c8.364 3.766 10.378 9.424 19.4 9.424h27.9a16.048 16.048 0 0 0 8.822-2.642l24.595-16.185a5.219 5.219 0 0 0 1.915-6.448zm0 0" fill="#fff" transform="translate(-83.235 -246.153)"/><g fill="#9fc6ea"><path d="m10 347.02h19.952v25.53h-19.952zm0 0" transform="translate(-7.906 -274.458)"/><path d="m214.611 112.769h47.71a4.049 4.049 0 0 0 4.048-4.049v-38.92h-55.806v38.924a4.048 4.048 0 0 0 4.048 4.045zm0 0" transform="translate(-166.47 -55.286)"/><path d="m260.229 22.917v-8.369a4.048 4.048 0 0 0 -4.048-4.048h-52.133a4.048 4.048 0 0 0 -4.048 4.048v8.369zm0 0" transform="translate(-158.12 -8.406)"/></g><path d="m318.508 94.718-9.117-4.843-9.117 4.843v-24.918h18.234zm0 0" fill="#f9f9f9" transform="translate(-237.396 -55.286)"/><path d="m248.275.5h-52.133a6.15 6.15 0 0 0 -6.142 6.142v8.369a2.094 2.094 0 0 0 2.094 2.094h.118v36.829a6.149 6.149 0 0 0 6.142 6.143h47.71a6.15 6.15 0 0 0 6.142-6.143v-36.834h.117a2.094 2.094 0 0 0 2.094-2.094v-8.364a6.15 6.15 0 0 0 -6.142-6.142zm-54.087 6.142a1.957 1.957 0 0 1 1.954-1.954h52.133a1.957 1.957 0 0 1 1.954 1.954v6.275h-56.041zm21 10.463h14.046v19.343l-6.041-3.208a2.094 2.094 0 0 0 -1.965 0l-6.041 3.208zm32.833 36.829a1.957 1.957 0 0 1 -1.954 1.955h-47.71a1.956 1.956 0 0 1 -1.954-1.955v-36.834h14.597v22.832a2.094 2.094 0 0 0 3.076 1.849l8.136-4.321 8.135 4.321a2.093 2.093 0 0 0 3.076-1.849v-22.832h14.6zm0 0" fill="#376996" transform="translate(-150.214 -.5)"/><path d="m106.6 309.334a7.34 7.34 0 0 0 -9.547-3.81l-14.485 6.117a7.175 7.175 0 0 0 -1.651-3.062 7.53 7.53 0 0 0 -5.649-2.33h-.09c-10.71.46-22.687.7-25.1.345-4.889-4.206-10.172-6-15.3-5.2-4.414.694-8.454 3.261-11.861 7.5a2.084 2.084 0 0 0 -.866-.186h-19.957a2.094 2.094 0 0 0 -2.094 2.092v25.53a2.094 2.094 0 0 0 2.094 2.094h19.952a2.094 2.094 0 0 0 2.094-2.094v-6.843a48.7 48.7 0 0 1 4.148 2.895c3.525 2.653 6.855 5.159 13.157 5.159h27.9a18.089 18.089 0 0 0 9.972-2.987l24.6-16.189a7.3 7.3 0 0 0 2.683-9.031zm-86.648 24.906h-15.764v-21.34h15.764zm81.663-19.369-24.6 16.188a13.919 13.919 0 0 1 -7.67 2.3h-27.9c-4.9 0-7.308-1.811-10.639-4.317a42.436 42.436 0 0 0 -6.667-4.334v-10.28c3.166-5.156 7.059-8.225 11.282-8.888 3.977-.625 8.2.929 12.221 4.494l.04.035c.764.643 1.316 1.108 14.941.789 6.066-.142 12.08-.393 12.684-.419a3.406 3.406 0 0 1 2.525.976 3.528 3.528 0 0 1 .822 2.33 20.542 20.542 0 0 1 -13.917 5.485h-17.068a2.094 2.094 0 1 0 0 4.187h17.07a24.753 24.753 0 0 0 17.1-6.921l16.842-7.112a3.125 3.125 0 0 1 2.933 5.489zm0 0" fill="#376996" transform="translate(0 -238.242)"/><path d="m174.6 391.456a2.093 2.093 0 1 1 2.054-1.683 2.109 2.109 0 0 1 -2.054 1.683zm0 0" fill="#376996" transform="translate(-136.384 -306.284)"/></svg>