<svg viewBox="0 0 512 512" xmlns="http://www.w3.org/2000/svg"><path d="M416.2 174.9h-58.8v-27c0-24.8 20.1-45 45-45h58.8v27c0 24.9-20.1 45-45 45zm-125.5-72h66.7V75.5c0-33.8-27.4-61.2-61.2-61.2h-66.7v27.5c-.1 33.7 27.3 61.1 61.2 61.1z" fill="#fff"/><path d="M225.8 338.5c0-63.2 51.2-114.4 114.4-114.4s114.4 51.2 114.4 114.4l-120.5 51.6z" fill="#9fc6ea"/><path d="M499.5 332.9c-6.5-14.7-23.7-21.4-38.5-14.9l-115.8 53.1-13.6-4.3c11.1-.4 21.3-7.6 25.2-18.7 4.9-14.3-2.5-29.8-16.7-35L241.7 277c-27.1-10-57.1-9-83.5 2.7L98.3 306 143 407.1l10.1-4.5c23.8-10.5 51.1-9.9 74.5 1.7l48.9 24.3c23.3 11.6 50.6 12.2 74.5 1.7l133.7-59c14.6-6.5 21.3-23.7 14.8-38.4z" fill="#fff"/><path d="M10 321.6v176.2l127.7-64.5c7.7-3.4 11.3-12.5 7.8-20.2L95.9 300.6c-3.4-7.7-12.5-11.3-20.2-7.8z" fill="#9fc6ea"/><g fill="#376996"><circle cx="81.2" cy="398.9" r="10"/><path d="M290.7 113h56.7v101.4c-2.6-.2-5.3-.3-8-.3-26.3 0-51.4 8.1-72.7 23.4-4.5 3.2-5.5 9.5-2.3 14s9.5 5.5 14 2.3c17.8-12.9 38.9-19.6 61-19.6 5.3 0 10.6.4 15.8 1.2.4.1.9.2 1.3.2 31.1 5.2 58.6 24.3 74.2 52.4 1.8 3.3 5.2 5.2 8.8 5.2 1.6 0 3.3-.4 4.8-1.3 4.8-2.7 6.6-8.8 3.9-13.6-17.3-31.2-46.9-53.1-80.9-61V185h48.8c30.3 0 55-24.7 55-55v-27c0-5.5-4.5-10-10-10h-58.8c-13.3 0-25.5 4.7-35 12.6V75.5c0-39.3-31.9-71.2-71.2-71.2h-66.7c-5.5 0-10 4.5-10 10v27.5c0 39.2 32 71.2 71.3 71.2zm111.7 0h48.8v17c0 19.3-15.7 35-35 35h-48.8v-17c0-19.4 15.7-35 35-35zm-163-88.7h56.7c28.2 0 51.2 23 51.2 51.2V93h-56.7c-28.2 0-51.2-23-51.2-51.2zm269.3 304.5c-8.7-19.8-31.9-28.7-51.7-20 0 0-.1 0-.1.1L391.5 339c-5 2.3-7.2 8.3-4.9 13.3s8.3 7.2 13.3 4.9l65.3-30.1c9.7-4.2 21 .2 25.2 9.8 4.3 9.7-.1 21-9.8 25.3l-133.7 59c-21.2 9.4-45.2 8.8-66-1.5L232 395.4c-26.1-13-56.3-13.6-83-1.9l-1 .4-36.6-82.8 50.8-22.4c24.2-10.7 51.2-11.5 76-2.4l98.4 36.1c9 3.3 13.8 13.3 10.7 22.4-3.2 9.2-13.2 14.2-22.5 11.1l-76.1-25.7c-5.2-1.8-10.9 1-12.7 6.3-1.8 5.2 1 10.9 6.3 12.7l76.1 25.7c4 1.3 8 2 12 2 15.7 0 30.4-9.9 35.8-25.5 6.6-19.3-3.6-40.6-22.7-47.6l-98.4-36.1c-29.7-10.9-62-9.9-91 2.9L103 293c-2.9-4.4-7-7.8-12-9.8-6.3-2.4-13.2-2.3-19.4.4L6 312.4c-3.6 1.6-6 5.2-6 9.2v176.2c0 3.5 1.8 6.7 4.8 8.5 1.6 1 3.4 1.5 5.2 1.5 1.5 0 3.1-.4 4.5-1.1L142 442.3c6.1-2.8 10.7-7.7 13.1-13.9 2-5.2 2.3-10.7.8-16l1.2-.5c21.2-9.4 45.2-8.8 66 1.5l48.9 24.3c26.1 13 56.3 13.6 83 1.9l133.7-59c19.7-8.8 28.7-32 20-51.8zm-372.3 92.3c-.5 1.3-1.5 2.4-2.8 3-.2.1-.3.1-.5.2L20 481.5v-43.8l29.6-14.5c5-2.4 7-8.4 4.6-13.4s-8.4-7-13.4-4.6L20 415.4v-87.3l59.7-26.2c1.3-.6 2.8-.6 4.1-.1s2.4 1.5 3 2.8l47 106.5 2.6 5.8c.5 1.5.6 2.9 0 4.2z"/></g></svg>
