<svg xmlns="http://www.w3.org/2000/svg" viewBox="0 0 83.523 83.523">
    <defs>
        <style>
            .cls-1{fill:#0f7173}
        </style>
    </defs>
    <g id="start-up" transform="translate(-.001 -.001)">
        <path id="Pfad_210" d="M73.409 289.327a2.449 2.449 0 0 0 .456 2.829l.6.6a107.013 107.013 0 0 1 6.188-6.715c.173-.173.35-.256.524-.415l-3.85-3.85c-2.24 4.045-3.545 6.811-3.918 7.551zm0 0" class="cls-1" data-name="Pfad 210" transform="translate(-61.216 -235.806)"/>
        <path id="Pfad_211" d="M169.595 390.086a113.51 113.51 0 0 1-6.7 6.2l.811.811a2.446 2.446 0 0 0 2.849.446c1.267-.653 3.261-1.591 7.492-3.948l-4.031-4.031c-.164.172-.248.35-.421.522zm0 0" class="cls-1" data-name="Pfad 211" transform="translate(-136.317 -326.012)"/>
        <path id="Pfad_212" d="M81.84 312.058c-1.768-1.768-6.741-.183-9.077 2.153-7.815 7.815-11.345 13.356-12.929 16.627a2.447 2.447 0 0 0 3.272 3.268c3.2-1.553 8.671-5.066 16.579-12.973 2.569-2.57 3.836-7.393 2.158-9.072zm0 0" class="cls-1" data-name="Pfad 212" transform="translate(-49.867 -260.517)"/>
        <path id="Pfad_213" d="M7.639 169.644l-6.921 6.921a2.447 2.447 0 0 0 2.363 4.094c3.741-1 7.032-1.427 9.248-.858a131.307 131.307 0 0 1 10.129-15.453c-2.075-1.331-8.933-.59-14.819 5.296zm0 0" class="cls-1" data-name="Pfad 213" transform="translate(0 -137.064)"/>
        <path id="Pfad_214" d="M246.986 398.335a2.442 2.442 0 0 0 2.83-.454l6.922-6.921c5.358-5.36 6.3-12.275 5.086-14.468a139.667 139.667 0 0 1-15.465 10.052c.341 1.925.114 3.793-.692 9.247a2.442 2.442 0 0 0 1.319 2.544zm0 0" class="cls-1" data-name="Pfad 214" transform="translate(-205.568 -315.074)"/>
        <path id="Pfad_215" d="M286.79 139.455a7.341 7.341 0 1 0 10.382 0 7.349 7.349 0 0 0-10.382 0zm0 0" class="cls-1" data-name="Pfad 215" transform="translate(-238.209 -114.908)"/>
        <path id="Pfad_216" d="M407.895 2.388a2.443 2.443 0 0 0-2.258-2.257 48.375 48.375 0 0 0-17.863 2.081 20.544 20.544 0 0 0 6.086 11.953 20.479 20.479 0 0 0 12.186 6.076 50.6 50.6 0 0 0 1.849-17.853zm0 0" class="cls-1" data-name="Pfad 216" transform="translate(-324.515)"/>
        <path id="Pfad_217" d="M161.571 37.707A25.707 25.707 0 0 1 154.215 24c-14.694 6.026-28.76 19.186-39.875 37.674l5.522 5.522c3.773-1.532 8.353-1.937 11.259.968s2.5 7.488.965 11.256l5.7 5.7c14.224-8.573 30.785-22.079 37.827-40.048a25.584 25.584 0 0 1-14.042-7.365zM158.11 58.47a12.235 12.235 0 1 1 0-17.3 12.249 12.249 0 0 1 0 17.3zm0 0" class="cls-1" data-name="Pfad 217" transform="translate(-95.687 -20.08)"/>
    </g>
</svg>
