<svg xmlns="http://www.w3.org/2000/svg" viewBox="0 0 29.569 28.209">
    <defs>
        <style>
            .cls-1{fill:#0f7173}
        </style>
    </defs>
    <path id="star" d="M29.527 9.878a.886.886 0 0 0-.631-.587l-8.66-2.125-4.7-7.58a.887.887 0 0 0-.753-.419.886.886 0 0 0-.753.419l-4.7 7.58L.676 9.291a.886.886 0 0 0-.465 1.433l5.757 6.809-.656 8.893a.886.886 0 0 0 1.219.885l8.255-3.371 8.255 3.371a.886.886 0 0 0 1.219-.885l-.66-8.893 5.757-6.809a.886.886 0 0 0 .17-.846zm0 0" class="cls-1" transform="translate(-.001 .832)"/>
</svg>
