<?xml version="1.0" encoding="utf-8"?>
<!-- Generator: Adobe Illustrator 23.0.6, SVG Export Plug-In . SVG Version: 6.00 Build 0)  -->
<svg version="1.1" id="Ebene_1" xmlns="http://www.w3.org/2000/svg" xmlns:xlink="http://www.w3.org/1999/xlink" x="0px" y="0px"
	 viewBox="0 0 895 176" style="enable-background:new 0 0 895 176;" xml:space="preserve">
<style type="text/css">
	.st0{fill:#272932;}
	.st1{fill:#B8C1C4;}
	.st2{fill:#FFFFFF;}
</style>
<g>
	<path class="st0" d="M323.2,33.4v99.6c0,2.2-1.8,4-4,4h-28c-2.2,0-4-1.8-4-4v-7.6c-8.2,8.9-19.6,13.3-32,13.3
		c-26.4,0.1-45.6-15-45.6-49.2V33.4c0-2.2,1.8-4,4-4h29.8c2.2,0,4,1.8,4,4v50c0,16.7,6.6,23.2,17.8,23.2c11.1,0,20.2-7.3,20.2-25.4
		V33.4c0-2.2,1.8-4,4-4h29.8C321.4,29.4,323.2,31.2,323.2,33.4z"/>
	<path class="st0" d="M456,83.2c0,34.1-23.7,55.6-52.8,55.6c-12.5,0-22.6-3.8-30-11.3v44c0,2.2-1.8,4-4,4h-29.8c-2.2,0-4-1.8-4-4
		V33.4c0-2.2,1.8-4,4-4h28c2.2,0,4,1.8,4,4v6.7c7.2-8.5,17.7-12.5,31.7-12.5C432.4,27.6,456,49,456,83.2z M417.9,83.2
		c0-16.2-9.9-25.6-22.6-25.6c-12.7,0-22.6,9.3-22.6,25.6s9.9,25.6,22.6,25.6C408,108.8,417.9,99.4,417.9,83.2z"/>
	<path class="st0" d="M542.6,129.4c0.7,1.9-0.3,4-2.1,5c-6.3,2.9-14.6,4.4-23,4.4c-27.6,0-43.7-13.5-43.7-41.1V61.6h-11.7
		c-2.2,0-4-1.8-4-4V37.4c0-2.2,1.8-4,4-4h11.7V9.4c0-2.2,1.8-4,4-4h29.8c2.2,0,4,1.8,4,4v24h20.6c2.2,0,4,1.8,4,4v20.2
		c0,2.2-1.8,4-4,4h-20.6v35.7c0,7.9,4.5,12.3,11.3,12.3c2.7,0,5.4-0.5,7.7-1.4c2.1-0.8,4.5,0.2,5.3,2.4L542.6,129.4z"/>
	<path class="st0" d="M542.3,82.9c0-32.3,25.6-55.4,60.7-55.4c35.5,0,60.7,23,60.7,55.4c0,32.6-25.2,55.7-60.7,55.7
		C567.9,138.8,542.3,115.5,542.3,82.9z M625.7,82.9c0-16.2-9.8-25.4-22.6-25.4c-12.7,0-22.6,9.1-22.6,25.4
		c0,16.5,9.9,25.8,22.6,25.8C615.9,108.8,625.7,99.4,625.7,82.9z"/>
	<path class="st0" d="M786.4,33.4v99.6c0,2.2-1.8,4-4,4h-28c-2.2,0-4-1.8-4-4v-7.6c-8.2,8.9-19.6,13.3-32,13.3
		c-26.4,0-45.6-15.1-45.6-49.2V33.4c0-2.2,1.8-4,4-4h29.8c2.2,0,4,1.8,4,4v50c0,16.7,6.6,23.2,17.8,23.2c11.1,0,20.2-7.3,20.2-25.4
		V33.4c0-2.2,1.8-4,4-4h29.8C784.6,29.4,786.4,31.2,786.4,33.4z"/>
	<path class="st0" d="M795.6,124.4l8.1-18.5c0.9-2.1,3.5-2.9,5.5-1.9c9.6,4.9,22.2,7.8,33.8,7.8c12.7,0,16.8-2.8,16.8-7.3
		c0-14.5-63.5,2-63.5-41.1c0-20.2,18.7-35.7,52.4-35.7c13.6,0,28.4,2.5,39,7.4c1.9,0.9,2.9,3.2,1.9,5.2l-8,18.3
		c-0.9,2-3.3,2.9-5.3,1.9c-9.5-4.5-18.9-6.1-27.3-6.1c-12.7,0-17.3,3.5-17.3,7.6c0,14.9,63.3-1.2,63.3,41.5
		c0,19.9-18.3,35.4-53.2,35.4c-16.5,0-33.5-3.7-44.5-9.3C795.5,128.5,794.7,126.2,795.6,124.4z"/>
</g>
<path class="st0" d="M14,0h148c7.7,0,14,6.3,14,14v148c0,7.7-6.3,14-14,14H14c-7.7,0-14-6.3-14-14V14C0,6.3,6.3,0,14,0z"/>
<ellipse class="st1" cx="88" cy="128.3" rx="60.8" ry="15.7"/>
<path class="st2" d="M131.9,48.7v77.1c0,1.7-1.4,3.1-3.1,3.1h-21.7c-1.7,0-3.1-1.4-3.1-3.1V120c-6.3,6.9-15.2,10.3-24.7,10.3
	c-20.4,0-35.3-11.7-35.3-38.1V48.7c0-1.7,1.4-3.1,3.1-3.1h23c1.7,0,3.1,1.4,3.1,3.1v38.7c0,12.9,5.1,18,13.8,18
	c8.6,0,15.7-5.7,15.7-19.7v-37c0-1.7,1.4-3.1,3.1-3.1h23C130.6,45.7,131.9,47,131.9,48.7z"/>
</svg>
