<svg viewBox="0 0 813.9 203.6" xmlns="http://www.w3.org/2000/svg"><path d="M134.8 34.8v118.3c0 2.6-2.1 4.7-4.7 4.7H96.9c-2.6 0-4.7-2.1-4.7-4.7v-9c-9.7 10.6-23.3 15.8-38 15.8C22.9 160 0 142.1 0 101.5V34.8c0-2.6 2.1-4.7 4.7-4.7h35.4c2.6 0 4.7 2.1 4.7 4.7v59.4c0 19.8 7.8 27.6 21.2 27.6 13.2 0 24-8.7 24-30.2V34.8c0-2.6 2.1-4.7 4.7-4.7h35.4c2.6 0 4.7 2.1 4.7 4.7zM292.5 94c0 40.5-28.1 66-62.7 66-14.9 0-26.9-4.5-35.6-13.4v52.3c0 2.6-2.1 4.7-4.7 4.7h-35.4c-2.6 0-4.7-2.1-4.7-4.7V34.8c0-2.6 2.1-4.7 4.7-4.7h33.2c2.6 0 4.7 2.1 4.7 4.7v8c8.5-10.1 21-14.9 37.7-14.9 34.8.1 62.8 25.5 62.8 66.1zm-45.2 0c0-19.3-11.8-30.4-26.9-30.4S193.5 74.7 193.5 94s11.8 30.4 26.9 30.4 26.9-11.1 26.9-30.4zm148.1 54.9c.8 2.3-.3 4.8-2.5 5.9-7.5 3.5-17.3 5.2-27.3 5.2-32.8 0-51.9-16-51.9-48.8V68.3h-13.9c-2.6 0-4.7-2.1-4.7-4.7v-24c0-2.6 2.1-4.7 4.7-4.7h13.9V6.3c0-2.6 2.1-4.7 4.7-4.7h35.4c2.6 0 4.7 2.1 4.7 4.7v28.5H383c2.6 0 4.7 2.1 4.7 4.7v24c0 2.6-2.1 4.7-4.7 4.7h-24.5v42.4c0 9.4 5.4 14.6 13.4 14.6 3.2 0 6.4-.6 9.2-1.7 2.5-1 5.4.2 6.3 2.8zm-.4-55.2c0-38.4 30.4-65.8 72.1-65.8 42.2 0 72.1 27.3 72.1 65.8 0 38.7-29.9 66.2-72.1 66.2-41.6.1-72.1-27.5-72.1-66.2zm99.1 0c0-19.3-11.6-30.2-26.9-30.2-15.1 0-26.9 10.8-26.9 30.2 0 19.6 11.8 30.6 26.9 30.6 15.3.1 26.9-11 26.9-30.6zM685 34.8v118.3c0 2.6-2.1 4.7-4.7 4.7H647c-2.6 0-4.7-2.1-4.7-4.7v-9c-9.7 10.6-23.3 15.8-38 15.8-31.4 0-54.2-17.9-54.2-58.5V34.8c0-2.6 2.1-4.7 4.7-4.7h35.4c2.6 0 4.7 2.1 4.7 4.7v59.4c0 19.8 7.8 27.6 21.2 27.6 13.2 0 24-8.7 24-30.2V34.8c0-2.6 2.1-4.7 4.7-4.7h35.4c2.7 0 4.8 2.1 4.8 4.7zm10.9 108.1l9.6-22c1.1-2.5 4.1-3.5 6.5-2.3 11.4 5.8 26.4 9.3 40.1 9.3 15.1 0 20-3.3 20-8.7 0-17.2-75.4 2.4-75.4-48.8 0-24 22.2-42.4 62.2-42.4 16.1 0 33.7 3 46.3 8.8 2.3 1.1 3.4 3.8 2.3 6.2L798 64.7c-1.1 2.4-3.9 3.5-6.3 2.3-11.3-5.3-22.4-7.2-32.4-7.2-15.1 0-20.5 4.2-20.5 9 0 17.7 75.2-1.4 75.2 49.3 0 23.6-21.7 42-63.2 42-19.6 0-39.8-4.4-52.8-11.1-2.2-1.2-3.1-3.9-2.1-6.1z" fill="#272932"/></svg>
