<svg xmlns="http://www.w3.org/2000/svg" viewBox="0 0 39 39">
    <defs>
        <style>
            .cls-1{fill:#272932}.cls-2{fill:#b8c1c4}.cls-3{fill:#fff}
        </style>
    </defs>
    <g id="Logo">
        <g id="logo_icon">
            <path id="Pfad_180" d="M3.1 0h32.8A3.111 3.111 0 0 1 39 3.1v32.8a3.111 3.111 0 0 1-3.1 3.1H3.1A3.111 3.111 0 0 1 0 35.9V3.1A3.111 3.111 0 0 1 3.1 0z" class="cls-1" data-name="Pfad 180"/>
            <ellipse id="Ellipse_4" cx="13.473" cy="3.479" class="cls-2" data-name="Ellipse 4" rx="13.473" ry="3.479" transform="translate(6.027 24.951)"/>
            <path id="Pfad_181" d="M29.228 10.791v17.085a.69.69 0 0 1-.687.687h-4.809a.69.69 0 0 1-.687-.687v-1.285a7.276 7.276 0 0 1-5.473 2.282c-4.52 0-7.822-2.593-7.822-8.443v-9.639a.69.69 0 0 1 .687-.687h5.1a.69.69 0 0 1 .687.687v8.576c0 2.859 1.13 3.989 3.058 3.989 1.906 0 3.479-1.263 3.479-4.365v-8.2a.69.69 0 0 1 .687-.687h5.1a.69.69 0 0 1 .68.687z" class="cls-3" data-name="Pfad 181"/>
        </g>
        <g id="logo_icon-2" data-name="logo_icon">
            <path id="Pfad_182" d="M3.1 0h32.8A3.111 3.111 0 0 1 39 3.1v32.8a3.111 3.111 0 0 1-3.1 3.1H3.1A3.111 3.111 0 0 1 0 35.9V3.1A3.111 3.111 0 0 1 3.1 0z" class="cls-1" data-name="Pfad 182"/>
            <ellipse id="Ellipse_5" cx="13.473" cy="3.479" class="cls-2" data-name="Ellipse 5" rx="13.473" ry="3.479" transform="translate(6.027 24.951)"/>
            <path id="Pfad_183" d="M29.228 10.791v17.085a.69.69 0 0 1-.687.687h-4.809a.69.69 0 0 1-.687-.687v-1.285a7.276 7.276 0 0 1-5.473 2.282c-4.52 0-7.822-2.593-7.822-8.443v-9.639a.69.69 0 0 1 .687-.687h5.1a.69.69 0 0 1 .687.687v8.576c0 2.859 1.13 3.989 3.058 3.989 1.906 0 3.479-1.263 3.479-4.365v-8.2a.69.69 0 0 1 .687-.687h5.1a.69.69 0 0 1 .68.687z" class="cls-3" data-name="Pfad 183"/>
        </g>
    </g>
</svg>
