<svg xmlns="http://www.w3.org/2000/svg" id="whatsapp" width="19.581" height="19.581" viewBox="0 0 19.581 19.581">
  <path d="M9.793 0a9.784 9.784 0 0 0-7.929 15.529l-1.22 3.637 3.763-1.2A9.789 9.789 0 1 0 9.793 0zm5.7 13.825a2.763 2.763 0 0 1-1.921 1.382c-.512.109-1.18.2-3.429-.737a12.265 12.265 0 0 1-4.874-4.305A5.592 5.592 0 0 1 4.1 7.212a3.126 3.126 0 0 1 1-2.383 1.422 1.422 0 0 1 1-.351c.121 0 .23.006.328.011.288.012.432.029.622.483.236.569.811 1.974.88 2.118a.583.583 0 0 1 .042.53 1.692 1.692 0 0 1-.317.449c-.144.166-.281.294-.426.472-.132.155-.281.322-.115.609a8.69 8.69 0 0 0 1.589 1.974A7.2 7.2 0 0 0 11 12.542a.619.619 0 0 0 .69-.109 11.846 11.846 0 0 0 .765-1.013.546.546 0 0 1 .7-.213c.264.092 1.663.783 1.951.926s.477.213.547.334a2.438 2.438 0 0 1-.163 1.358z" />
</svg>
