<?xml version="1.0" encoding="UTF-8"?>
<svg width="21px" height="48px" viewBox="0 0 21 48" version="1.1" xmlns="http://www.w3.org/2000/svg" xmlns:xlink="http://www.w3.org/1999/xlink">
    <!-- Generator: Sketch 52.6 (67491) - http://www.bohemiancoding.com/sketch -->
    <title>ic-surf</title>
    <desc>Created with Sketch.</desc>
    <g id="Page-1" stroke="none" stroke-width="1" fill="none" fill-rule="evenodd">
        <g id="NoBrand_flow_Surf" transform="translate(-166.000000, -22.000000)" fill="#000000">
            <g id="Background_Home" transform="translate(-130.000000, 0.000000)">
                <g id="Group-3">
                    <g id="img-logo" transform="translate(280.000000, 22.000000)">
                        <g id="ic-surf">
                            <g id="surfboard" transform="translate(26.500000, 26.500000) rotate(-45.000000) translate(-26.500000, -26.500000) translate(8.000000, 8.000000)">
                                <path d="M19,18 C18.0219229,18.2516344 16.7181019,18.7515217 15.7349526,19.7349527 C14.7515216,20.7181019 14.2516343,22.021923 14,23 C14.978077,22.7483657 16.2818981,22.2484784 17.2650473,21.2650474 C18.2484783,20.2818981 18.7483656,18.9777953 19,18 Z" id="Path"></path>
                                <path d="M28.1452175,22 C28.8158329,21.1813681 29.4350106,20.3638364 30,19.5485054 L28.747341,8.25215477 L17.4508546,7 C16.6358285,7.56445993 15.8186019,8.18393545 15,8.85430036 L26.8347942,10.1647717 L28.1452175,22 Z" id="Path"></path>
                                <path d="M20.1517769,15.1725383 L24,11.2462625 L12.9715418,10 C12.712162,10.2510436 12.4505168,10.4783984 12.1925527,10.7415753 C6.6116381,16.4355563 2.0971259,22.983779 0.428712975,28.0734064 L0,29.3794688 L5.61800934,30 L11.9224126,23.5679103 C12.0501204,22.5241583 12.5547218,19.7855007 14.4992213,17.8014184 C16.444004,15.8173362 19.1284157,15.3025379 20.1517769,15.1725383 Z" id="Path"></path>
                                <path d="M32.4963839,16 C36.9252375,8.18471688 37,1.43210552 37,1.05525016 L37,0 L35.9448042,0 C35.5679683,0 28.8151553,0.0747663551 21,4.50412311 L31.3493841,5.65090713 L32.4963839,16 Z" id="Path"></path>
                                <path d="M27,24.0284582 L25.7537375,13 L21.8274617,16.8482231 C21.6974621,17.8713012 21.1826638,20.555996 19.1985816,22.5007787 C17.2144993,24.4452782 14.4758417,24.9498796 13.4320897,25.0775874 L7,31.3819907 L7.62053119,37 L8.92659356,36.571287 C14.016221,34.9028741 20.5644437,30.3886451 26.2584247,24.8074473 C26.5216016,24.5494832 26.7489564,24.287838 27,24.0284582 Z" id="Path"></path>
                            </g>
                        </g>
                    </g>
                </g>
            </g>
        </g>
    </g>
</svg>